<?xml version="1.0" encoding="us-ascii" standalone="no"?><svg xmlns="http://www.w3.org/2000/svg" xmlns:xlink="http://www.w3.org/1999/xlink" contentStyleType="text/css" height="683px" preserveAspectRatio="none" style="width:1543px;height:683px;background:#FFFFFF;" version="1.1" viewBox="0 0 1543 683" width="1543px" zoomAndPan="magnify"><defs/><g><text fill="#000000" font-family="sans-serif" font-size="14" font-weight="bold" lengthAdjust="spacing" textLength="108" x="716.75" y="28.5352">Ada Excception</text><rect fill="#FFFFFF" height="426.1055" style="stroke:#181818;stroke-width:1.0;" width="10" x="89" y="158.2871"/><rect fill="#FFFFFF" height="391.7949" style="stroke:#181818;stroke-width:1.0;" width="10" x="253" y="192.5977"/><rect fill="#FFFFFF" height="64.3105" style="stroke:#181818;stroke-width:1.0;" width="10" x="258" y="520.082"/><rect fill="#FFFFFF" height="30" style="stroke:#181818;stroke-width:1.0;" width="10" x="361" y="224.9082"/><rect fill="#FFFFFF" height="192.5527" style="stroke:#181818;stroke-width:1.0;" width="10" x="473.5" y="290.2188"/><rect fill="#FFFFFF" height="160.2422" style="stroke:#181818;stroke-width:1.0;" width="10" x="846.5" y="322.5293"/><rect fill="#FFFFFF" height="101.6211" style="stroke:#181818;stroke-width:1.0;" width="10" x="1136.5" y="351.8398"/><rect fill="#FFFFFF" height="64.3105" style="stroke:#181818;stroke-width:1.0;" width="10" x="1141.5" y="389.1504"/><rect fill="#FFFFFF" height="30" style="stroke:#181818;stroke-width:1.0;" width="10" x="1347.5" y="423.4609"/><rect fill="#FFFFFF" height="30" style="stroke:#181818;stroke-width:1.0;" width="10" x="1489.5" y="554.3926"/><line style="stroke:#181818;stroke-width:0.5;stroke-dasharray:5.0,5.0;" x1="94" x2="94" y1="118.9766" y2="602.3926"/><line style="stroke:#181818;stroke-width:0.5;stroke-dasharray:5.0,5.0;" x1="258" x2="258" y1="118.9766" y2="602.3926"/><line style="stroke:#181818;stroke-width:0.5;stroke-dasharray:5.0,5.0;" x1="365.5" x2="365.5" y1="118.9766" y2="602.3926"/><line style="stroke:#181818;stroke-width:0.5;stroke-dasharray:5.0,5.0;" x1="478.5" x2="478.5" y1="118.9766" y2="602.3926"/><line style="stroke:#181818;stroke-width:0.5;stroke-dasharray:5.0,5.0;" x1="851.5" x2="851.5" y1="118.9766" y2="602.3926"/><line style="stroke:#181818;stroke-width:0.5;stroke-dasharray:5.0,5.0;" x1="1141.5" x2="1141.5" y1="118.9766" y2="602.3926"/><line style="stroke:#181818;stroke-width:0.5;stroke-dasharray:5.0,5.0;" x1="1352.5" x2="1352.5" y1="118.9766" y2="602.3926"/><line style="stroke:#181818;stroke-width:0.5;stroke-dasharray:5.0,5.0;" x1="1494.5" x2="1494.5" y1="118.9766" y2="602.3926"/><text fill="#000000" font-family="sans-serif" font-size="14" lengthAdjust="spacing" textLength="172" x="5" y="116.0234">bare-metal Ada program</text><ellipse cx="94" cy="50.9883" fill="#E2E2F0" rx="8" ry="8" style="stroke:#181818;stroke-width:0.5;"/><path d="M94,58.9883 L94,85.9883 M81,66.9883 L107,66.9883 M94,85.9883 L81,100.9883 M94,85.9883 L107,100.9883 " fill="none" style="stroke:#181818;stroke-width:0.5;"/><text fill="#000000" font-family="sans-serif" font-size="14" lengthAdjust="spacing" textLength="172" x="5" y="614.9277">bare-metal Ada program</text><ellipse cx="94" cy="626.3809" fill="#E2E2F0" rx="8" ry="8" style="stroke:#181818;stroke-width:0.5;"/><path d="M94,634.3809 L94,661.3809 M81,642.3809 L107,642.3809 M94,661.3809 L81,676.3809 M94,661.3809 L107,676.3809 " fill="none" style="stroke:#181818;stroke-width:0.5;"/><rect fill="#E2E2F0" height="30.4883" rx="2.5" ry="2.5" style="stroke:#181818;stroke-width:0.5;" width="44" x="236" y="87.4883"/><text fill="#000000" font-family="sans-serif" font-size="14" lengthAdjust="spacing" textLength="30" x="243" y="108.0234">Utils</text><rect fill="#E2E2F0" height="30.4883" rx="2.5" ry="2.5" style="stroke:#181818;stroke-width:0.5;" width="44" x="236" y="601.3926"/><text fill="#000000" font-family="sans-serif" font-size="14" lengthAdjust="spacing" textLength="30" x="243" y="621.9277">Utils</text><rect fill="#E2E2F0" height="30.4883" rx="2.5" ry="2.5" style="stroke:#181818;stroke-width:0.5;" width="137" x="297.5" y="87.4883"/><text fill="#000000" font-family="sans-serif" font-size="14" lengthAdjust="spacing" textLength="123" x="304.5" y="108.0234">Utils.Runtime_Log</text><rect fill="#E2E2F0" height="30.4883" rx="2.5" ry="2.5" style="stroke:#181818;stroke-width:0.5;" width="137" x="297.5" y="601.3926"/><text fill="#000000" font-family="sans-serif" font-size="14" lengthAdjust="spacing" textLength="123" x="304.5" y="621.9277">Utils.Runtime_Log</text><text fill="#000000" font-family="sans-serif" font-size="14" lengthAdjust="spacing" textLength="62" x="444.5" y="116.0234">CPU core</text><ellipse cx="478.5" cy="50.9883" fill="#E2E2F0" rx="8" ry="8" style="stroke:#181818;stroke-width:0.5;"/><path d="M478.5,58.9883 L478.5,85.9883 M465.5,66.9883 L491.5,66.9883 M478.5,85.9883 L465.5,100.9883 M478.5,85.9883 L491.5,100.9883 " fill="none" style="stroke:#181818;stroke-width:0.5;"/><text fill="#000000" font-family="sans-serif" font-size="14" lengthAdjust="spacing" textLength="62" x="444.5" y="614.9277">CPU core</text><ellipse cx="478.5" cy="626.3809" fill="#E2E2F0" rx="8" ry="8" style="stroke:#181818;stroke-width:0.5;"/><path d="M478.5,634.3809 L478.5,661.3809 M465.5,642.3809 L491.5,642.3809 M478.5,661.3809 L465.5,676.3809 M478.5,661.3809 L491.5,676.3809 " fill="none" style="stroke:#181818;stroke-width:0.5;"/><rect fill="#E2E2F0" height="30.4883" rx="2.5" ry="2.5" style="stroke:#181818;stroke-width:0.5;" width="192" x="755.5" y="87.4883"/><text fill="#000000" font-family="sans-serif" font-size="14" lengthAdjust="spacing" textLength="178" x="762.5" y="108.0234">interrupt_handling_Asm.S</text><rect fill="#E2E2F0" height="30.4883" rx="2.5" ry="2.5" style="stroke:#181818;stroke-width:0.5;" width="192" x="755.5" y="601.3926"/><text fill="#000000" font-family="sans-serif" font-size="14" lengthAdjust="spacing" textLength="178" x="762.5" y="621.9277">interrupt_handling_Asm.S</text><rect fill="#E2E2F0" height="30.4883" rx="2.5" ry="2.5" style="stroke:#181818;stroke-width:0.5;" width="176" x="1053.5" y="87.4883"/><text fill="#000000" font-family="sans-serif" font-size="14" lengthAdjust="spacing" textLength="162" x="1060.5" y="108.0234">CPU.Interrupt_Handling</text><rect fill="#E2E2F0" height="30.4883" rx="2.5" ry="2.5" style="stroke:#181818;stroke-width:0.5;" width="176" x="1053.5" y="601.3926"/><text fill="#000000" font-family="sans-serif" font-size="14" lengthAdjust="spacing" textLength="162" x="1060.5" y="621.9277">CPU.Interrupt_Handling</text><rect fill="#E2E2F0" height="30.4883" rx="2.5" ry="2.5" style="stroke:#181818;stroke-width:0.5;" width="178" x="1263.5" y="87.4883"/><text fill="#000000" font-family="sans-serif" font-size="14" lengthAdjust="spacing" textLength="164" x="1270.5" y="108.0234">CPU.Self_Hosted_Debug</text><rect fill="#E2E2F0" height="30.4883" rx="2.5" ry="2.5" style="stroke:#181818;stroke-width:0.5;" width="178" x="1263.5" y="601.3926"/><text fill="#000000" font-family="sans-serif" font-size="14" lengthAdjust="spacing" textLength="164" x="1270.5" y="621.9277">CPU.Self_Hosted_Debug</text><rect fill="#E2E2F0" height="30.4883" rx="2.5" ry="2.5" style="stroke:#181818;stroke-width:0.5;" width="86" x="1451.5" y="87.4883"/><text fill="#000000" font-family="sans-serif" font-size="14" lengthAdjust="spacing" textLength="72" x="1458.5" y="108.0234">cpu_asm.S</text><rect fill="#E2E2F0" height="30.4883" rx="2.5" ry="2.5" style="stroke:#181818;stroke-width:0.5;" width="86" x="1451.5" y="601.3926"/><text fill="#000000" font-family="sans-serif" font-size="14" lengthAdjust="spacing" textLength="72" x="1458.5" y="621.9277">cpu_asm.S</text><rect fill="#FFFFFF" height="426.1055" style="stroke:#181818;stroke-width:1.0;" width="10" x="89" y="158.2871"/><rect fill="#FFFFFF" height="391.7949" style="stroke:#181818;stroke-width:1.0;" width="10" x="253" y="192.5977"/><rect fill="#FFFFFF" height="64.3105" style="stroke:#181818;stroke-width:1.0;" width="10" x="258" y="520.082"/><rect fill="#FFFFFF" height="30" style="stroke:#181818;stroke-width:1.0;" width="10" x="361" y="224.9082"/><rect fill="#FFFFFF" height="192.5527" style="stroke:#181818;stroke-width:1.0;" width="10" x="473.5" y="290.2188"/><rect fill="#FFFFFF" height="160.2422" style="stroke:#181818;stroke-width:1.0;" width="10" x="846.5" y="322.5293"/><rect fill="#FFFFFF" height="101.6211" style="stroke:#181818;stroke-width:1.0;" width="10" x="1136.5" y="351.8398"/><rect fill="#FFFFFF" height="64.3105" style="stroke:#181818;stroke-width:1.0;" width="10" x="1141.5" y="389.1504"/><rect fill="#FFFFFF" height="30" style="stroke:#181818;stroke-width:1.0;" width="10" x="1347.5" y="423.4609"/><rect fill="#FFFFFF" height="30" style="stroke:#181818;stroke-width:1.0;" width="10" x="1489.5" y="554.3926"/><line style="stroke:#181818;stroke-width:1.0;" x1="94" x2="141" y1="145.2871" y2="145.2871"/><line style="stroke:#181818;stroke-width:1.0;" x1="141" x2="141" y1="145.2871" y2="158.2871"/><line style="stroke:#181818;stroke-width:1.0;" x1="100" x2="141" y1="158.2871" y2="158.2871"/><polygon fill="#181818" points="110,154.2871,100,158.2871,110,162.2871,106,158.2871" style="stroke:#181818;stroke-width:1.0;"/><text fill="#000000" font-family="sans-serif" font-size="13" lengthAdjust="spacing" textLength="90" x="106" y="140.5449">Ada exception</text><polygon fill="#181818" points="241,188.5977,251,192.5977,241,196.5977,245,192.5977" style="stroke:#181818;stroke-width:1.0;"/><line style="stroke:#181818;stroke-width:1.0;" x1="99" x2="247" y1="192.5977" y2="192.5977"/><text fill="#000000" font-family="sans-serif" font-size="13" lengthAdjust="spacing" textLength="135" x="106" y="187.8555">Last_Chance_Handler</text><polygon fill="#181818" points="349,220.9082,359,224.9082,349,228.9082,353,224.9082" style="stroke:#181818;stroke-width:1.0;"/><line style="stroke:#181818;stroke-width:1.0;" x1="263" x2="355" y1="224.9082" y2="224.9082"/><text fill="#000000" font-family="sans-serif" font-size="13" lengthAdjust="spacing" textLength="73" x="270" y="220.166">Log_Error_*</text><path d="M376,205.5977 L376,230.5977 L668,230.5977 L668,215.5977 L658,205.5977 L376,205.5977 " fill="#FEFFDD" style="stroke:#181818;stroke-width:0.5;"/><path d="M658,205.5977 L658,215.5977 L668,215.5977 L658,205.5977 " fill="#FEFFDD" style="stroke:#181818;stroke-width:0.5;"/><text fill="#000000" font-family="sans-serif" font-size="13" lengthAdjust="spacing" textLength="271" x="382" y="223.166">Print Ada exception error message to UART</text><polygon fill="#181818" points="461.5,286.2188,471.5,290.2188,461.5,294.2188,465.5,290.2188" style="stroke:#181818;stroke-width:1.0;"/><line style="stroke:#181818;stroke-width:1.0;" x1="263" x2="467.5" y1="290.2188" y2="290.2188"/><text fill="#000000" font-family="sans-serif" font-size="13" lengthAdjust="spacing" textLength="96" x="270" y="285.4766">BRK instruction</text><path d="M488,270.9082 L488,295.9082 L717,295.9082 L717,280.9082 L707,270.9082 L488,270.9082 " fill="#FEFFDD" style="stroke:#181818;stroke-width:0.5;"/><path d="M707,270.9082 L707,280.9082 L717,280.9082 L707,270.9082 " fill="#FEFFDD" style="stroke:#181818;stroke-width:0.5;"/><text fill="#000000" font-family="sans-serif" font-size="13" lengthAdjust="spacing" textLength="208" x="494" y="288.4766">Synchronous hardware exception</text><polygon fill="#181818" points="834.5,318.5293,844.5,322.5293,834.5,326.5293,838.5,322.5293" style="stroke:#181818;stroke-width:1.0;"/><line style="stroke:#181818;stroke-width:1.0;" x1="483.5" x2="840.5" y1="322.5293" y2="322.5293"/><text fill="#000000" font-family="sans-serif" font-size="13" lengthAdjust="spacing" textLength="344" x="490.5" y="317.7871">same_el_with_sp_el0_synchronous_exception_handler</text><polygon fill="#181818" points="1124.5,347.8398,1134.5,351.8398,1124.5,355.8398,1128.5,351.8398" style="stroke:#181818;stroke-width:1.0;"/><line style="stroke:#181818;stroke-width:1.0;" x1="856.5" x2="1130.5" y1="351.8398" y2="351.8398"/><text fill="#000000" font-family="sans-serif" font-size="13" lengthAdjust="spacing" textLength="261" x="863.5" y="347.0977">Ada_Handle_EL1_Synchronous_Exception</text><line style="stroke:#181818;stroke-width:1.0;" x1="1146.5" x2="1193.5" y1="376.1504" y2="376.1504"/><line style="stroke:#181818;stroke-width:1.0;" x1="1193.5" x2="1193.5" y1="376.1504" y2="389.1504"/><line style="stroke:#181818;stroke-width:1.0;" x1="1152.5" x2="1193.5" y1="389.1504" y2="389.1504"/><polygon fill="#181818" points="1162.5,385.1504,1152.5,389.1504,1162.5,393.1504,1158.5,389.1504" style="stroke:#181818;stroke-width:1.0;"/><text fill="#000000" font-family="sans-serif" font-size="13" lengthAdjust="spacing" textLength="187" x="1158.5" y="371.4082">Handle_El1_Debug_Exception</text><polygon fill="#181818" points="1335.5,419.4609,1345.5,423.4609,1335.5,427.4609,1339.5,423.4609" style="stroke:#181818;stroke-width:1.0;"/><line style="stroke:#181818;stroke-width:1.0;" x1="1151.5" x2="1341.5" y1="423.4609" y2="423.4609"/><text fill="#000000" font-family="sans-serif" font-size="13" lengthAdjust="spacing" textLength="92" x="1158.5" y="418.7188">Run_Debugger</text><polygon fill="#181818" points="274,478.7715,264,482.7715,274,486.7715,270,482.7715" style="stroke:#181818;stroke-width:1.0;"/><line style="stroke:#181818;stroke-width:1.0;" x1="268" x2="850.5" y1="482.7715" y2="482.7715"/><text fill="#000000" font-family="sans-serif" font-size="13" lengthAdjust="spacing" textLength="24" x="280" y="478.0293">eret</text><line style="stroke:#181818;stroke-width:1.0;" x1="263" x2="310" y1="507.082" y2="507.082"/><line style="stroke:#181818;stroke-width:1.0;" x1="310" x2="310" y1="507.082" y2="520.082"/><line style="stroke:#181818;stroke-width:1.0;" x1="269" x2="310" y1="520.082" y2="520.082"/><polygon fill="#181818" points="279,516.082,269,520.082,279,524.082,275,520.082" style="stroke:#181818;stroke-width:1.0;"/><text fill="#000000" font-family="sans-serif" font-size="13" lengthAdjust="spacing" textLength="84" x="275" y="502.3398">Systen_Crash</text><polygon fill="#181818" points="1477.5,550.3926,1487.5,554.3926,1477.5,558.3926,1481.5,554.3926" style="stroke:#181818;stroke-width:1.0;"/><line style="stroke:#181818;stroke-width:1.0;" x1="268" x2="1483.5" y1="554.3926" y2="554.3926"/><text fill="#000000" font-family="sans-serif" font-size="13" lengthAdjust="spacing" textLength="59" x="275" y="549.6504">Park_Cpu</text><!--SRC=[dPLDJyCm38Rl_0fhHoGck7906cFI43jC6pjReJLjH9jKISh7loTfGvjr3Htij2H-xSTsd1fk2e95oc3rcIHK6Ix51KkCL31xOOgkIZAiQ0mg9JF5ojb5x02kxgAYssP5dq48_iuCnQC0mA-13eONUWQti67Qu39d8Y5SCv4Mf9ouZz1QkZtdq-iw5_DTBGml2JSoQzp935TAIOMNNYAazQ9ubXk_ONzRnOKvpWd8gQ0ahLb6O2GS5hjdBo6HDdxySW1tnE1DKZh3o7TgkJr08XMD9TcTsTpkTq_0XJQgJfekHFBRVuaaLrB8MaFELFfXsn3qRYAZ8OpZwI4SaYsThLLT6SnTlxZ8SA7B-TuXQcOpf08_kCbHL_RlDUgU1pkCLjlsUeWG3T0REweuXo_S_B6pM7iBnsZRxcyQhZOt69GBLuCg3SYYNe_C8MutGVP3LTpW0xtKMOJdNqZdKEsfUCMrr8RI5i11sNlRBhAmMp6IKnSZcc0upbMTIAPI_hDWuZvr3nOf2bwISCwdxcre-zlCTw7sNxOY0fUAwNpywGcdDF2GL3ModvdSClM6oweU6xNUS3oba_EJTwqv6DaDjo8VWcy0]--></g></svg>