<?xml version="1.0" encoding="us-ascii" standalone="no"?><svg xmlns="http://www.w3.org/2000/svg" xmlns:xlink="http://www.w3.org/1999/xlink" contentStyleType="text/css" height="1247px" preserveAspectRatio="none" style="width:1628px;height:1247px;background:#FFFFFF;" version="1.1" viewBox="0 0 1628 1247" width="1628px" zoomAndPan="magnify"><defs/><g><text fill="#000000" font-family="sans-serif" font-size="14" font-weight="bold" lengthAdjust="spacing" textLength="486" x="572" y="28.5352">Entering Self-hosted debugger on synchronous hardware exception</text><rect fill="#FFFFFF" height="1019.7871" style="stroke:#181818;stroke-width:1.0;" width="10" x="117.5" y="128.9766"/><rect fill="#FFFFFF" height="998.4766" style="stroke:#181818;stroke-width:1.0;" width="10" x="490.5" y="150.2871"/><rect fill="#FFFFFF" height="136.6211" style="stroke:#181818;stroke-width:1.0;" width="10" x="495.5" y="187.5977"/><rect fill="#FFFFFF" height="28" style="stroke:#181818;stroke-width:1.0;" width="10" x="500.5" y="229.9082"/><rect fill="#FFFFFF" height="165.9316" style="stroke:#181818;stroke-width:1.0;" width="10" x="495.5" y="982.832"/><rect fill="#FFFFFF" height="28" style="stroke:#181818;stroke-width:1.0;" width="10" x="500.5" y="1084.4531"/><rect fill="#FFFFFF" height="30" style="stroke:#181818;stroke-width:1.0;" width="10" x="780.5" y="294.2188"/><rect fill="#FFFFFF" height="599.9922" style="stroke:#181818;stroke-width:1.0;" width="10" x="780.5" y="353.5293"/><rect fill="#FFFFFF" height="254.5527" style="stroke:#181818;stroke-width:1.0;" width="10" x="785.5" y="415.1504"/><rect fill="#FFFFFF" height="28" style="stroke:#181818;stroke-width:1.0;" width="10" x="790.5" y="457.4609"/><rect fill="#FFFFFF" height="216.5527" style="stroke:#181818;stroke-width:1.0;" width="10" x="785.5" y="721.9688"/><rect fill="#FFFFFF" height="74.9658" style="stroke:#181818;stroke-width:1.0;" width="10" x="790.5" y="764.2793"/><rect fill="#FFFFFF" height="30" style="stroke:#181818;stroke-width:1.0;" width="10" x="780.5" y="1017.1426"/><rect fill="#FFFFFF" height="59.3105" style="stroke:#181818;stroke-width:1.0;" width="10" x="991.5" y="521.7715"/><rect fill="#FFFFFF" height="59.3105" style="stroke:#181818;stroke-width:1.0;" width="10" x="991.5" y="879.2109"/><rect fill="#FFFFFF" height="30" style="stroke:#181818;stroke-width:1.0;" width="10" x="1136.5" y="551.082"/><rect fill="#FFFFFF" height="30" style="stroke:#181818;stroke-width:1.0;" width="10" x="1136.5" y="908.5215"/><rect fill="#FFFFFF" height="59.3105" style="stroke:#181818;stroke-width:1.0;" width="10" x="1214.5" y="610.3926"/><rect fill="#FFFFFF" height="30" style="stroke:#181818;stroke-width:1.0;" width="10" x="1302.5" y="639.7031"/><rect fill="#FFFFFF" height="30" style="stroke:#181818;stroke-width:1.0;" width="10" x="1424" y="809.2451"/><rect fill="none" height="577.9922" style="stroke:#000000;stroke-width:1.5;" width="933.5" x="687.5" y="368.5293"/><line style="stroke:#181818;stroke-width:0.5;stroke-dasharray:5.0,5.0;" x1="122" x2="122" y1="118.9766" y2="1166.7637"/><line style="stroke:#181818;stroke-width:0.5;stroke-dasharray:5.0,5.0;" x1="495.5" x2="495.5" y1="118.9766" y2="1166.7637"/><line style="stroke:#181818;stroke-width:0.5;stroke-dasharray:5.0,5.0;" x1="785.5" x2="785.5" y1="118.9766" y2="1166.7637"/><line style="stroke:#181818;stroke-width:0.5;stroke-dasharray:5.0,5.0;" x1="996.5" x2="996.5" y1="118.9766" y2="1166.7637"/><line style="stroke:#181818;stroke-width:0.5;stroke-dasharray:5.0,5.0;" x1="1141.5" x2="1141.5" y1="118.9766" y2="1166.7637"/><line style="stroke:#181818;stroke-width:0.5;stroke-dasharray:5.0,5.0;" x1="1219.5" x2="1219.5" y1="118.9766" y2="1166.7637"/><line style="stroke:#181818;stroke-width:0.5;stroke-dasharray:5.0,5.0;" x1="1307.5" x2="1307.5" y1="118.9766" y2="1166.7637"/><line style="stroke:#181818;stroke-width:0.5;stroke-dasharray:5.0,5.0;" x1="1428.5" x2="1428.5" y1="118.9766" y2="1166.7637"/><text fill="#000000" font-family="sans-serif" font-size="14" lengthAdjust="spacing" textLength="229" x="5" y="116.0234">synchronous hardware exception</text><ellipse cx="122.5" cy="50.9883" fill="#E2E2F0" rx="8" ry="8" style="stroke:#181818;stroke-width:0.5;"/><path d="M122.5,58.9883 L122.5,85.9883 M109.5,66.9883 L135.5,66.9883 M122.5,85.9883 L109.5,100.9883 M122.5,85.9883 L135.5,100.9883 " fill="none" style="stroke:#181818;stroke-width:0.5;"/><text fill="#000000" font-family="sans-serif" font-size="14" lengthAdjust="spacing" textLength="229" x="5" y="1179.2988">synchronous hardware exception</text><ellipse cx="122.5" cy="1190.752" fill="#E2E2F0" rx="8" ry="8" style="stroke:#181818;stroke-width:0.5;"/><path d="M122.5,1198.752 L122.5,1225.752 M109.5,1206.752 L135.5,1206.752 M122.5,1225.752 L109.5,1240.752 M122.5,1225.752 L135.5,1240.752 " fill="none" style="stroke:#181818;stroke-width:0.5;"/><rect fill="#E2E2F0" height="30.4883" rx="2.5" ry="2.5" style="stroke:#181818;stroke-width:0.5;" width="192" x="399.5" y="87.4883"/><text fill="#000000" font-family="sans-serif" font-size="14" lengthAdjust="spacing" textLength="178" x="406.5" y="108.0234">interrupt_handling_Asm.S</text><rect fill="#E2E2F0" height="30.4883" rx="2.5" ry="2.5" style="stroke:#181818;stroke-width:0.5;" width="192" x="399.5" y="1165.7637"/><text fill="#000000" font-family="sans-serif" font-size="14" lengthAdjust="spacing" textLength="178" x="406.5" y="1186.2988">interrupt_handling_Asm.S</text><rect fill="#E2E2F0" height="30.4883" rx="2.5" ry="2.5" style="stroke:#181818;stroke-width:0.5;" width="176" x="697.5" y="87.4883"/><text fill="#000000" font-family="sans-serif" font-size="14" lengthAdjust="spacing" textLength="162" x="704.5" y="108.0234">CPU.Interrupt_Handling</text><rect fill="#E2E2F0" height="30.4883" rx="2.5" ry="2.5" style="stroke:#181818;stroke-width:0.5;" width="176" x="697.5" y="1165.7637"/><text fill="#000000" font-family="sans-serif" font-size="14" lengthAdjust="spacing" textLength="162" x="704.5" y="1186.2988">CPU.Interrupt_Handling</text><rect fill="#E2E2F0" height="30.4883" rx="2.5" ry="2.5" style="stroke:#181818;stroke-width:0.5;" width="178" x="907.5" y="87.4883"/><text fill="#000000" font-family="sans-serif" font-size="14" lengthAdjust="spacing" textLength="164" x="914.5" y="108.0234">CPU.Self_Hosted_Debug</text><rect fill="#E2E2F0" height="30.4883" rx="2.5" ry="2.5" style="stroke:#181818;stroke-width:0.5;" width="178" x="907.5" y="1165.7637"/><text fill="#000000" font-family="sans-serif" font-size="14" lengthAdjust="spacing" textLength="164" x="914.5" y="1186.2988">CPU.Self_Hosted_Debug</text><rect fill="#E2E2F0" height="30.4883" rx="2.5" ry="2.5" style="stroke:#181818;stroke-width:0.5;" width="92" x="1095.5" y="87.4883"/><text fill="#000000" font-family="sans-serif" font-size="14" lengthAdjust="spacing" textLength="78" x="1102.5" y="108.0234">Gdb_Server</text><rect fill="#E2E2F0" height="30.4883" rx="2.5" ry="2.5" style="stroke:#181818;stroke-width:0.5;" width="92" x="1095.5" y="1165.7637"/><text fill="#000000" font-family="sans-serif" font-size="14" lengthAdjust="spacing" textLength="78" x="1102.5" y="1186.2988">Gdb_Server</text><rect fill="#E2E2F0" height="30.4883" rx="2.5" ry="2.5" style="stroke:#181818;stroke-width:0.5;" width="44" x="1197.5" y="87.4883"/><text fill="#000000" font-family="sans-serif" font-size="14" lengthAdjust="spacing" textLength="30" x="1204.5" y="108.0234">Utils</text><rect fill="#E2E2F0" height="30.4883" rx="2.5" ry="2.5" style="stroke:#181818;stroke-width:0.5;" width="44" x="1197.5" y="1165.7637"/><text fill="#000000" font-family="sans-serif" font-size="14" lengthAdjust="spacing" textLength="30" x="1204.5" y="1186.2988">Utils</text><rect fill="#E2E2F0" height="30.4883" rx="2.5" ry="2.5" style="stroke:#181818;stroke-width:0.5;" width="86" x="1264.5" y="87.4883"/><text fill="#000000" font-family="sans-serif" font-size="14" lengthAdjust="spacing" textLength="72" x="1271.5" y="108.0234">cpu_asm.S</text><rect fill="#E2E2F0" height="30.4883" rx="2.5" ry="2.5" style="stroke:#181818;stroke-width:0.5;" width="86" x="1264.5" y="1165.7637"/><text fill="#000000" font-family="sans-serif" font-size="14" lengthAdjust="spacing" textLength="72" x="1271.5" y="1186.2988">cpu_asm.S</text><rect fill="#E2E2F0" height="30.4883" rx="2.5" ry="2.5" style="stroke:#181818;stroke-width:0.5;" width="137" x="1360.5" y="87.4883"/><text fill="#000000" font-family="sans-serif" font-size="14" lengthAdjust="spacing" textLength="123" x="1367.5" y="108.0234">Utils.Runtime_Log</text><rect fill="#E2E2F0" height="30.4883" rx="2.5" ry="2.5" style="stroke:#181818;stroke-width:0.5;" width="137" x="1360.5" y="1165.7637"/><text fill="#000000" font-family="sans-serif" font-size="14" lengthAdjust="spacing" textLength="123" x="1367.5" y="1186.2988">Utils.Runtime_Log</text><rect fill="#FFFFFF" height="1019.7871" style="stroke:#181818;stroke-width:1.0;" width="10" x="117.5" y="128.9766"/><rect fill="#FFFFFF" height="998.4766" style="stroke:#181818;stroke-width:1.0;" width="10" x="490.5" y="150.2871"/><rect fill="#FFFFFF" height="136.6211" style="stroke:#181818;stroke-width:1.0;" width="10" x="495.5" y="187.5977"/><rect fill="#FFFFFF" height="28" style="stroke:#181818;stroke-width:1.0;" width="10" x="500.5" y="229.9082"/><rect fill="#FFFFFF" height="165.9316" style="stroke:#181818;stroke-width:1.0;" width="10" x="495.5" y="982.832"/><rect fill="#FFFFFF" height="28" style="stroke:#181818;stroke-width:1.0;" width="10" x="500.5" y="1084.4531"/><rect fill="#FFFFFF" height="30" style="stroke:#181818;stroke-width:1.0;" width="10" x="780.5" y="294.2188"/><rect fill="#FFFFFF" height="599.9922" style="stroke:#181818;stroke-width:1.0;" width="10" x="780.5" y="353.5293"/><rect fill="#FFFFFF" height="254.5527" style="stroke:#181818;stroke-width:1.0;" width="10" x="785.5" y="415.1504"/><rect fill="#FFFFFF" height="28" style="stroke:#181818;stroke-width:1.0;" width="10" x="790.5" y="457.4609"/><rect fill="#FFFFFF" height="216.5527" style="stroke:#181818;stroke-width:1.0;" width="10" x="785.5" y="721.9688"/><rect fill="#FFFFFF" height="74.9658" style="stroke:#181818;stroke-width:1.0;" width="10" x="790.5" y="764.2793"/><rect fill="#FFFFFF" height="30" style="stroke:#181818;stroke-width:1.0;" width="10" x="780.5" y="1017.1426"/><rect fill="#FFFFFF" height="59.3105" style="stroke:#181818;stroke-width:1.0;" width="10" x="991.5" y="521.7715"/><rect fill="#FFFFFF" height="59.3105" style="stroke:#181818;stroke-width:1.0;" width="10" x="991.5" y="879.2109"/><rect fill="#FFFFFF" height="30" style="stroke:#181818;stroke-width:1.0;" width="10" x="1136.5" y="551.082"/><rect fill="#FFFFFF" height="30" style="stroke:#181818;stroke-width:1.0;" width="10" x="1136.5" y="908.5215"/><rect fill="#FFFFFF" height="59.3105" style="stroke:#181818;stroke-width:1.0;" width="10" x="1214.5" y="610.3926"/><rect fill="#FFFFFF" height="30" style="stroke:#181818;stroke-width:1.0;" width="10" x="1302.5" y="639.7031"/><rect fill="#FFFFFF" height="30" style="stroke:#181818;stroke-width:1.0;" width="10" x="1424" y="809.2451"/><polygon fill="#181818" points="478.5,146.2871,488.5,150.2871,478.5,154.2871,482.5,150.2871" style="stroke:#181818;stroke-width:1.0;"/><line style="stroke:#181818;stroke-width:1.0;" x1="127.5" x2="484.5" y1="150.2871" y2="150.2871"/><text fill="#000000" font-family="sans-serif" font-size="13" lengthAdjust="spacing" textLength="344" x="134.5" y="145.5449">same_el_with_sp_el0_synchronous_exception_handler</text><line style="stroke:#181818;stroke-width:1.0;" x1="500.5" x2="547.5" y1="174.5977" y2="174.5977"/><line style="stroke:#181818;stroke-width:1.0;" x1="547.5" x2="547.5" y1="174.5977" y2="187.5977"/><line style="stroke:#181818;stroke-width:1.0;" x1="506.5" x2="547.5" y1="187.5977" y2="187.5977"/><polygon fill="#181818" points="516.5,183.5977,506.5,187.5977,516.5,191.5977,512.5,187.5977" style="stroke:#181818;stroke-width:1.0;"/><text fill="#000000" font-family="sans-serif" font-size="13" lengthAdjust="spacing" textLength="195" x="512.5" y="169.8555">INTERRUPT_HANDLER_PROLOG</text><line style="stroke:#181818;stroke-width:1.0;" x1="510.5" x2="552.5" y1="221.9082" y2="221.9082"/><line style="stroke:#181818;stroke-width:1.0;" x1="552.5" x2="552.5" y1="221.9082" y2="234.9082"/><line style="stroke:#181818;stroke-width:1.0;" x1="511.5" x2="552.5" y1="234.9082" y2="234.9082"/><polygon fill="#181818" points="521.5,230.9082,511.5,234.9082,521.5,238.9082,517.5,234.9082" style="stroke:#181818;stroke-width:1.0;"/><text fill="#000000" font-family="sans-serif" font-size="13" lengthAdjust="spacing" textLength="116" x="517.5" y="217.166">save CPU registers</text><polygon fill="#181818" points="768.5,290.2188,778.5,294.2188,768.5,298.2188,772.5,294.2188" style="stroke:#181818;stroke-width:1.0;"/><line style="stroke:#181818;stroke-width:1.0;" x1="505.5" x2="774.5" y1="294.2188" y2="294.2188"/><text fill="#000000" font-family="sans-serif" font-size="13" lengthAdjust="spacing" textLength="182" x="512.5" y="289.4766">Ada_Enter_Interrupt_Context</text><polygon fill="#181818" points="768.5,349.5293,778.5,353.5293,768.5,357.5293,772.5,353.5293" style="stroke:#181818;stroke-width:1.0;"/><line style="stroke:#181818;stroke-width:1.0;" x1="500.5" x2="774.5" y1="353.5293" y2="353.5293"/><text fill="#000000" font-family="sans-serif" font-size="13" lengthAdjust="spacing" textLength="261" x="507.5" y="348.7871">Ada_Handle_EL1_Synchronous_Exception</text><path d="M687.5,368.5293 L749.5,368.5293 L749.5,375.8398 L739.5,385.8398 L687.5,385.8398 L687.5,368.5293 " fill="#EEEEEE" style="stroke:#000000;stroke-width:1.5;"/><rect fill="none" height="577.9922" style="stroke:#000000;stroke-width:1.5;" width="933.5" x="687.5" y="368.5293"/><text fill="#000000" font-family="sans-serif" font-size="13" font-weight="bold" lengthAdjust="spacing" textLength="17" x="702.5" y="382.0977">alt</text><text fill="#000000" font-family="sans-serif" font-size="11" font-weight="bold" lengthAdjust="spacing" textLength="226" x="764.5" y="381.1641">[data abort or prefetch abort exceptions]</text><line style="stroke:#181818;stroke-width:1.0;" x1="790.5" x2="837.5" y1="402.1504" y2="402.1504"/><line style="stroke:#181818;stroke-width:1.0;" x1="837.5" x2="837.5" y1="402.1504" y2="415.1504"/><line style="stroke:#181818;stroke-width:1.0;" x1="796.5" x2="837.5" y1="415.1504" y2="415.1504"/><polygon fill="#181818" points="806.5,411.1504,796.5,415.1504,806.5,419.1504,802.5,415.1504" style="stroke:#181818;stroke-width:1.0;"/><text fill="#000000" font-family="sans-serif" font-size="13" lengthAdjust="spacing" textLength="176" x="802.5" y="397.4082">Handle_El1_Error_Exception</text><line style="stroke:#181818;stroke-width:1.0;" x1="800.5" x2="842.5" y1="449.4609" y2="449.4609"/><line style="stroke:#181818;stroke-width:1.0;" x1="842.5" x2="842.5" y1="449.4609" y2="462.4609"/><line style="stroke:#181818;stroke-width:1.0;" x1="801.5" x2="842.5" y1="462.4609" y2="462.4609"/><polygon fill="#181818" points="811.5,458.4609,801.5,462.4609,811.5,466.4609,807.5,462.4609" style="stroke:#181818;stroke-width:1.0;"/><text fill="#000000" font-family="sans-serif" font-size="13" lengthAdjust="spacing" textLength="130" x="807.5" y="444.7188">Print_Exception_Info</text><polygon fill="#181818" points="979.5,517.7715,989.5,521.7715,979.5,525.7715,983.5,521.7715" style="stroke:#181818;stroke-width:1.0;"/><line style="stroke:#181818;stroke-width:1.0;" x1="795.5" x2="985.5" y1="521.7715" y2="521.7715"/><text fill="#000000" font-family="sans-serif" font-size="13" lengthAdjust="spacing" textLength="92" x="802.5" y="517.0293">Run_Debugger</text><polygon fill="#181818" points="1124.5,547.082,1134.5,551.082,1124.5,555.082,1128.5,551.082" style="stroke:#181818;stroke-width:1.0;"/><line style="stroke:#181818;stroke-width:1.0;" x1="1001.5" x2="1130.5" y1="551.082" y2="551.082"/><text fill="#000000" font-family="sans-serif" font-size="13" lengthAdjust="spacing" textLength="101" x="1008.5" y="546.3398">Run_Gdb_Server</text><polygon fill="#181818" points="1202.5,606.3926,1212.5,610.3926,1202.5,614.3926,1206.5,610.3926" style="stroke:#181818;stroke-width:1.0;"/><line style="stroke:#181818;stroke-width:1.0;" x1="795.5" x2="1208.5" y1="610.3926" y2="610.3926"/><text fill="#000000" font-family="sans-serif" font-size="13" lengthAdjust="spacing" textLength="88" x="802.5" y="605.6504">System_Crash</text><polygon fill="#181818" points="1290.5,635.7031,1300.5,639.7031,1290.5,643.7031,1294.5,639.7031" style="stroke:#181818;stroke-width:1.0;"/><line style="stroke:#181818;stroke-width:1.0;" x1="1224.5" x2="1296.5" y1="639.7031" y2="639.7031"/><text fill="#000000" font-family="sans-serif" font-size="13" lengthAdjust="spacing" textLength="59" x="1231.5" y="634.9609">Park_Cpu</text><line style="stroke:#000000;stroke-width:1.0;stroke-dasharray:2.0,2.0;" x1="687.5" x2="1621" y1="678.7031" y2="678.7031"/><text fill="#000000" font-family="sans-serif" font-size="11" font-weight="bold" lengthAdjust="spacing" textLength="328" x="692.5" y="689.3379">[breakpoint or watchpoint or break instruction exceptions]</text><line style="stroke:#181818;stroke-width:1.0;" x1="790.5" x2="837.5" y1="708.9688" y2="708.9688"/><line style="stroke:#181818;stroke-width:1.0;" x1="837.5" x2="837.5" y1="708.9688" y2="721.9688"/><line style="stroke:#181818;stroke-width:1.0;" x1="796.5" x2="837.5" y1="721.9688" y2="721.9688"/><polygon fill="#181818" points="806.5,717.9688,796.5,721.9688,806.5,725.9688,802.5,721.9688" style="stroke:#181818;stroke-width:1.0;"/><text fill="#000000" font-family="sans-serif" font-size="13" lengthAdjust="spacing" textLength="187" x="802.5" y="704.2266">Handle_El1_Debug_Exception</text><line style="stroke:#181818;stroke-width:1.0;" x1="795.5" x2="842.5" y1="751.2793" y2="751.2793"/><line style="stroke:#181818;stroke-width:1.0;" x1="842.5" x2="842.5" y1="751.2793" y2="764.2793"/><line style="stroke:#181818;stroke-width:1.0;" x1="801.5" x2="842.5" y1="764.2793" y2="764.2793"/><polygon fill="#181818" points="811.5,760.2793,801.5,764.2793,811.5,768.2793,807.5,764.2793" style="stroke:#181818;stroke-width:1.0;"/><text fill="#000000" font-family="sans-serif" font-size="13" lengthAdjust="spacing" textLength="130" x="807.5" y="746.5371">Print_Exception_Info</text><polygon fill="#181818" points="1412,805.2451,1422,809.2451,1412,813.2451,1416,809.2451" style="stroke:#181818;stroke-width:1.0;"/><line style="stroke:#181818;stroke-width:1.0;" x1="1219.5" x2="1418" y1="809.2451" y2="809.2451"/><text fill="#000000" font-family="sans-serif" font-size="13" lengthAdjust="spacing" textLength="73" x="1226.5" y="804.5029">Log_Error_*</text><path d="M1439,782.2793 L1439,822.2793 L1616,822.2793 L1616,792.2793 L1606,782.2793 L1439,782.2793 " fill="#FEFFDD" style="stroke:#181818;stroke-width:0.5;"/><path d="M1606,782.2793 L1606,792.2793 L1616,792.2793 L1606,782.2793 " fill="#FEFFDD" style="stroke:#181818;stroke-width:0.5;"/><text fill="#000000" font-family="sans-serif" font-size="13" lengthAdjust="spacing" textLength="156" x="1445" y="799.8477">Print hardware exception</text><text fill="#000000" font-family="sans-serif" font-size="13" lengthAdjust="spacing" textLength="144" x="1445" y="815.1582">error message to UART</text><polygon fill="#181818" points="979.5,875.2109,989.5,879.2109,979.5,883.2109,983.5,879.2109" style="stroke:#181818;stroke-width:1.0;"/><line style="stroke:#181818;stroke-width:1.0;" x1="795.5" x2="985.5" y1="879.2109" y2="879.2109"/><text fill="#000000" font-family="sans-serif" font-size="13" lengthAdjust="spacing" textLength="92" x="802.5" y="874.4688">Run_Debugger</text><polygon fill="#181818" points="1124.5,904.5215,1134.5,908.5215,1124.5,912.5215,1128.5,908.5215" style="stroke:#181818;stroke-width:1.0;"/><line style="stroke:#181818;stroke-width:1.0;" x1="1001.5" x2="1130.5" y1="908.5215" y2="908.5215"/><text fill="#000000" font-family="sans-serif" font-size="13" lengthAdjust="spacing" textLength="101" x="1008.5" y="903.7793">Run_Gdb_Server</text><line style="stroke:#181818;stroke-width:1.0;" x1="500.5" x2="547.5" y1="969.832" y2="969.832"/><line style="stroke:#181818;stroke-width:1.0;" x1="547.5" x2="547.5" y1="969.832" y2="982.832"/><line style="stroke:#181818;stroke-width:1.0;" x1="506.5" x2="547.5" y1="982.832" y2="982.832"/><polygon fill="#181818" points="516.5,978.832,506.5,982.832,516.5,986.832,512.5,982.832" style="stroke:#181818;stroke-width:1.0;"/><text fill="#000000" font-family="sans-serif" font-size="13" lengthAdjust="spacing" textLength="188" x="512.5" y="965.0898">INTERRUPT_HANDLER_EPILOG</text><polygon fill="#181818" points="768.5,1013.1426,778.5,1017.1426,768.5,1021.1426,772.5,1017.1426" style="stroke:#181818;stroke-width:1.0;"/><line style="stroke:#181818;stroke-width:1.0;" x1="505.5" x2="774.5" y1="1017.1426" y2="1017.1426"/><text fill="#000000" font-family="sans-serif" font-size="13" lengthAdjust="spacing" textLength="174" x="512.5" y="1012.4004">Ada_Exit_Interrupt_Context</text><line style="stroke:#181818;stroke-width:1.0;" x1="510.5" x2="552.5" y1="1076.4531" y2="1076.4531"/><line style="stroke:#181818;stroke-width:1.0;" x1="552.5" x2="552.5" y1="1076.4531" y2="1089.4531"/><line style="stroke:#181818;stroke-width:1.0;" x1="511.5" x2="552.5" y1="1089.4531" y2="1089.4531"/><polygon fill="#181818" points="521.5,1085.4531,511.5,1089.4531,521.5,1093.4531,517.5,1089.4531" style="stroke:#181818;stroke-width:1.0;"/><text fill="#000000" font-family="sans-serif" font-size="13" lengthAdjust="spacing" textLength="132" x="517.5" y="1071.7109">restore CPU registers</text><polygon fill="#181818" points="133.5,1144.7637,123.5,1148.7637,133.5,1152.7637,129.5,1148.7637" style="stroke:#181818;stroke-width:1.0;"/><line style="stroke:#181818;stroke-width:1.0;" x1="127.5" x2="494.5" y1="1148.7637" y2="1148.7637"/><text fill="#000000" font-family="sans-serif" font-size="13" lengthAdjust="spacing" textLength="24" x="139.5" y="1144.0215">eret</text><!--SRC=[xLTDR-8m4BtpAqOSLohQNdkeX6XKa50R1JXR9XaIgo6EnWxGVryx1CX2FeWescgrNB3ZDpDl9kEdYHOwHd0IZIII46OOhnuYgJG64E0o2qCaa0cepyIFI2OoKn1n2hQS473dOwg5J7hSrvAWtupgMvZOS8tjI81M33myGrzOufIbcaKy2MAJ0XkgzM3MXoTGV8qCOxOLEc8gDSlVhEIJ7LtjRP5ir1F5MjSMPldLnsvZDdcREvwtSETiF7nxcJeUSxttwVjhuVbw3hVHK7o3C78NG1WAyyf9dTnsuX3WTr8sZ0QJ8s9S82pXOS1PtghiT3wIPhdJ5SnhFLKIRqDVbsFl6pBCzyYSwIERbThLETwsxddoM4F0DGU-bAJ1tDMKS8NQZuednxjGQW6ezzoInI63-94vH98kk7VFu2O-hj4sVI9XkcSbprrt9zEXUQvFm0em6-S2p5wi05l-NfRiD-5Uf1fuNzgV6q0jCYVn6YpP36c3T8XyUbBXgXI-P5a1_ADQ3T2BghPdr5ZKXHQnigdCFesBDHiHLr5j4GjuLSqAHzQddsQC7rJKvVJ1HcdML9oIHNDf6e1bL0NBRjs8iK9O4lAFL9gxOHLXouqS77Vv6OX4QSfyUsdk9n7vI_qt9UAiR_BbmDmfBSneCfLvPFDNgEIl2lD4cdWamaXN79fVphjg9Aj4euq3QrIAXmXQmcBepIkWc0HvvCQUliocfRVR3VvBwa-Gr8vIOdh5p1Uz3hRtcA0TTtAV2Rfb7Dq9_HUcqTkgHwZCzzfFdFtRllcUZ8IXxdKCVHsmZ6hXyGK0]--></g></svg>