<?xml version="1.0" encoding="us-ascii" standalone="no"?><svg xmlns="http://www.w3.org/2000/svg" xmlns:xlink="http://www.w3.org/1999/xlink" contentStyleType="text/css" height="401px" preserveAspectRatio="none" style="width:894px;height:401px;background:#FFFFFF;" version="1.1" viewBox="0 0 894 401" width="894px" zoomAndPan="magnify"><defs/><g><text fill="#000000" font-family="sans-serif" font-size="14" font-weight="bold" lengthAdjust="spacing" textLength="340" x="273" y="28.5352">Entering Self-hosted GDB server on Data Abort</text><rect fill="#FFFFFF" height="141.5869" style="stroke:#181818;stroke-width:1.0;" width="10" x="236" y="150.2871"/><rect fill="#FFFFFF" height="112.2764" style="stroke:#181818;stroke-width:1.0;" width="10" x="408" y="179.5977"/><rect fill="#FFFFFF" height="74.9658" style="stroke:#181818;stroke-width:1.0;" width="10" x="413" y="216.9082"/><rect fill="#FFFFFF" height="30" style="stroke:#181818;stroke-width:1.0;" width="10" x="593" y="261.874"/><line style="stroke:#181818;stroke-width:0.5;stroke-dasharray:5.0,5.0;" x1="79" x2="79" y1="118.9766" y2="320.5293"/><line style="stroke:#181818;stroke-width:0.5;stroke-dasharray:5.0,5.0;" x1="241" x2="241" y1="118.9766" y2="320.5293"/><line style="stroke:#181818;stroke-width:0.5;stroke-dasharray:5.0,5.0;" x1="412.5" x2="412.5" y1="118.9766" y2="320.5293"/><line style="stroke:#181818;stroke-width:0.5;stroke-dasharray:5.0,5.0;" x1="598" x2="598" y1="118.9766" y2="320.5293"/><text fill="#000000" font-family="sans-serif" font-size="14" lengthAdjust="spacing" textLength="143" x="5" y="116.0234">data abort exception</text><ellipse cx="79.5" cy="50.9883" fill="#E2E2F0" rx="8" ry="8" style="stroke:#181818;stroke-width:0.5;"/><path d="M79.5,58.9883 L79.5,85.9883 M66.5,66.9883 L92.5,66.9883 M79.5,85.9883 L66.5,100.9883 M79.5,85.9883 L92.5,100.9883 " fill="none" style="stroke:#181818;stroke-width:0.5;"/><text fill="#000000" font-family="sans-serif" font-size="14" lengthAdjust="spacing" textLength="143" x="5" y="333.0645">data abort exception</text><ellipse cx="79.5" cy="344.5176" fill="#E2E2F0" rx="8" ry="8" style="stroke:#181818;stroke-width:0.5;"/><path d="M79.5,352.5176 L79.5,379.5176 M66.5,360.5176 L92.5,360.5176 M79.5,379.5176 L66.5,394.5176 M79.5,379.5176 L92.5,394.5176 " fill="none" style="stroke:#181818;stroke-width:0.5;"/><rect fill="#E2E2F0" height="30.4883" rx="2.5" ry="2.5" style="stroke:#181818;stroke-width:0.5;" width="154" x="164" y="87.4883"/><text fill="#000000" font-family="sans-serif" font-size="14" lengthAdjust="spacing" textLength="140" x="171" y="108.0234">arch-support-asm.S</text><rect fill="#E2E2F0" height="30.4883" rx="2.5" ry="2.5" style="stroke:#181818;stroke-width:0.5;" width="154" x="164" y="319.5293"/><text fill="#000000" font-family="sans-serif" font-size="14" lengthAdjust="spacing" textLength="140" x="171" y="340.0645">arch-support-asm.S</text><rect fill="#E2E2F0" height="30.4883" rx="2.5" ry="2.5" style="stroke:#181818;stroke-width:0.5;" width="117" x="354.5" y="87.4883"/><text fill="#000000" font-family="sans-serif" font-size="14" lengthAdjust="spacing" textLength="103" x="361.5" y="108.0234">arch-support.c</text><rect fill="#E2E2F0" height="30.4883" rx="2.5" ry="2.5" style="stroke:#181818;stroke-width:0.5;" width="117" x="354.5" y="319.5293"/><text fill="#000000" font-family="sans-serif" font-size="14" lengthAdjust="spacing" textLength="103" x="361.5" y="340.0645">arch-support.c</text><rect fill="#E2E2F0" height="30.4883" rx="2.5" ry="2.5" style="stroke:#181818;stroke-width:0.5;" width="94" x="551" y="87.4883"/><text fill="#000000" font-family="sans-serif" font-size="14" lengthAdjust="spacing" textLength="80" x="558" y="108.0234">gdbserver.c</text><rect fill="#E2E2F0" height="30.4883" rx="2.5" ry="2.5" style="stroke:#181818;stroke-width:0.5;" width="94" x="551" y="319.5293"/><text fill="#000000" font-family="sans-serif" font-size="14" lengthAdjust="spacing" textLength="80" x="558" y="340.0645">gdbserver.c</text><rect fill="#FFFFFF" height="141.5869" style="stroke:#181818;stroke-width:1.0;" width="10" x="236" y="150.2871"/><rect fill="#FFFFFF" height="112.2764" style="stroke:#181818;stroke-width:1.0;" width="10" x="408" y="179.5977"/><rect fill="#FFFFFF" height="74.9658" style="stroke:#181818;stroke-width:1.0;" width="10" x="413" y="216.9082"/><rect fill="#FFFFFF" height="30" style="stroke:#181818;stroke-width:1.0;" width="10" x="593" y="261.874"/><polygon fill="#181818" points="224,146.2871,234,150.2871,224,154.2871,228,150.2871" style="stroke:#181818;stroke-width:1.0;"/><line style="stroke:#181818;stroke-width:1.0;" x1="79.5" x2="230" y1="150.2871" y2="150.2871"/><text fill="#000000" font-family="sans-serif" font-size="13" lengthAdjust="spacing" textLength="129" x="86.5" y="145.5449">data_abort_handler()</text><polygon fill="#181818" points="396,175.5977,406,179.5977,396,183.5977,400,179.5977" style="stroke:#181818;stroke-width:1.0;"/><line style="stroke:#181818;stroke-width:1.0;" x1="246" x2="402" y1="179.5977" y2="179.5977"/><text fill="#000000" font-family="sans-serif" font-size="13" lengthAdjust="spacing" textLength="143" x="253" y="174.8555">c_data_abort_handler()</text><line style="stroke:#181818;stroke-width:1.0;" x1="418" x2="465" y1="203.9082" y2="203.9082"/><line style="stroke:#181818;stroke-width:1.0;" x1="465" x2="465" y1="203.9082" y2="216.9082"/><line style="stroke:#181818;stroke-width:1.0;" x1="424" x2="465" y1="216.9082" y2="216.9082"/><polygon fill="#181818" points="434,212.9082,424,216.9082,434,220.9082,430,216.9082" style="stroke:#181818;stroke-width:1.0;"/><text fill="#000000" font-family="sans-serif" font-size="13" lengthAdjust="spacing" textLength="161" x="430" y="199.166">error_exception_handler()</text><polygon fill="#181818" points="581,257.874,591,261.874,581,265.874,585,261.874" style="stroke:#181818;stroke-width:1.0;"/><line style="stroke:#181818;stroke-width:1.0;" x1="423" x2="587" y1="261.874" y2="261.874"/><text fill="#000000" font-family="sans-serif" font-size="13" lengthAdjust="spacing" textLength="105" x="430" y="257.1318">run_gdb_server()</text><path d="M608,234.9082 L608,274.9082 L887,274.9082 L887,244.9082 L877,234.9082 L608,234.9082 " fill="#FEFFDD" style="stroke:#181818;stroke-width:0.5;"/><path d="M877,234.9082 L877,244.9082 L887,244.9082 L877,234.9082 " fill="#FEFFDD" style="stroke:#181818;stroke-width:0.5;"/><text fill="#000000" font-family="sans-serif" font-size="13" lengthAdjust="spacing" textLength="258" x="614" y="252.4766">called via g_fault_exception_callback_p()</text><text fill="#000000" font-family="sans-serif" font-size="13" lengthAdjust="spacing" textLength="102" x="614" y="267.7871">function pointer</text><!--SRC=[XP9BRiCW54NdNiMLH-t0MK06bLgbwWAo0FICNsnK2jOpjhhyGenIHyNfa7lW7dx11CjuTu75k1vdjfTcy5FW3X-dDqmi2mkymua2uRNr4YhImGlgBYMK4l2tvZ4Ox-gg7ADvGKsYXsQQnp6oXgQlmxd64Mc-kivN0xdEiZmz9uLPA71nKOLoLtJSWuDE0gsA2g0iYOiYApJjrBE85tKxwftXFyUUfU_QzUPNXSnEnKYjMMu6d8-zOleXv03GP6rykiKGUdMXsORDpX9iIN-gyLO1N6Qd4yNeJVe56R3hhlrv-7kCxTOoxFW1tiA_L_28xh7yt3y0]--></g></svg>