<?xml version="1.0" encoding="us-ascii" standalone="no"?><svg xmlns="http://www.w3.org/2000/svg" xmlns:xlink="http://www.w3.org/1999/xlink" contentStyleType="text/css" height="482px" preserveAspectRatio="none" style="width:1282px;height:482px;background:#FFFFFF;" version="1.1" viewBox="0 0 1282 482" width="1282px" zoomAndPan="magnify"><defs/><g><text fill="#000000" font-family="sans-serif" font-size="14" font-weight="bold" lengthAdjust="spacing" textLength="366" x="457" y="28.5352">Entering Self-hosted GDB server on Prefetch Abort</text><rect fill="#FFFFFF" height="242.2422" style="stroke:#181818;stroke-width:1.0;" width="10" x="456" y="150.2871"/><rect fill="#FFFFFF" height="28" style="stroke:#181818;stroke-width:1.0;" width="10" x="461" y="187.5977"/><rect fill="#FFFFFF" height="140.6211" style="stroke:#181818;stroke-width:1.0;" width="10" x="746" y="251.9082"/><rect fill="#FFFFFF" height="28" style="stroke:#181818;stroke-width:1.0;" width="10" x="751" y="289.2188"/><rect fill="#FFFFFF" height="30" style="stroke:#181818;stroke-width:1.0;" width="10" x="1060" y="353.5293"/><line style="stroke:#181818;stroke-width:0.5;stroke-dasharray:5.0,5.0;" x1="93" x2="93" y1="118.9766" y2="401.5293"/><line style="stroke:#181818;stroke-width:0.5;stroke-dasharray:5.0,5.0;" x1="461" x2="461" y1="118.9766" y2="401.5293"/><line style="stroke:#181818;stroke-width:0.5;stroke-dasharray:5.0,5.0;" x1="751" x2="751" y1="118.9766" y2="401.5293"/><line style="stroke:#181818;stroke-width:0.5;stroke-dasharray:5.0,5.0;" x1="935.5" x2="935.5" y1="118.9766" y2="401.5293"/><line style="stroke:#181818;stroke-width:0.5;stroke-dasharray:5.0,5.0;" x1="1065" x2="1065" y1="118.9766" y2="401.5293"/><line style="stroke:#181818;stroke-width:0.5;stroke-dasharray:5.0,5.0;" x1="1199" x2="1199" y1="118.9766" y2="401.5293"/><text fill="#000000" font-family="sans-serif" font-size="14" lengthAdjust="spacing" textLength="170" x="5" y="116.0234">prefetch abort exception</text><ellipse cx="93" cy="50.9883" fill="#E2E2F0" rx="8" ry="8" style="stroke:#181818;stroke-width:0.5;"/><path d="M93,58.9883 L93,85.9883 M80,66.9883 L106,66.9883 M93,85.9883 L80,100.9883 M93,85.9883 L106,100.9883 " fill="none" style="stroke:#181818;stroke-width:0.5;"/><text fill="#000000" font-family="sans-serif" font-size="14" lengthAdjust="spacing" textLength="170" x="5" y="414.0645">prefetch abort exception</text><ellipse cx="93" cy="425.5176" fill="#E2E2F0" rx="8" ry="8" style="stroke:#181818;stroke-width:0.5;"/><path d="M93,433.5176 L93,460.5176 M80,441.5176 L106,441.5176 M93,460.5176 L80,475.5176 M93,460.5176 L106,475.5176 " fill="none" style="stroke:#181818;stroke-width:0.5;"/><rect fill="#E2E2F0" height="30.4883" rx="2.5" ry="2.5" style="stroke:#181818;stroke-width:0.5;" width="190" x="366" y="87.4883"/><text fill="#000000" font-family="sans-serif" font-size="14" lengthAdjust="spacing" textLength="176" x="373" y="108.0234">interrupt_handling_asm.S</text><rect fill="#E2E2F0" height="30.4883" rx="2.5" ry="2.5" style="stroke:#181818;stroke-width:0.5;" width="190" x="366" y="400.5293"/><text fill="#000000" font-family="sans-serif" font-size="14" lengthAdjust="spacing" textLength="176" x="373" y="421.0645">interrupt_handling_asm.S</text><rect fill="#E2E2F0" height="30.4883" rx="2.5" ry="2.5" style="stroke:#181818;stroke-width:0.5;" width="176" x="663" y="87.4883"/><text fill="#000000" font-family="sans-serif" font-size="14" lengthAdjust="spacing" textLength="162" x="670" y="108.0234">CPU.Interrupt_Handling</text><rect fill="#E2E2F0" height="30.4883" rx="2.5" ry="2.5" style="stroke:#181818;stroke-width:0.5;" width="176" x="663" y="400.5293"/><text fill="#000000" font-family="sans-serif" font-size="14" lengthAdjust="spacing" textLength="162" x="670" y="421.0645">CPU.Interrupt_Handling</text><rect fill="#E2E2F0" height="30.4883" rx="2.5" ry="2.5" style="stroke:#181818;stroke-width:0.5;" width="117" x="877.5" y="87.4883"/><text fill="#000000" font-family="sans-serif" font-size="14" lengthAdjust="spacing" textLength="103" x="884.5" y="108.0234">arch-support.c</text><rect fill="#E2E2F0" height="30.4883" rx="2.5" ry="2.5" style="stroke:#181818;stroke-width:0.5;" width="117" x="877.5" y="400.5293"/><text fill="#000000" font-family="sans-serif" font-size="14" lengthAdjust="spacing" textLength="103" x="884.5" y="421.0645">arch-support.c</text><rect fill="#E2E2F0" height="30.4883" rx="2.5" ry="2.5" style="stroke:#181818;stroke-width:0.5;" width="94" x="1018" y="87.4883"/><text fill="#000000" font-family="sans-serif" font-size="14" lengthAdjust="spacing" textLength="80" x="1025" y="108.0234">gdbserver.c</text><rect fill="#E2E2F0" height="30.4883" rx="2.5" ry="2.5" style="stroke:#181818;stroke-width:0.5;" width="94" x="1018" y="400.5293"/><text fill="#000000" font-family="sans-serif" font-size="14" lengthAdjust="spacing" textLength="80" x="1025" y="421.0645">gdbserver.c</text><rect fill="#E2E2F0" height="30.4883" rx="2.5" ry="2.5" style="stroke:#181818;stroke-width:0.5;" width="154" x="1122" y="87.4883"/><text fill="#000000" font-family="sans-serif" font-size="14" lengthAdjust="spacing" textLength="140" x="1129" y="108.0234">arch-support-asm.S</text><rect fill="#E2E2F0" height="30.4883" rx="2.5" ry="2.5" style="stroke:#181818;stroke-width:0.5;" width="154" x="1122" y="400.5293"/><text fill="#000000" font-family="sans-serif" font-size="14" lengthAdjust="spacing" textLength="140" x="1129" y="421.0645">arch-support-asm.S</text><rect fill="#FFFFFF" height="242.2422" style="stroke:#181818;stroke-width:1.0;" width="10" x="456" y="150.2871"/><rect fill="#FFFFFF" height="28" style="stroke:#181818;stroke-width:1.0;" width="10" x="461" y="187.5977"/><rect fill="#FFFFFF" height="140.6211" style="stroke:#181818;stroke-width:1.0;" width="10" x="746" y="251.9082"/><rect fill="#FFFFFF" height="28" style="stroke:#181818;stroke-width:1.0;" width="10" x="751" y="289.2188"/><rect fill="#FFFFFF" height="30" style="stroke:#181818;stroke-width:1.0;" width="10" x="1060" y="353.5293"/><polygon fill="#181818" points="444,146.2871,454,150.2871,444,154.2871,448,150.2871" style="stroke:#181818;stroke-width:1.0;"/><line style="stroke:#181818;stroke-width:1.0;" x1="93" x2="450" y1="150.2871" y2="150.2871"/><text fill="#000000" font-family="sans-serif" font-size="13" lengthAdjust="spacing" textLength="344" x="100" y="145.5449">same_el_with_sp_el0_synchronous_exception_handler</text><line style="stroke:#181818;stroke-width:1.0;" x1="471" x2="513" y1="179.5977" y2="179.5977"/><line style="stroke:#181818;stroke-width:1.0;" x1="513" x2="513" y1="179.5977" y2="192.5977"/><line style="stroke:#181818;stroke-width:1.0;" x1="472" x2="513" y1="192.5977" y2="192.5977"/><polygon fill="#181818" points="482,188.5977,472,192.5977,482,196.5977,478,192.5977" style="stroke:#181818;stroke-width:1.0;"/><text fill="#000000" font-family="sans-serif" font-size="13" lengthAdjust="spacing" textLength="195" x="478" y="174.8555">INTERRUPT_HANDLER_PROLOG</text><polygon fill="#181818" points="734,247.9082,744,251.9082,734,255.9082,738,251.9082" style="stroke:#181818;stroke-width:1.0;"/><line style="stroke:#181818;stroke-width:1.0;" x1="466" x2="740" y1="251.9082" y2="251.9082"/><text fill="#000000" font-family="sans-serif" font-size="13" lengthAdjust="spacing" textLength="261" x="473" y="247.166">Ada_Handle_EL1_Synchronous_Exception</text><line style="stroke:#181818;stroke-width:1.0;" x1="761" x2="803" y1="281.2188" y2="281.2188"/><line style="stroke:#181818;stroke-width:1.0;" x1="803" x2="803" y1="281.2188" y2="294.2188"/><line style="stroke:#181818;stroke-width:1.0;" x1="762" x2="803" y1="294.2188" y2="294.2188"/><polygon fill="#181818" points="772,290.2188,762,294.2188,772,298.2188,768,294.2188" style="stroke:#181818;stroke-width:1.0;"/><text fill="#000000" font-family="sans-serif" font-size="13" lengthAdjust="spacing" textLength="161" x="768" y="276.4766">error_exception_handler()</text><polygon fill="#181818" points="1048,349.5293,1058,353.5293,1048,357.5293,1052,353.5293" style="stroke:#181818;stroke-width:1.0;"/><line style="stroke:#181818;stroke-width:1.0;" x1="936" x2="1054" y1="353.5293" y2="353.5293"/><text fill="#000000" font-family="sans-serif" font-size="13" lengthAdjust="spacing" textLength="105" x="943" y="348.7871">run_gdb_server()</text><!--SRC=[hP8nRy8m48Nt_8fJfdO8QbU6Icc902c2A87vP983MmfsP3kq_VUDbO3IGW93D_kzyxrFTxR2bWIHjAI5F416vJxWobWgO3vx1qFwH1gKX4JJdcpE8TmfRJsMMwN1hyugSohGLqwL5Khwth05mHlumYNgkhB8cIpA9XkPEKuo7wPWs96GIlmKbgEfckCBcc-PSwsagWrUMhLlIJiQSMAMHlfw06Ef3TCur7ArYT9qcsnm4QvcSPHYagxZzTprVJ2-e7_Y_4Ysa-MbPD6LECgmOEsTC8fVCUjDBJfFxJVnG2zN12DHReV368sazFMUdfwxje_6zoTs1vJfd0UchghciqtoRb27OjV-OATCGTSI6mbRxGPDl_u6mfNTD_y0UEFka1UqU_u1]--></g></svg>