<?xml version="1.0" encoding="us-ascii" standalone="no"?><svg xmlns="http://www.w3.org/2000/svg" xmlns:xlink="http://www.w3.org/1999/xlink" contentStyleType="text/css" height="1198px" preserveAspectRatio="none" style="width:770px;height:1198px;background:#FFFFFF;" version="1.1" viewBox="0 0 770 1198" width="770px" zoomAndPan="magnify"><defs/><g><text fill="#000000" font-family="sans-serif" font-size="14" font-weight="bold" lengthAdjust="spacing" textLength="504" x="134" y="28.5352">Memory access from a load instruction with MMU and caches enabled</text><rect fill="#FFFFFF" height="915.8945" style="stroke:#181818;stroke-width:1.0;" width="10" x="89" y="174.7754"/><rect fill="none" height="859.584" style="stroke:#000000;stroke-width:1.5;" width="753" x="10" y="224.0859"/><rect fill="none" height="548.8789" style="stroke:#000000;stroke-width:1.5;" width="637" x="20" y="277.707"/><rect fill="none" height="388.6816" style="stroke:#000000;stroke-width:1.5;" width="617" x="30" y="373.6387"/><rect fill="none" height="283.75" style="stroke:#000000;stroke-width:1.5;" width="597" x="40" y="471.5703"/><rect fill="none" height="178.8184" style="stroke:#000000;stroke-width:1.5;" width="577" x="50" y="569.502"/><rect fill="none" height="162.5078" style="stroke:#000000;stroke-width:1.5;" width="703" x="50" y="914.1621"/><line style="stroke:#181818;stroke-width:0.5;stroke-dasharray:5.0,5.0;" x1="94" x2="94" y1="135.4648" y2="1100.6699"/><line style="stroke:#181818;stroke-width:0.5;stroke-dasharray:5.0,5.0;" x1="305" x2="305" y1="135.4648" y2="1100.6699"/><line style="stroke:#181818;stroke-width:0.5;stroke-dasharray:5.0,5.0;" x1="365" x2="365" y1="135.4648" y2="1100.6699"/><line style="stroke:#181818;stroke-width:0.5;stroke-dasharray:5.0,5.0;" x1="553" x2="553" y1="135.4648" y2="1100.6699"/><line style="stroke:#181818;stroke-width:0.5;stroke-dasharray:5.0,5.0;" x1="685" x2="685" y1="135.4648" y2="1100.6699"/><text fill="#000000" font-family="sans-serif" font-size="14" lengthAdjust="spacing" textLength="62" x="60" y="132.5117">CPU core</text><ellipse cx="94" cy="67.4766" fill="#E2E2F0" rx="8" ry="8" style="stroke:#181818;stroke-width:0.5;"/><path d="M94,75.4766 L94,102.4766 M81,83.4766 L107,83.4766 M94,102.4766 L81,117.4766 M94,102.4766 L107,117.4766 " fill="none" style="stroke:#181818;stroke-width:0.5;"/><text fill="#000000" font-family="sans-serif" font-size="14" lengthAdjust="spacing" textLength="62" x="60" y="1113.2051">CPU core</text><ellipse cx="94" cy="1124.6582" fill="#E2E2F0" rx="8" ry="8" style="stroke:#181818;stroke-width:0.5;"/><path d="M94,1132.6582 L94,1159.6582 M81,1140.6582 L107,1140.6582 M94,1159.6582 L81,1174.6582 M94,1159.6582 L107,1174.6582 " fill="none" style="stroke:#181818;stroke-width:0.5;"/><rect fill="#E2E2F0" height="30.4883" rx="2.5" ry="2.5" style="stroke:#181818;stroke-width:0.5;" width="38" x="286" y="103.9766"/><text fill="#000000" font-family="sans-serif" font-size="14" lengthAdjust="spacing" textLength="24" x="293" y="124.5117">TLB</text><rect fill="#E2E2F0" height="30.4883" rx="2.5" ry="2.5" style="stroke:#181818;stroke-width:0.5;" width="38" x="286" y="1099.6699"/><text fill="#000000" font-family="sans-serif" font-size="14" lengthAdjust="spacing" textLength="24" x="293" y="1120.2051">TLB</text><rect fill="#E2E2F0" height="30.4883" rx="2.5" ry="2.5" style="stroke:#181818;stroke-width:0.5;" width="63" x="334" y="103.9766"/><text fill="#000000" font-family="sans-serif" font-size="14" lengthAdjust="spacing" textLength="49" x="341" y="124.5117">Caches</text><rect fill="#E2E2F0" height="30.4883" rx="2.5" ry="2.5" style="stroke:#181818;stroke-width:0.5;" width="63" x="334" y="1099.6699"/><text fill="#000000" font-family="sans-serif" font-size="14" lengthAdjust="spacing" textLength="49" x="341" y="1120.2051">Caches</text><rect fill="#E2E2F0" height="30.4883" rx="2.5" ry="2.5" style="stroke:#181818;stroke-width:0.5;" width="127" x="490" y="103.9766"/><text fill="#000000" font-family="sans-serif" font-size="14" lengthAdjust="spacing" textLength="113" x="497" y="124.5117">Physical Memory</text><rect fill="#E2E2F0" height="30.4883" rx="2.5" ry="2.5" style="stroke:#181818;stroke-width:0.5;" width="127" x="490" y="1099.6699"/><text fill="#000000" font-family="sans-serif" font-size="14" lengthAdjust="spacing" textLength="113" x="497" y="1120.2051">Physical Memory</text><text fill="#000000" font-family="sans-serif" font-size="14" lengthAdjust="spacing" textLength="110" x="627" y="116.0234">MMU page table</text><text fill="#000000" font-family="sans-serif" font-size="14" lengthAdjust="spacing" textLength="45" x="659.5" y="132.5117">walker</text><ellipse cx="685" cy="50.9883" fill="#E2E2F0" rx="8" ry="8" style="stroke:#181818;stroke-width:0.5;"/><path d="M685,58.9883 L685,85.9883 M672,66.9883 L698,66.9883 M685,85.9883 L672,100.9883 M685,85.9883 L698,100.9883 " fill="none" style="stroke:#181818;stroke-width:0.5;"/><text fill="#000000" font-family="sans-serif" font-size="14" lengthAdjust="spacing" textLength="110" x="627" y="1113.2051">MMU page table</text><text fill="#000000" font-family="sans-serif" font-size="14" lengthAdjust="spacing" textLength="45" x="659.5" y="1129.6934">walker</text><ellipse cx="685" cy="1141.1465" fill="#E2E2F0" rx="8" ry="8" style="stroke:#181818;stroke-width:0.5;"/><path d="M685,1149.1465 L685,1176.1465 M672,1157.1465 L698,1157.1465 M685,1176.1465 L672,1191.1465 M685,1176.1465 L698,1191.1465 " fill="none" style="stroke:#181818;stroke-width:0.5;"/><rect fill="#FFFFFF" height="915.8945" style="stroke:#181818;stroke-width:1.0;" width="10" x="89" y="174.7754"/><line style="stroke:#181818;stroke-width:1.0;" x1="94" x2="141" y1="161.7754" y2="161.7754"/><line style="stroke:#181818;stroke-width:1.0;" x1="141" x2="141" y1="161.7754" y2="174.7754"/><line style="stroke:#181818;stroke-width:1.0;" x1="100" x2="141" y1="174.7754" y2="174.7754"/><polygon fill="#181818" points="110,170.7754,100,174.7754,110,178.7754,106,174.7754" style="stroke:#181818;stroke-width:1.0;"/><text fill="#000000" font-family="sans-serif" font-size="13" lengthAdjust="spacing" textLength="100" x="106" y="157.0332">load instruction</text><polygon fill="#181818" points="293,205.0859,303,209.0859,293,213.0859,297,209.0859" style="stroke:#181818;stroke-width:1.0;"/><line style="stroke:#181818;stroke-width:1.0;" x1="99" x2="299" y1="209.0859" y2="209.0859"/><text fill="#000000" font-family="sans-serif" font-size="13" lengthAdjust="spacing" textLength="182" x="106" y="204.3438">VA-to-PA translation lookup</text><path d="M10,224.0859 L72,224.0859 L72,231.3965 L62,241.3965 L10,241.3965 L10,224.0859 " fill="#EEEEEE" style="stroke:#000000;stroke-width:1.5;"/><rect fill="none" height="859.584" style="stroke:#000000;stroke-width:1.5;" width="753" x="10" y="224.0859"/><text fill="#000000" font-family="sans-serif" font-size="13" font-weight="bold" lengthAdjust="spacing" textLength="17" x="25" y="237.6543">alt</text><text fill="#000000" font-family="sans-serif" font-size="11" font-weight="bold" lengthAdjust="spacing" textLength="48" x="87" y="236.7207">[TLB hit]</text><polygon fill="#181818" points="110,258.707,100,262.707,110,266.707,106,262.707" style="stroke:#181818;stroke-width:1.0;"/><line style="stroke:#181818;stroke-width:1.0;" x1="104" x2="304" y1="262.707" y2="262.707"/><text fill="#000000" font-family="sans-serif" font-size="13" lengthAdjust="spacing" textLength="170" x="116" y="257.9648">VA-to-PA translation entry</text><path d="M20,277.707 L82,277.707 L82,285.0176 L72,295.0176 L20,295.0176 L20,277.707 " fill="#EEEEEE" style="stroke:#000000;stroke-width:1.5;"/><rect fill="none" height="548.8789" style="stroke:#000000;stroke-width:1.5;" width="637" x="20" y="277.707"/><text fill="#000000" font-family="sans-serif" font-size="13" font-weight="bold" lengthAdjust="spacing" textLength="17" x="35" y="291.2754">alt</text><text fill="#000000" font-family="sans-serif" font-size="11" font-weight="bold" lengthAdjust="spacing" textLength="91" x="97" y="290.3418">[access allowed]</text><polygon fill="#181818" points="353.5,312.3281,363.5,316.3281,353.5,320.3281,357.5,316.3281" style="stroke:#181818;stroke-width:1.0;"/><line style="stroke:#181818;stroke-width:1.0;" x1="99" x2="359.5" y1="316.3281" y2="316.3281"/><text fill="#000000" font-family="sans-serif" font-size="13" lengthAdjust="spacing" textLength="75" x="106" y="311.5859">data lookup</text><line style="stroke:#181818;stroke-width:1.0;" x1="365.5" x2="407.5" y1="345.6387" y2="345.6387"/><line style="stroke:#181818;stroke-width:1.0;" x1="407.5" x2="407.5" y1="345.6387" y2="358.6387"/><line style="stroke:#181818;stroke-width:1.0;" x1="366.5" x2="407.5" y1="358.6387" y2="358.6387"/><polygon fill="#181818" points="376.5,354.6387,366.5,358.6387,376.5,362.6387,372.5,358.6387" style="stroke:#181818;stroke-width:1.0;"/><text fill="#000000" font-family="sans-serif" font-size="13" lengthAdjust="spacing" textLength="134" x="372.5" y="340.8965">L1 data cache lookup</text><path d="M30,373.6387 L92,373.6387 L92,380.9492 L82,390.9492 L30,390.9492 L30,373.6387 " fill="#EEEEEE" style="stroke:#000000;stroke-width:1.5;"/><rect fill="none" height="388.6816" style="stroke:#000000;stroke-width:1.5;" width="617" x="30" y="373.6387"/><text fill="#000000" font-family="sans-serif" font-size="13" font-weight="bold" lengthAdjust="spacing" textLength="17" x="45" y="387.207">alt</text><text fill="#000000" font-family="sans-serif" font-size="11" font-weight="bold" lengthAdjust="spacing" textLength="102" x="107" y="386.2734">[L1 data cache hit]</text><polygon fill="#181818" points="110,408.2598,100,412.2598,110,416.2598,106,412.2598" style="stroke:#181818;stroke-width:1.0;"/><line style="stroke:#181818;stroke-width:1.0;" x1="104" x2="364.5" y1="412.2598" y2="412.2598"/><text fill="#000000" font-family="sans-serif" font-size="13" lengthAdjust="spacing" textLength="27" x="116" y="407.5176">data</text><line style="stroke:#000000;stroke-width:1.0;stroke-dasharray:2.0,2.0;" x1="30" x2="647" y1="421.2598" y2="421.2598"/><line style="stroke:#181818;stroke-width:1.0;" x1="365.5" x2="407.5" y1="443.5703" y2="443.5703"/><line style="stroke:#181818;stroke-width:1.0;" x1="407.5" x2="407.5" y1="443.5703" y2="456.5703"/><line style="stroke:#181818;stroke-width:1.0;" x1="366.5" x2="407.5" y1="456.5703" y2="456.5703"/><polygon fill="#181818" points="376.5,452.5703,366.5,456.5703,376.5,460.5703,372.5,456.5703" style="stroke:#181818;stroke-width:1.0;"/><text fill="#000000" font-family="sans-serif" font-size="13" lengthAdjust="spacing" textLength="103" x="372.5" y="438.8281">L2 cache lookup</text><path d="M40,471.5703 L102,471.5703 L102,478.8809 L92,488.8809 L40,488.8809 L40,471.5703 " fill="#EEEEEE" style="stroke:#000000;stroke-width:1.5;"/><rect fill="none" height="283.75" style="stroke:#000000;stroke-width:1.5;" width="597" x="40" y="471.5703"/><text fill="#000000" font-family="sans-serif" font-size="13" font-weight="bold" lengthAdjust="spacing" textLength="17" x="55" y="485.1387">alt</text><text fill="#000000" font-family="sans-serif" font-size="11" font-weight="bold" lengthAdjust="spacing" textLength="75" x="117" y="484.2051">[L2 cache hit]</text><polygon fill="#181818" points="110,506.1914,100,510.1914,110,514.1914,106,510.1914" style="stroke:#181818;stroke-width:1.0;"/><line style="stroke:#181818;stroke-width:1.0;" x1="104" x2="364.5" y1="510.1914" y2="510.1914"/><text fill="#000000" font-family="sans-serif" font-size="13" lengthAdjust="spacing" textLength="27" x="116" y="505.4492">data</text><line style="stroke:#000000;stroke-width:1.0;stroke-dasharray:2.0,2.0;" x1="40" x2="637" y1="519.1914" y2="519.1914"/><line style="stroke:#181818;stroke-width:1.0;" x1="365.5" x2="407.5" y1="541.502" y2="541.502"/><line style="stroke:#181818;stroke-width:1.0;" x1="407.5" x2="407.5" y1="541.502" y2="554.502"/><line style="stroke:#181818;stroke-width:1.0;" x1="366.5" x2="407.5" y1="554.502" y2="554.502"/><polygon fill="#181818" points="376.5,550.502,366.5,554.502,376.5,558.502,372.5,554.502" style="stroke:#181818;stroke-width:1.0;"/><text fill="#000000" font-family="sans-serif" font-size="13" lengthAdjust="spacing" textLength="103" x="372.5" y="536.7598">L3 cache lookup</text><path d="M50,569.502 L112,569.502 L112,576.8125 L102,586.8125 L50,586.8125 L50,569.502 " fill="#EEEEEE" style="stroke:#000000;stroke-width:1.5;"/><rect fill="none" height="178.8184" style="stroke:#000000;stroke-width:1.5;" width="577" x="50" y="569.502"/><text fill="#000000" font-family="sans-serif" font-size="13" font-weight="bold" lengthAdjust="spacing" textLength="17" x="65" y="583.0703">alt</text><text fill="#000000" font-family="sans-serif" font-size="11" font-weight="bold" lengthAdjust="spacing" textLength="75" x="127" y="582.1367">[L3 cache hit]</text><polygon fill="#181818" points="110,604.123,100,608.123,110,612.123,106,608.123" style="stroke:#181818;stroke-width:1.0;"/><line style="stroke:#181818;stroke-width:1.0;" x1="104" x2="364.5" y1="608.123" y2="608.123"/><text fill="#000000" font-family="sans-serif" font-size="13" lengthAdjust="spacing" textLength="27" x="116" y="603.3809">data</text><line style="stroke:#000000;stroke-width:1.0;stroke-dasharray:2.0,2.0;" x1="50" x2="627" y1="617.123" y2="617.123"/><text fill="#000000" font-family="sans-serif" font-size="11" font-weight="bold" lengthAdjust="spacing" textLength="70" x="55" y="627.7578">[cache miss]</text><polygon fill="#181818" points="110,648.3887,100,652.3887,110,656.3887,106,652.3887" style="stroke:#181818;stroke-width:1.0;"/><line style="stroke:#181818;stroke-width:1.0;" x1="104" x2="364.5" y1="652.3887" y2="652.3887"/><text fill="#000000" font-family="sans-serif" font-size="13" lengthAdjust="spacing" textLength="70" x="116" y="647.6465">cache miss</text><polygon fill="#181818" points="541.5,677.6992,551.5,681.6992,541.5,685.6992,545.5,681.6992" style="stroke:#181818;stroke-width:1.0;"/><line style="stroke:#181818;stroke-width:1.0;" x1="99" x2="547.5" y1="681.6992" y2="681.6992"/><text fill="#000000" font-family="sans-serif" font-size="13" lengthAdjust="spacing" textLength="94" x="106" y="676.957">read cache line</text><polygon fill="#181818" points="376.5,707.0098,366.5,711.0098,376.5,715.0098,372.5,711.0098" style="stroke:#181818;stroke-width:1.0;"/><line style="stroke:#181818;stroke-width:1.0;" x1="370.5" x2="552.5" y1="711.0098" y2="711.0098"/><text fill="#000000" font-family="sans-serif" font-size="13" lengthAdjust="spacing" textLength="164" x="382.5" y="706.2676">allocate and fill cache line</text><polygon fill="#181818" points="110,736.3203,100,740.3203,110,744.3203,106,740.3203" style="stroke:#181818;stroke-width:1.0;"/><line style="stroke:#181818;stroke-width:1.0;" x1="104" x2="552.5" y1="740.3203" y2="740.3203"/><text fill="#000000" font-family="sans-serif" font-size="13" lengthAdjust="spacing" textLength="27" x="116" y="735.5781">data</text><line style="stroke:#000000;stroke-width:1.0;stroke-dasharray:2.0,2.0;" x1="20" x2="657" y1="770.3203" y2="770.3203"/><text fill="#000000" font-family="sans-serif" font-size="11" font-weight="bold" lengthAdjust="spacing" textLength="113" x="25" y="780.9551">[access not allowed]</text><line style="stroke:#181818;stroke-width:1.0;" x1="99" x2="141" y1="805.5859" y2="805.5859"/><line style="stroke:#181818;stroke-width:1.0;" x1="141" x2="141" y1="805.5859" y2="818.5859"/><line style="stroke:#181818;stroke-width:1.0;" x1="100" x2="141" y1="818.5859" y2="818.5859"/><polygon fill="#181818" points="110,814.5859,100,818.5859,110,822.5859,106,818.5859" style="stroke:#181818;stroke-width:1.0;"/><text fill="#000000" font-family="sans-serif" font-size="13" lengthAdjust="spacing" textLength="184" x="106" y="800.8438">Ttrigger data abort excpetion</text><line style="stroke:#000000;stroke-width:1.0;stroke-dasharray:2.0,2.0;" x1="10" x2="763" y1="834.5859" y2="834.5859"/><text fill="#000000" font-family="sans-serif" font-size="11" font-weight="bold" lengthAdjust="spacing" textLength="60" x="15" y="845.2207">[TLB miss]</text><polygon fill="#181818" points="110,865.8516,100,869.8516,110,873.8516,106,869.8516" style="stroke:#181818;stroke-width:1.0;"/><line style="stroke:#181818;stroke-width:1.0;" x1="104" x2="304" y1="869.8516" y2="869.8516"/><text fill="#000000" font-family="sans-serif" font-size="13" lengthAdjust="spacing" textLength="56" x="116" y="865.1094">TLB miss</text><polygon fill="#181818" points="673,895.1621,683,899.1621,673,903.1621,677,899.1621" style="stroke:#181818;stroke-width:1.0;"/><line style="stroke:#181818;stroke-width:1.0;" x1="99" x2="679" y1="899.1621" y2="899.1621"/><text fill="#000000" font-family="sans-serif" font-size="13" lengthAdjust="spacing" textLength="182" x="106" y="894.4199">VA-to-PA translation lookup</text><path d="M50,914.1621 L112,914.1621 L112,921.4727 L102,931.4727 L50,931.4727 L50,914.1621 " fill="#EEEEEE" style="stroke:#000000;stroke-width:1.5;"/><rect fill="none" height="162.5078" style="stroke:#000000;stroke-width:1.5;" width="703" x="50" y="914.1621"/><text fill="#000000" font-family="sans-serif" font-size="13" font-weight="bold" lengthAdjust="spacing" textLength="17" x="65" y="927.7305">alt</text><text fill="#000000" font-family="sans-serif" font-size="11" font-weight="bold" lengthAdjust="spacing" textLength="169" x="127" y="926.7969">[valid translation entry found]</text><polygon fill="#181818" points="316,948.7832,306,952.7832,316,956.7832,312,952.7832" style="stroke:#181818;stroke-width:1.0;"/><line style="stroke:#181818;stroke-width:1.0;" x1="310" x2="684" y1="952.7832" y2="952.7832"/><text fill="#000000" font-family="sans-serif" font-size="13" lengthAdjust="spacing" textLength="170" x="322" y="948.041">VA-to-PA translation entry</text><polygon fill="#181818" points="110,978.0938,100,982.0938,110,986.0938,106,982.0938" style="stroke:#181818;stroke-width:1.0;"/><line style="stroke:#181818;stroke-width:1.0;" x1="104" x2="684" y1="982.0938" y2="982.0938"/><text fill="#000000" font-family="sans-serif" font-size="13" lengthAdjust="spacing" textLength="170" x="116" y="977.3516">VA-to-PA translation entry</text><line style="stroke:#000000;stroke-width:1.0;stroke-dasharray:2.0,2.0;" x1="50" x2="753" y1="991.0938" y2="991.0938"/><text fill="#000000" font-family="sans-serif" font-size="11" font-weight="bold" lengthAdjust="spacing" textLength="64" x="55" y="1001.7285">[page fault]</text><polygon fill="#181818" points="110,1022.3594,100,1026.3594,110,1030.3594,106,1026.3594" style="stroke:#181818;stroke-width:1.0;"/><line style="stroke:#181818;stroke-width:1.0;" x1="104" x2="684" y1="1026.3594" y2="1026.3594"/><text fill="#000000" font-family="sans-serif" font-size="13" lengthAdjust="spacing" textLength="63" x="116" y="1021.6172">page fault</text><line style="stroke:#181818;stroke-width:1.0;" x1="99" x2="141" y1="1055.6699" y2="1055.6699"/><line style="stroke:#181818;stroke-width:1.0;" x1="141" x2="141" y1="1055.6699" y2="1068.6699"/><line style="stroke:#181818;stroke-width:1.0;" x1="100" x2="141" y1="1068.6699" y2="1068.6699"/><polygon fill="#181818" points="110,1064.6699,100,1068.6699,110,1072.6699,106,1068.6699" style="stroke:#181818;stroke-width:1.0;"/><text fill="#000000" font-family="sans-serif" font-size="13" lengthAdjust="spacing" textLength="176" x="106" y="1050.9277">trigger data abort exception</text><!--SRC=[dLKzSy8m3DtpAtJi38MjG-zeLxXZW4vTX2F0Xx5pje3oxni7v_BfG9efSVIUdXJfXIKhWXMTZRq32a7EmTwQCo0eWob8xTXU14kZuIRv2AlL5b2d850SoG5ft2bA4nHiB4o-rbiGnj8agMvX-b5x0UyTOW-MLsGQm6-MdnxwlPYocQuNm1QrKrZeKiQSBba20AWOyaWuIlQF-VK0jXNqqf1cUmymJnIwWKgPMruXb5Uxig8HdZL5nfgOCZgyRyOktnxXHHixeA2W6LGL5I6l5UXXZM1IZeRHbRHPN5KfR1RND4fMHDc0kFcWk5BVV53VM8b1PU0yI-T6aZu7DaPgVRmxAL25lVGCbZ0jAvUQ8ZGTOBDvVfI5tpE_m7kfr7yPN-XNdY7_4iaBnyspej5XzRJXv-jNqx9XAmy7ie-jmPsn3FGhCYfSffEjIENjelPX-lsY5HJCpbjXXWS2zXxues-eJcGdIQ_EIF1pJwkc-efAfbtBWhsvwBJHqcYsN8clvGK7V4uqpb7BVXTaUxoqXk3bH35yV2hwXuAosb2qvYBSfjJpO_e3]--></g></svg>