<?xml version="1.0" encoding="us-ascii" standalone="no"?><svg xmlns="http://www.w3.org/2000/svg" xmlns:xlink="http://www.w3.org/1999/xlink" contentStyleType="text/css" height="681px" preserveAspectRatio="none" style="width:1379px;height:681px;background:#FFFFFF;" version="1.1" viewBox="0 0 1379 681" width="1379px" zoomAndPan="magnify"><defs/><g><text fill="#000000" font-family="sans-serif" font-size="14" font-weight="bold" lengthAdjust="spacing" textLength="308" x="541.5" y="28.5352">RaspberryPI 4 Boot Sequence from SD card</text><rect fill="#FFFFFF" height="425.1055" style="stroke:#181818;stroke-width:1.0;" width="10" x="283" y="150.2871"/><rect fill="#FFFFFF" height="395.7949" style="stroke:#181818;stroke-width:1.0;" width="10" x="503" y="179.5977"/><rect fill="#FFFFFF" height="28" style="stroke:#181818;stroke-width:1.0;" width="10" x="508" y="216.9082"/><rect fill="#FFFFFF" height="283.5186" style="stroke:#181818;stroke-width:1.0;" width="10" x="653" y="291.874"/><rect fill="#FFFFFF" height="232.8975" style="stroke:#181818;stroke-width:1.0;" width="10" x="981" y="342.4951"/><rect fill="#FFFFFF" height="184.9316" style="stroke:#181818;stroke-width:1.0;" width="10" x="986" y="390.4609"/><rect fill="#FFFFFF" height="28" style="stroke:#181818;stroke-width:1.0;" width="10" x="991" y="432.7715"/><rect fill="#FFFFFF" height="70.3105" style="stroke:#181818;stroke-width:1.0;" width="10" x="991" y="505.082"/><rect fill="#FFFFFF" height="28" style="stroke:#181818;stroke-width:1.0;" width="10" x="996" y="547.3926"/><line style="stroke:#181818;stroke-width:0.5;stroke-dasharray:5.0,5.0;" x1="92" x2="92" y1="118.9766" y2="600.3926"/><line style="stroke:#181818;stroke-width:0.5;stroke-dasharray:5.0,5.0;" x1="288" x2="288" y1="118.9766" y2="600.3926"/><line style="stroke:#181818;stroke-width:0.5;stroke-dasharray:5.0,5.0;" x1="508" x2="508" y1="118.9766" y2="600.3926"/><line style="stroke:#181818;stroke-width:0.5;stroke-dasharray:5.0,5.0;" x1="658" x2="658" y1="118.9766" y2="600.3926"/><line style="stroke:#181818;stroke-width:0.5;stroke-dasharray:5.0,5.0;" x1="986" x2="986" y1="118.9766" y2="600.3926"/><text fill="#000000" font-family="sans-serif" font-size="14" lengthAdjust="spacing" textLength="168" x="5" y="116.0234">Power On Raspberry Pi 4</text><ellipse cx="92" cy="50.9883" fill="#E2E2F0" rx="8" ry="8" style="stroke:#181818;stroke-width:0.5;"/><path d="M92,58.9883 L92,85.9883 M79,66.9883 L105,66.9883 M92,85.9883 L79,100.9883 M92,85.9883 L105,100.9883 " fill="none" style="stroke:#181818;stroke-width:0.5;"/><text fill="#000000" font-family="sans-serif" font-size="14" lengthAdjust="spacing" textLength="168" x="5" y="612.9277">Power On Raspberry Pi 4</text><ellipse cx="92" cy="624.3809" fill="#E2E2F0" rx="8" ry="8" style="stroke:#181818;stroke-width:0.5;"/><path d="M92,632.3809 L92,659.3809 M79,640.3809 L105,640.3809 M92,659.3809 L79,674.3809 M92,659.3809 L105,674.3809 " fill="none" style="stroke:#181818;stroke-width:0.5;"/><rect fill="#E2E2F0" height="30.4883" rx="2.5" ry="2.5" style="stroke:#181818;stroke-width:0.5;" width="46" x="265" y="87.4883"/><text fill="#000000" font-family="sans-serif" font-size="14" lengthAdjust="spacing" textLength="32" x="272" y="108.0234">ROM</text><rect fill="#E2E2F0" height="30.4883" rx="2.5" ry="2.5" style="stroke:#181818;stroke-width:0.5;" width="46" x="265" y="599.3926"/><text fill="#000000" font-family="sans-serif" font-size="14" lengthAdjust="spacing" textLength="32" x="272" y="619.9277">ROM</text><rect fill="#E2E2F0" height="30.4883" rx="2.5" ry="2.5" style="stroke:#181818;stroke-width:0.5;" width="94" x="461" y="87.4883"/><text fill="#000000" font-family="sans-serif" font-size="14" lengthAdjust="spacing" textLength="80" x="468" y="108.0234">SPI EEPROM</text><rect fill="#E2E2F0" height="30.4883" rx="2.5" ry="2.5" style="stroke:#181818;stroke-width:0.5;" width="94" x="461" y="599.3926"/><text fill="#000000" font-family="sans-serif" font-size="14" lengthAdjust="spacing" textLength="80" x="468" y="619.9277">SPI EEPROM</text><rect fill="#E2E2F0" height="30.4883" rx="2.5" ry="2.5" style="stroke:#181818;stroke-width:0.5;" width="144" x="586" y="87.4883"/><text fill="#000000" font-family="sans-serif" font-size="14" lengthAdjust="spacing" textLength="130" x="593" y="108.0234">start.elf on SD card</text><rect fill="#E2E2F0" height="30.4883" rx="2.5" ry="2.5" style="stroke:#181818;stroke-width:0.5;" width="144" x="586" y="599.3926"/><text fill="#000000" font-family="sans-serif" font-size="14" lengthAdjust="spacing" textLength="130" x="593" y="619.9277">start.elf on SD card</text><rect fill="#E2E2F0" height="30.4883" rx="2.5" ry="2.5" style="stroke:#181818;stroke-width:0.5;" width="216" x="878" y="87.4883"/><text fill="#000000" font-family="sans-serif" font-size="14" lengthAdjust="spacing" textLength="202" x="885" y="108.0234">bare-metal binary on SD card</text><rect fill="#E2E2F0" height="30.4883" rx="2.5" ry="2.5" style="stroke:#181818;stroke-width:0.5;" width="216" x="878" y="599.3926"/><text fill="#000000" font-family="sans-serif" font-size="14" lengthAdjust="spacing" textLength="202" x="885" y="619.9277">bare-metal binary on SD card</text><rect fill="#FFFFFF" height="425.1055" style="stroke:#181818;stroke-width:1.0;" width="10" x="283" y="150.2871"/><rect fill="#FFFFFF" height="395.7949" style="stroke:#181818;stroke-width:1.0;" width="10" x="503" y="179.5977"/><rect fill="#FFFFFF" height="28" style="stroke:#181818;stroke-width:1.0;" width="10" x="508" y="216.9082"/><rect fill="#FFFFFF" height="283.5186" style="stroke:#181818;stroke-width:1.0;" width="10" x="653" y="291.874"/><rect fill="#FFFFFF" height="232.8975" style="stroke:#181818;stroke-width:1.0;" width="10" x="981" y="342.4951"/><rect fill="#FFFFFF" height="184.9316" style="stroke:#181818;stroke-width:1.0;" width="10" x="986" y="390.4609"/><rect fill="#FFFFFF" height="28" style="stroke:#181818;stroke-width:1.0;" width="10" x="991" y="432.7715"/><rect fill="#FFFFFF" height="70.3105" style="stroke:#181818;stroke-width:1.0;" width="10" x="991" y="505.082"/><rect fill="#FFFFFF" height="28" style="stroke:#181818;stroke-width:1.0;" width="10" x="996" y="547.3926"/><polygon fill="#181818" points="271,146.2871,281,150.2871,271,154.2871,275,150.2871" style="stroke:#181818;stroke-width:1.0;"/><line style="stroke:#181818;stroke-width:1.0;" x1="92" x2="277" y1="150.2871" y2="150.2871"/><text fill="#000000" font-family="sans-serif" font-size="13" lengthAdjust="spacing" textLength="172" x="99" y="145.5449">Boot first-stage bootloader</text><polygon fill="#181818" points="491,175.5977,501,179.5977,491,183.5977,495,179.5977" style="stroke:#181818;stroke-width:1.0;"/><line style="stroke:#181818;stroke-width:1.0;" x1="293" x2="497" y1="179.5977" y2="179.5977"/><text fill="#000000" font-family="sans-serif" font-size="13" lengthAdjust="spacing" textLength="191" x="300" y="174.8555">Boot second-stage bootloader</text><line style="stroke:#181818;stroke-width:1.0;" x1="518" x2="560" y1="208.9082" y2="208.9082"/><line style="stroke:#181818;stroke-width:1.0;" x1="560" x2="560" y1="208.9082" y2="221.9082"/><line style="stroke:#181818;stroke-width:1.0;" x1="519" x2="560" y1="221.9082" y2="221.9082"/><polygon fill="#181818" points="529,217.9082,519,221.9082,529,225.9082,525,221.9082" style="stroke:#181818;stroke-width:1.0;"/><text fill="#000000" font-family="sans-serif" font-size="13" lengthAdjust="spacing" textLength="96" x="525" y="204.166">Initialize DRAM</text><polygon fill="#181818" points="641,287.874,651,291.874,641,295.874,645,291.874" style="stroke:#181818;stroke-width:1.0;"/><line style="stroke:#181818;stroke-width:1.0;" x1="513" x2="647" y1="291.874" y2="291.874"/><text fill="#000000" font-family="sans-serif" font-size="13" lengthAdjust="spacing" textLength="121" x="520" y="287.1318">Boot OS bootloader</text><path d="M668,264.9082 L668,304.9082 L861,304.9082 L861,274.9082 L851,264.9082 L668,264.9082 " fill="#FEFFDD" style="stroke:#181818;stroke-width:0.5;"/><path d="M851,264.9082 L851,274.9082 L861,274.9082 L851,264.9082 " fill="#FEFFDD" style="stroke:#181818;stroke-width:0.5;"/><text fill="#000000" font-family="sans-serif" font-size="13" lengthAdjust="spacing" textLength="172" x="674" y="282.4766">Runs at EL3 exception level</text><text fill="#000000" font-family="sans-serif" font-size="13" lengthAdjust="spacing" textLength="142" x="674" y="297.7871">(secure monitor mode)</text><polygon fill="#181818" points="969,338.4951,979,342.4951,969,346.4951,973,342.4951" style="stroke:#181818;stroke-width:1.0;"/><line style="stroke:#181818;stroke-width:1.0;" x1="663" x2="975" y1="342.4951" y2="342.4951"/><text fill="#000000" font-family="sans-serif" font-size="13" lengthAdjust="spacing" textLength="299" x="670" y="337.7529">Boot AArch64 Bare-meta Ada program to DRAM</text><path d="M996,315.5293 L996,355.5293 L1208,355.5293 L1208,325.5293 L1198,315.5293 L996,315.5293 " fill="#FEFFDD" style="stroke:#181818;stroke-width:0.5;"/><path d="M1198,315.5293 L1198,325.5293 L1208,325.5293 L1198,315.5293 " fill="#FEFFDD" style="stroke:#181818;stroke-width:0.5;"/><text fill="#000000" font-family="sans-serif" font-size="13" lengthAdjust="spacing" textLength="191" x="1002" y="333.0977">Invoked at EL2 exception level</text><text fill="#000000" font-family="sans-serif" font-size="13" lengthAdjust="spacing" textLength="113" x="1002" y="348.4082">(hypervisor mode)</text><line style="stroke:#181818;stroke-width:1.0;" x1="991" x2="1038" y1="377.4609" y2="377.4609"/><line style="stroke:#181818;stroke-width:1.0;" x1="1038" x2="1038" y1="377.4609" y2="390.4609"/><line style="stroke:#181818;stroke-width:1.0;" x1="997" x2="1038" y1="390.4609" y2="390.4609"/><polygon fill="#181818" points="1007,386.4609,997,390.4609,1007,394.4609,1003,390.4609" style="stroke:#181818;stroke-width:1.0;"/><text fill="#000000" font-family="sans-serif" font-size="13" lengthAdjust="spacing" textLength="85" x="1003" y="372.7188">reset_handler</text><line style="stroke:#181818;stroke-width:1.0;" x1="1001" x2="1043" y1="424.7715" y2="424.7715"/><line style="stroke:#181818;stroke-width:1.0;" x1="1043" x2="1043" y1="424.7715" y2="437.7715"/><line style="stroke:#181818;stroke-width:1.0;" x1="1002" x2="1043" y1="437.7715" y2="437.7715"/><polygon fill="#181818" points="1012,433.7715,1002,437.7715,1012,441.7715,1008,437.7715" style="stroke:#181818;stroke-width:1.0;"/><text fill="#000000" font-family="sans-serif" font-size="13" lengthAdjust="spacing" textLength="203" x="1008" y="420.0293">transition to EL1 exception level</text><path d="M1223,411.9609 L1223,436.9609 L1349,436.9609 L1349,421.9609 L1339,411.9609 L1223,411.9609 " fill="#FEFFDD" style="stroke:#181818;stroke-width:0.5;"/><path d="M1339,411.9609 L1339,421.9609 L1349,421.9609 L1339,411.9609 " fill="#FEFFDD" style="stroke:#181818;stroke-width:0.5;"/><text fill="#000000" font-family="sans-serif" font-size="13" lengthAdjust="spacing" textLength="105" x="1229" y="429.5293">supervisor mode</text><line style="stroke:#181818;stroke-width:1.0;" x1="996" x2="1043" y1="492.082" y2="492.082"/><line style="stroke:#181818;stroke-width:1.0;" x1="1043" x2="1043" y1="492.082" y2="505.082"/><line style="stroke:#181818;stroke-width:1.0;" x1="1002" x2="1043" y1="505.082" y2="505.082"/><polygon fill="#181818" points="1012,501.082,1002,505.082,1012,509.082,1008,505.082" style="stroke:#181818;stroke-width:1.0;"/><text fill="#000000" font-family="sans-serif" font-size="13" lengthAdjust="spacing" textLength="176" x="1008" y="487.3398">main generated by gnatbind</text><path d="M1196,484.2715 L1196,509.2715 L1372,509.2715 L1372,494.2715 L1362,484.2715 L1196,484.2715 " fill="#FEFFDD" style="stroke:#181818;stroke-width:0.5;"/><path d="M1362,484.2715 L1362,494.2715 L1372,494.2715 L1362,484.2715 " fill="#FEFFDD" style="stroke:#181818;stroke-width:0.5;"/><text fill="#000000" font-family="sans-serif" font-size="13" lengthAdjust="spacing" textLength="155" x="1202" y="501.8398">Ada package elaboration</text><line style="stroke:#181818;stroke-width:1.0;" x1="1006" x2="1048" y1="539.3926" y2="539.3926"/><line style="stroke:#181818;stroke-width:1.0;" x1="1048" x2="1048" y1="539.3926" y2="552.3926"/><line style="stroke:#181818;stroke-width:1.0;" x1="1007" x2="1048" y1="552.3926" y2="552.3926"/><polygon fill="#181818" points="1017,548.3926,1007,552.3926,1017,556.3926,1013,552.3926" style="stroke:#181818;stroke-width:1.0;"/><text fill="#000000" font-family="sans-serif" font-size="13" lengthAdjust="spacing" textLength="139" x="1013" y="534.6504">Ada main subprogram</text><!--SRC=[lPN1Rjim38RlUGeYf-sG0TkA7NOOaA4v16YH87c0WROOHwWiPHITBNlwKObRkuaTj4Ot7YN-lyYFbYnM7C4AuouZviDo3ZVmFGI1DVsioES46mubh6yXHpOZp2KmZ9VX5p4iV2E4fOMRyQXt1oRVOBnQt8_Xwyb_OpdA90eM19akk826E1rWzoXqIXu1rAeaNsjrizcoxH8f3zvSsgYkSMhfqaRoR5jTMi-z5OlE_Y6uNKtlQz4rGqElEaxhPVb0RWF1Fx9zwccnFkj4mmTrPbjifLxGM5K-0WhCxZu3_Svf9rRT7Et9DKdlb53516NGddHqPJ3qljucRux65_rrbjTuzfIV6ikGQLAIe8FCUjJfTpGudNA-_QBVsMCoJ0t2ZaF1M8A4DlHdTLrrRmHTi3JcVXyUo9oGVUf7bgXj3plYlOrdn2wXrKIkz_qICaoHvCSMlN5FKn_O_vlL98m-sYCZdShixkDLQFtaDMBr3EZvTYVLuRsth-F_XbQYzL2G9zRZ3MG7A3oAffgNqz8uNWdC7zB3HWwpe7RA_H-3Uni4gVOZXbXbzRNkE6XuYOF7EqmuGFLQIJk_z_Nj-ycqrzF2Nm00]--></g></svg>