<?xml version="1.0" encoding="us-ascii" standalone="no"?><svg xmlns="http://www.w3.org/2000/svg" xmlns:xlink="http://www.w3.org/1999/xlink" contentStyleType="text/css" height="681px" preserveAspectRatio="none" style="width:1391px;height:681px;background:#FFFFFF;" version="1.1" viewBox="0 0 1391 681" width="1391px" zoomAndPan="magnify"><defs/><g><text fill="#000000" font-family="sans-serif" font-size="14" font-weight="bold" lengthAdjust="spacing" textLength="308" x="547.5" y="28.5352">RaspberryPI 5 Boot Sequence from SD card</text><rect fill="#FFFFFF" height="425.1055" style="stroke:#181818;stroke-width:1.0;" width="10" x="283" y="150.2871"/><rect fill="#FFFFFF" height="395.7949" style="stroke:#181818;stroke-width:1.0;" width="10" x="503" y="179.5977"/><rect fill="#FFFFFF" height="28" style="stroke:#181818;stroke-width:1.0;" width="10" x="508" y="216.9082"/><rect fill="#FFFFFF" height="283.5186" style="stroke:#181818;stroke-width:1.0;" width="10" x="665" y="291.874"/><rect fill="#FFFFFF" height="232.8975" style="stroke:#181818;stroke-width:1.0;" width="10" x="993" y="342.4951"/><rect fill="#FFFFFF" height="184.9316" style="stroke:#181818;stroke-width:1.0;" width="10" x="998" y="390.4609"/><rect fill="#FFFFFF" height="28" style="stroke:#181818;stroke-width:1.0;" width="10" x="1003" y="432.7715"/><rect fill="#FFFFFF" height="70.3105" style="stroke:#181818;stroke-width:1.0;" width="10" x="1003" y="505.082"/><rect fill="#FFFFFF" height="28" style="stroke:#181818;stroke-width:1.0;" width="10" x="1008" y="547.3926"/><line style="stroke:#181818;stroke-width:0.5;stroke-dasharray:5.0,5.0;" x1="92" x2="92" y1="118.9766" y2="600.3926"/><line style="stroke:#181818;stroke-width:0.5;stroke-dasharray:5.0,5.0;" x1="288" x2="288" y1="118.9766" y2="600.3926"/><line style="stroke:#181818;stroke-width:0.5;stroke-dasharray:5.0,5.0;" x1="508" x2="508" y1="118.9766" y2="600.3926"/><line style="stroke:#181818;stroke-width:0.5;stroke-dasharray:5.0,5.0;" x1="670" x2="670" y1="118.9766" y2="600.3926"/><line style="stroke:#181818;stroke-width:0.5;stroke-dasharray:5.0,5.0;" x1="998" x2="998" y1="118.9766" y2="600.3926"/><text fill="#000000" font-family="sans-serif" font-size="14" lengthAdjust="spacing" textLength="168" x="5" y="116.0234">Power On Raspberry Pi 5</text><ellipse cx="92" cy="50.9883" fill="#E2E2F0" rx="8" ry="8" style="stroke:#181818;stroke-width:0.5;"/><path d="M92,58.9883 L92,85.9883 M79,66.9883 L105,66.9883 M92,85.9883 L79,100.9883 M92,85.9883 L105,100.9883 " fill="none" style="stroke:#181818;stroke-width:0.5;"/><text fill="#000000" font-family="sans-serif" font-size="14" lengthAdjust="spacing" textLength="168" x="5" y="612.9277">Power On Raspberry Pi 5</text><ellipse cx="92" cy="624.3809" fill="#E2E2F0" rx="8" ry="8" style="stroke:#181818;stroke-width:0.5;"/><path d="M92,632.3809 L92,659.3809 M79,640.3809 L105,640.3809 M92,659.3809 L79,674.3809 M92,659.3809 L105,674.3809 " fill="none" style="stroke:#181818;stroke-width:0.5;"/><rect fill="#E2E2F0" height="30.4883" rx="2.5" ry="2.5" style="stroke:#181818;stroke-width:0.5;" width="46" x="265" y="87.4883"/><text fill="#000000" font-family="sans-serif" font-size="14" lengthAdjust="spacing" textLength="32" x="272" y="108.0234">ROM</text><rect fill="#E2E2F0" height="30.4883" rx="2.5" ry="2.5" style="stroke:#181818;stroke-width:0.5;" width="46" x="265" y="599.3926"/><text fill="#000000" font-family="sans-serif" font-size="14" lengthAdjust="spacing" textLength="32" x="272" y="619.9277">ROM</text><rect fill="#E2E2F0" height="30.4883" rx="2.5" ry="2.5" style="stroke:#181818;stroke-width:0.5;" width="94" x="461" y="87.4883"/><text fill="#000000" font-family="sans-serif" font-size="14" lengthAdjust="spacing" textLength="80" x="468" y="108.0234">SPI EEPROM</text><rect fill="#E2E2F0" height="30.4883" rx="2.5" ry="2.5" style="stroke:#181818;stroke-width:0.5;" width="94" x="461" y="599.3926"/><text fill="#000000" font-family="sans-serif" font-size="14" lengthAdjust="spacing" textLength="80" x="468" y="619.9277">SPI EEPROM</text><rect fill="#E2E2F0" height="30.4883" rx="2.5" ry="2.5" style="stroke:#181818;stroke-width:0.5;" width="210" x="565" y="87.4883"/><text fill="#000000" font-family="sans-serif" font-size="14" lengthAdjust="spacing" textLength="196" x="572" y="108.0234">bl31 image (ATF) on SD card</text><rect fill="#E2E2F0" height="30.4883" rx="2.5" ry="2.5" style="stroke:#181818;stroke-width:0.5;" width="210" x="565" y="599.3926"/><text fill="#000000" font-family="sans-serif" font-size="14" lengthAdjust="spacing" textLength="196" x="572" y="619.9277">bl31 image (ATF) on SD card</text><rect fill="#E2E2F0" height="30.4883" rx="2.5" ry="2.5" style="stroke:#181818;stroke-width:0.5;" width="216" x="890" y="87.4883"/><text fill="#000000" font-family="sans-serif" font-size="14" lengthAdjust="spacing" textLength="202" x="897" y="108.0234">bare-metal binary on SD card</text><rect fill="#E2E2F0" height="30.4883" rx="2.5" ry="2.5" style="stroke:#181818;stroke-width:0.5;" width="216" x="890" y="599.3926"/><text fill="#000000" font-family="sans-serif" font-size="14" lengthAdjust="spacing" textLength="202" x="897" y="619.9277">bare-metal binary on SD card</text><rect fill="#FFFFFF" height="425.1055" style="stroke:#181818;stroke-width:1.0;" width="10" x="283" y="150.2871"/><rect fill="#FFFFFF" height="395.7949" style="stroke:#181818;stroke-width:1.0;" width="10" x="503" y="179.5977"/><rect fill="#FFFFFF" height="28" style="stroke:#181818;stroke-width:1.0;" width="10" x="508" y="216.9082"/><rect fill="#FFFFFF" height="283.5186" style="stroke:#181818;stroke-width:1.0;" width="10" x="665" y="291.874"/><rect fill="#FFFFFF" height="232.8975" style="stroke:#181818;stroke-width:1.0;" width="10" x="993" y="342.4951"/><rect fill="#FFFFFF" height="184.9316" style="stroke:#181818;stroke-width:1.0;" width="10" x="998" y="390.4609"/><rect fill="#FFFFFF" height="28" style="stroke:#181818;stroke-width:1.0;" width="10" x="1003" y="432.7715"/><rect fill="#FFFFFF" height="70.3105" style="stroke:#181818;stroke-width:1.0;" width="10" x="1003" y="505.082"/><rect fill="#FFFFFF" height="28" style="stroke:#181818;stroke-width:1.0;" width="10" x="1008" y="547.3926"/><polygon fill="#181818" points="271,146.2871,281,150.2871,271,154.2871,275,150.2871" style="stroke:#181818;stroke-width:1.0;"/><line style="stroke:#181818;stroke-width:1.0;" x1="92" x2="277" y1="150.2871" y2="150.2871"/><text fill="#000000" font-family="sans-serif" font-size="13" lengthAdjust="spacing" textLength="172" x="99" y="145.5449">Boot first-stage bootloader</text><polygon fill="#181818" points="491,175.5977,501,179.5977,491,183.5977,495,179.5977" style="stroke:#181818;stroke-width:1.0;"/><line style="stroke:#181818;stroke-width:1.0;" x1="293" x2="497" y1="179.5977" y2="179.5977"/><text fill="#000000" font-family="sans-serif" font-size="13" lengthAdjust="spacing" textLength="191" x="300" y="174.8555">Boot second-stage bootloader</text><line style="stroke:#181818;stroke-width:1.0;" x1="518" x2="560" y1="208.9082" y2="208.9082"/><line style="stroke:#181818;stroke-width:1.0;" x1="560" x2="560" y1="208.9082" y2="221.9082"/><line style="stroke:#181818;stroke-width:1.0;" x1="519" x2="560" y1="221.9082" y2="221.9082"/><polygon fill="#181818" points="529,217.9082,519,221.9082,529,225.9082,525,221.9082" style="stroke:#181818;stroke-width:1.0;"/><text fill="#000000" font-family="sans-serif" font-size="13" lengthAdjust="spacing" textLength="96" x="525" y="204.166">Initialize DRAM</text><polygon fill="#181818" points="653,287.874,663,291.874,653,295.874,657,291.874" style="stroke:#181818;stroke-width:1.0;"/><line style="stroke:#181818;stroke-width:1.0;" x1="513" x2="659" y1="291.874" y2="291.874"/><text fill="#000000" font-family="sans-serif" font-size="13" lengthAdjust="spacing" textLength="121" x="520" y="287.1318">Boot OS bootloader</text><path d="M680,264.9082 L680,304.9082 L873,304.9082 L873,274.9082 L863,264.9082 L680,264.9082 " fill="#FEFFDD" style="stroke:#181818;stroke-width:0.5;"/><path d="M863,264.9082 L863,274.9082 L873,274.9082 L863,264.9082 " fill="#FEFFDD" style="stroke:#181818;stroke-width:0.5;"/><text fill="#000000" font-family="sans-serif" font-size="13" lengthAdjust="spacing" textLength="172" x="686" y="282.4766">Runs at EL3 exception level</text><text fill="#000000" font-family="sans-serif" font-size="13" lengthAdjust="spacing" textLength="142" x="686" y="297.7871">(secure monitor mode)</text><polygon fill="#181818" points="981,338.4951,991,342.4951,981,346.4951,985,342.4951" style="stroke:#181818;stroke-width:1.0;"/><line style="stroke:#181818;stroke-width:1.0;" x1="675" x2="987" y1="342.4951" y2="342.4951"/><text fill="#000000" font-family="sans-serif" font-size="13" lengthAdjust="spacing" textLength="299" x="682" y="337.7529">Boot AArch64 Bare-meta Ada program to DRAM</text><path d="M1008,315.5293 L1008,355.5293 L1220,355.5293 L1220,325.5293 L1210,315.5293 L1008,315.5293 " fill="#FEFFDD" style="stroke:#181818;stroke-width:0.5;"/><path d="M1210,315.5293 L1210,325.5293 L1220,325.5293 L1210,315.5293 " fill="#FEFFDD" style="stroke:#181818;stroke-width:0.5;"/><text fill="#000000" font-family="sans-serif" font-size="13" lengthAdjust="spacing" textLength="191" x="1014" y="333.0977">Invoked at EL2 exception level</text><text fill="#000000" font-family="sans-serif" font-size="13" lengthAdjust="spacing" textLength="113" x="1014" y="348.4082">(hypervisor mode)</text><line style="stroke:#181818;stroke-width:1.0;" x1="1003" x2="1050" y1="377.4609" y2="377.4609"/><line style="stroke:#181818;stroke-width:1.0;" x1="1050" x2="1050" y1="377.4609" y2="390.4609"/><line style="stroke:#181818;stroke-width:1.0;" x1="1009" x2="1050" y1="390.4609" y2="390.4609"/><polygon fill="#181818" points="1019,386.4609,1009,390.4609,1019,394.4609,1015,390.4609" style="stroke:#181818;stroke-width:1.0;"/><text fill="#000000" font-family="sans-serif" font-size="13" lengthAdjust="spacing" textLength="85" x="1015" y="372.7188">reset_handler</text><line style="stroke:#181818;stroke-width:1.0;" x1="1013" x2="1055" y1="424.7715" y2="424.7715"/><line style="stroke:#181818;stroke-width:1.0;" x1="1055" x2="1055" y1="424.7715" y2="437.7715"/><line style="stroke:#181818;stroke-width:1.0;" x1="1014" x2="1055" y1="437.7715" y2="437.7715"/><polygon fill="#181818" points="1024,433.7715,1014,437.7715,1024,441.7715,1020,437.7715" style="stroke:#181818;stroke-width:1.0;"/><text fill="#000000" font-family="sans-serif" font-size="13" lengthAdjust="spacing" textLength="203" x="1020" y="420.0293">transition to EL1 exception level</text><path d="M1235,411.9609 L1235,436.9609 L1361,436.9609 L1361,421.9609 L1351,411.9609 L1235,411.9609 " fill="#FEFFDD" style="stroke:#181818;stroke-width:0.5;"/><path d="M1351,411.9609 L1351,421.9609 L1361,421.9609 L1351,411.9609 " fill="#FEFFDD" style="stroke:#181818;stroke-width:0.5;"/><text fill="#000000" font-family="sans-serif" font-size="13" lengthAdjust="spacing" textLength="105" x="1241" y="429.5293">supervisor mode</text><line style="stroke:#181818;stroke-width:1.0;" x1="1008" x2="1055" y1="492.082" y2="492.082"/><line style="stroke:#181818;stroke-width:1.0;" x1="1055" x2="1055" y1="492.082" y2="505.082"/><line style="stroke:#181818;stroke-width:1.0;" x1="1014" x2="1055" y1="505.082" y2="505.082"/><polygon fill="#181818" points="1024,501.082,1014,505.082,1024,509.082,1020,505.082" style="stroke:#181818;stroke-width:1.0;"/><text fill="#000000" font-family="sans-serif" font-size="13" lengthAdjust="spacing" textLength="176" x="1020" y="487.3398">main generated by gnatbind</text><path d="M1208,484.2715 L1208,509.2715 L1384,509.2715 L1384,494.2715 L1374,484.2715 L1208,484.2715 " fill="#FEFFDD" style="stroke:#181818;stroke-width:0.5;"/><path d="M1374,484.2715 L1374,494.2715 L1384,494.2715 L1374,484.2715 " fill="#FEFFDD" style="stroke:#181818;stroke-width:0.5;"/><text fill="#000000" font-family="sans-serif" font-size="13" lengthAdjust="spacing" textLength="155" x="1214" y="501.8398">Ada package elaboration</text><line style="stroke:#181818;stroke-width:1.0;" x1="1018" x2="1060" y1="539.3926" y2="539.3926"/><line style="stroke:#181818;stroke-width:1.0;" x1="1060" x2="1060" y1="539.3926" y2="552.3926"/><line style="stroke:#181818;stroke-width:1.0;" x1="1019" x2="1060" y1="552.3926" y2="552.3926"/><polygon fill="#181818" points="1029,548.3926,1019,552.3926,1029,556.3926,1025,552.3926" style="stroke:#181818;stroke-width:1.0;"/><text fill="#000000" font-family="sans-serif" font-size="13" lengthAdjust="spacing" textLength="139" x="1025" y="534.6504">Ada main subprogram</text><!--SRC=[lPLDJ-Cm48Rl_HMZdk3G0x3iWSDAGNIbIg1MBVVL91vI2yVkZftkTd_zJjAKf1y9404-slE-C_ECdGGT3C4S_Iecviri0jTmwro01VtEoIO4J-moMDn1Wgm6c0J7C9ovFyGmjRKGPXgkXuFM4nZzWE5y-Z24cwt_asOVHZvWIX3BXd6eY8i4Ues1ji43W4fLo1TItNWyQxfuIfnLnpQYgvqQkkAWy6nQ7LjFh0uQZVv7S3UF7YfHbw6YTwMBpTK5wAme-Ynw_7aEpkuGlxGsNHmq9CiwIS0wNOPgGzOyjnummFZ-2kXlGgkWnStGcamTT2QWSYR8dBGc4yoSelFgcAmgZO_QxAgojkvkfkmMcKOP1JGGQujo9Kwq6qMSBBz_WzjTC4GAOSKkPSmWkEOazgliSgy5BVIsQsBNxfdK5kDbEyOAvdAp8bvhVm3o9CuTf4u6Rw74v2dyMg9LvkK-z6VnCJK5HkjrIKecDBw_U0rT-mXyliVqyFWarVwzDz_hLqFBK5j8oH9BUWNn1bABGKBLssd9Afy79i_5koE3iHCxuVx9u3u6GL5xYS7dSVN4JoJgNsBlyVOJzb2zLx8N_yftkUrdrDmlDlu3]--></g></svg>