<?xml version="1.0" encoding="us-ascii" standalone="no"?><svg xmlns="http://www.w3.org/2000/svg" xmlns:xlink="http://www.w3.org/1999/xlink" contentStyleType="text/css" height="1380px" preserveAspectRatio="none" style="width:1653px;height:1380px;background:#FFFFFF;" version="1.1" viewBox="0 0 1653 1380" width="1653px" zoomAndPan="magnify"><defs/><g><text fill="#000000" font-family="sans-serif" font-size="14" font-weight="bold" lengthAdjust="spacing" textLength="280" x="690" y="28.5352">RaspberryPI Boot Sequence from UART</text><rect fill="#FFFFFF" height="1140.248" style="stroke:#181818;stroke-width:1.0;" width="10" x="350.5" y="150.2871"/><rect fill="#FFFFFF" height="1086.9375" style="stroke:#181818;stroke-width:1.0;" width="10" x="355.5" y="187.5977"/><rect fill="#FFFFFF" height="886.3848" style="stroke:#181818;stroke-width:1.0;" width="10" x="360.5" y="229.9082"/><rect fill="#FFFFFF" height="301.1055" style="stroke:#181818;stroke-width:1.0;" width="10" x="365.5" y="599.3242"/><rect fill="#FFFFFF" height="130.2422" style="stroke:#181818;stroke-width:1.0;" width="10" x="365.5" y="986.0508"/><rect fill="#FFFFFF" height="92.9316" style="stroke:#181818;stroke-width:1.0;" width="10" x="370.5" y="1023.3613"/><rect fill="#FFFFFF" height="159.5527" style="stroke:#181818;stroke-width:1.0;" width="10" x="1009" y="335.8398"/><rect fill="#FFFFFF" height="122.2422" style="stroke:#181818;stroke-width:1.0;" width="10" x="1014" y="373.1504"/><rect fill="#FFFFFF" height="343.416" style="stroke:#181818;stroke-width:1.0;" width="10" x="1009" y="557.0137"/><rect fill="#FFFFFF" height="164.5527" style="stroke:#181818;stroke-width:1.0;" width="10" x="1009" y="951.7402"/><rect fill="#FFFFFF" height="134.2764" style="stroke:#181818;stroke-width:1.0;" width="10" x="1260" y="1156.2588"/><rect fill="#FFFFFF" height="70.3105" style="stroke:#181818;stroke-width:1.0;" width="10" x="1265" y="1204.2246"/><rect fill="#FFFFFF" height="28" style="stroke:#181818;stroke-width:1.0;" width="10" x="1270" y="1246.5352"/><rect fill="none" height="405.0371" style="stroke:#000000;stroke-width:1.5;" width="998" x="253" y="510.3926"/><line style="stroke:#181818;stroke-width:0.5;stroke-dasharray:5.0,5.0;" x1="129" x2="129" y1="118.9766" y2="1299.5352"/><line style="stroke:#181818;stroke-width:0.5;stroke-dasharray:5.0,5.0;" x1="355" x2="355" y1="118.9766" y2="1299.5352"/><line style="stroke:#181818;stroke-width:0.5;stroke-dasharray:5.0,5.0;" x1="578" x2="578" y1="118.9766" y2="1299.5352"/><line style="stroke:#181818;stroke-width:0.5;stroke-dasharray:5.0,5.0;" x1="798" x2="798" y1="118.9766" y2="1299.5352"/><line style="stroke:#181818;stroke-width:0.5;stroke-dasharray:5.0,5.0;" x1="1014" x2="1014" y1="118.9766" y2="1299.5352"/><line style="stroke:#181818;stroke-width:0.5;stroke-dasharray:5.0,5.0;" x1="1264.5" x2="1264.5" y1="118.9766" y2="1299.5352"/><text fill="#000000" font-family="sans-serif" font-size="14" lengthAdjust="spacing" textLength="242" x="5" y="116.0234">UART bootloader server on SD card</text><ellipse cx="129" cy="50.9883" fill="#E2E2F0" rx="8" ry="8" style="stroke:#181818;stroke-width:0.5;"/><path d="M129,58.9883 L129,85.9883 M116,66.9883 L142,66.9883 M129,85.9883 L116,100.9883 M129,85.9883 L142,100.9883 " fill="none" style="stroke:#181818;stroke-width:0.5;"/><text fill="#000000" font-family="sans-serif" font-size="14" lengthAdjust="spacing" textLength="242" x="5" y="1312.0703">UART bootloader server on SD card</text><ellipse cx="129" cy="1323.5234" fill="#E2E2F0" rx="8" ry="8" style="stroke:#181818;stroke-width:0.5;"/><path d="M129,1331.5234 L129,1358.5234 M116,1339.5234 L142,1339.5234 M129,1358.5234 L116,1373.5234 M129,1358.5234 L142,1373.5234 " fill="none" style="stroke:#181818;stroke-width:0.5;"/><rect fill="#E2E2F0" height="30.4883" rx="2.5" ry="2.5" style="stroke:#181818;stroke-width:0.5;" width="185" x="263" y="87.4883"/><text fill="#000000" font-family="sans-serif" font-size="14" lengthAdjust="spacing" textLength="171" x="270" y="108.0234">Uart_Boot_Loader_Server</text><rect fill="#E2E2F0" height="30.4883" rx="2.5" ry="2.5" style="stroke:#181818;stroke-width:0.5;" width="185" x="263" y="1298.5352"/><text fill="#000000" font-family="sans-serif" font-size="14" lengthAdjust="spacing" textLength="171" x="270" y="1319.0703">Uart_Boot_Loader_Server</text><text fill="#000000" font-family="sans-serif" font-size="14" lengthAdjust="spacing" textLength="185" x="483" y="116.0234">picocom terminal emulator</text><ellipse cx="578.5" cy="50.9883" fill="#E2E2F0" rx="8" ry="8" style="stroke:#181818;stroke-width:0.5;"/><path d="M578.5,58.9883 L578.5,85.9883 M565.5,66.9883 L591.5,66.9883 M578.5,85.9883 L565.5,100.9883 M578.5,85.9883 L591.5,100.9883 " fill="none" style="stroke:#181818;stroke-width:0.5;"/><text fill="#000000" font-family="sans-serif" font-size="14" lengthAdjust="spacing" textLength="185" x="483" y="1312.0703">picocom terminal emulator</text><ellipse cx="578.5" cy="1323.5234" fill="#E2E2F0" rx="8" ry="8" style="stroke:#181818;stroke-width:0.5;"/><path d="M578.5,1331.5234 L578.5,1358.5234 M565.5,1339.5234 L591.5,1339.5234 M578.5,1358.5234 L565.5,1373.5234 M578.5,1358.5234 L591.5,1373.5234 " fill="none" style="stroke:#181818;stroke-width:0.5;"/><rect fill="#E2E2F0" height="30.4883" rx="2.5" ry="2.5" style="stroke:#181818;stroke-width:0.5;" width="229" x="684" y="87.4883"/><text fill="#000000" font-family="sans-serif" font-size="14" lengthAdjust="spacing" textLength="215" x="691" y="108.0234">UART bootloader client on host</text><rect fill="#E2E2F0" height="30.4883" rx="2.5" ry="2.5" style="stroke:#181818;stroke-width:0.5;" width="229" x="684" y="1298.5352"/><text fill="#000000" font-family="sans-serif" font-size="14" lengthAdjust="spacing" textLength="215" x="691" y="1319.0703">UART bootloader client on host</text><rect fill="#E2E2F0" height="30.4883" rx="2.5" ry="2.5" style="stroke:#181818;stroke-width:0.5;" width="182" x="923" y="87.4883"/><text fill="#000000" font-family="sans-serif" font-size="14" lengthAdjust="spacing" textLength="168" x="930" y="108.0234">Uart_Boot_Loader_Client</text><rect fill="#E2E2F0" height="30.4883" rx="2.5" ry="2.5" style="stroke:#181818;stroke-width:0.5;" width="182" x="923" y="1298.5352"/><text fill="#000000" font-family="sans-serif" font-size="14" lengthAdjust="spacing" textLength="168" x="930" y="1319.0703">Uart_Boot_Loader_Client</text><rect fill="#E2E2F0" height="30.4883" rx="2.5" ry="2.5" style="stroke:#181818;stroke-width:0.5;" width="265" x="1132.5" y="87.4883"/><text fill="#000000" font-family="sans-serif" font-size="14" lengthAdjust="spacing" textLength="251" x="1139.5" y="108.0234">bare-metal binary loaded over UART</text><rect fill="#E2E2F0" height="30.4883" rx="2.5" ry="2.5" style="stroke:#181818;stroke-width:0.5;" width="265" x="1132.5" y="1298.5352"/><text fill="#000000" font-family="sans-serif" font-size="14" lengthAdjust="spacing" textLength="251" x="1139.5" y="1319.0703">bare-metal binary loaded over UART</text><rect fill="#FFFFFF" height="1140.248" style="stroke:#181818;stroke-width:1.0;" width="10" x="350.5" y="150.2871"/><rect fill="#FFFFFF" height="1086.9375" style="stroke:#181818;stroke-width:1.0;" width="10" x="355.5" y="187.5977"/><rect fill="#FFFFFF" height="886.3848" style="stroke:#181818;stroke-width:1.0;" width="10" x="360.5" y="229.9082"/><rect fill="#FFFFFF" height="301.1055" style="stroke:#181818;stroke-width:1.0;" width="10" x="365.5" y="599.3242"/><rect fill="#FFFFFF" height="130.2422" style="stroke:#181818;stroke-width:1.0;" width="10" x="365.5" y="986.0508"/><rect fill="#FFFFFF" height="92.9316" style="stroke:#181818;stroke-width:1.0;" width="10" x="370.5" y="1023.3613"/><rect fill="#FFFFFF" height="159.5527" style="stroke:#181818;stroke-width:1.0;" width="10" x="1009" y="335.8398"/><rect fill="#FFFFFF" height="122.2422" style="stroke:#181818;stroke-width:1.0;" width="10" x="1014" y="373.1504"/><rect fill="#FFFFFF" height="343.416" style="stroke:#181818;stroke-width:1.0;" width="10" x="1009" y="557.0137"/><rect fill="#FFFFFF" height="164.5527" style="stroke:#181818;stroke-width:1.0;" width="10" x="1009" y="951.7402"/><rect fill="#FFFFFF" height="134.2764" style="stroke:#181818;stroke-width:1.0;" width="10" x="1260" y="1156.2588"/><rect fill="#FFFFFF" height="70.3105" style="stroke:#181818;stroke-width:1.0;" width="10" x="1265" y="1204.2246"/><rect fill="#FFFFFF" height="28" style="stroke:#181818;stroke-width:1.0;" width="10" x="1270" y="1246.5352"/><polygon fill="#181818" points="338.5,146.2871,348.5,150.2871,338.5,154.2871,342.5,150.2871" style="stroke:#181818;stroke-width:1.0;"/><line style="stroke:#181818;stroke-width:1.0;" x1="129" x2="344.5" y1="150.2871" y2="150.2871"/><text fill="#000000" font-family="sans-serif" font-size="13" lengthAdjust="spacing" textLength="144" x="136" y="145.5449">Load_Image_Over_Uart</text><line style="stroke:#181818;stroke-width:1.0;" x1="360.5" x2="407.5" y1="174.5977" y2="174.5977"/><line style="stroke:#181818;stroke-width:1.0;" x1="407.5" x2="407.5" y1="174.5977" y2="187.5977"/><line style="stroke:#181818;stroke-width:1.0;" x1="366.5" x2="407.5" y1="187.5977" y2="187.5977"/><polygon fill="#181818" points="376.5,183.5977,366.5,187.5977,376.5,191.5977,372.5,187.5977" style="stroke:#181818;stroke-width:1.0;"/><text fill="#000000" font-family="sans-serif" font-size="13" lengthAdjust="spacing" textLength="76" x="372.5" y="169.8555">Receive_File</text><line style="stroke:#181818;stroke-width:1.0;" x1="365.5" x2="412.5" y1="216.9082" y2="216.9082"/><line style="stroke:#181818;stroke-width:1.0;" x1="412.5" x2="412.5" y1="216.9082" y2="229.9082"/><line style="stroke:#181818;stroke-width:1.0;" x1="371.5" x2="412.5" y1="229.9082" y2="229.9082"/><polygon fill="#181818" points="381.5,225.9082,371.5,229.9082,381.5,233.9082,377.5,229.9082" style="stroke:#181818;stroke-width:1.0;"/><text fill="#000000" font-family="sans-serif" font-size="13" lengthAdjust="spacing" textLength="190" x="377.5" y="212.166">File reception start handshake</text><line style="stroke:#181818;stroke-width:1.0;" x1="370.5" x2="412.5" y1="264.2188" y2="264.2188"/><line style="stroke:#181818;stroke-width:1.0;" x1="412.5" x2="412.5" y1="264.2188" y2="277.2188"/><line style="stroke:#181818;stroke-width:1.0;" x1="371.5" x2="412.5" y1="277.2188" y2="277.2188"/><polygon fill="#181818" points="381.5,273.2188,371.5,277.2188,381.5,281.2188,377.5,277.2188" style="stroke:#181818;stroke-width:1.0;"/><text fill="#000000" font-family="sans-serif" font-size="13" lengthAdjust="spacing" textLength="115" x="377.5" y="259.4766">Wait for ASCII.EOT</text><polygon fill="#181818" points="786.5,302.5293,796.5,306.5293,786.5,310.5293,790.5,306.5293" style="stroke:#181818;stroke-width:1.0;"/><line style="stroke:#181818;stroke-width:1.0;" x1="578.5" x2="792.5" y1="306.5293" y2="306.5293"/><text fill="#000000" font-family="sans-serif" font-size="13" lengthAdjust="spacing" textLength="49" x="585.5" y="301.7871">execute</text><polygon fill="#181818" points="997,331.8398,1007,335.8398,997,339.8398,1001,335.8398" style="stroke:#181818;stroke-width:1.0;"/><line style="stroke:#181818;stroke-width:1.0;" x1="798.5" x2="1003" y1="335.8398" y2="335.8398"/><text fill="#000000" font-family="sans-serif" font-size="13" lengthAdjust="spacing" textLength="59" x="805.5" y="331.0977">Send_File</text><line style="stroke:#181818;stroke-width:1.0;" x1="1019" x2="1066" y1="360.1504" y2="360.1504"/><line style="stroke:#181818;stroke-width:1.0;" x1="1066" x2="1066" y1="360.1504" y2="373.1504"/><line style="stroke:#181818;stroke-width:1.0;" x1="1025" x2="1066" y1="373.1504" y2="373.1504"/><polygon fill="#181818" points="1035,369.1504,1025,373.1504,1035,377.1504,1031,373.1504" style="stroke:#181818;stroke-width:1.0;"/><text fill="#000000" font-family="sans-serif" font-size="13" lengthAdjust="spacing" textLength="227" x="1031" y="355.4082">File_Transmission_Start_Handshake</text><polygon fill="#181818" points="381.5,403.4609,371.5,407.4609,381.5,411.4609,377.5,407.4609" style="stroke:#181818;stroke-width:1.0;"/><line style="stroke:#181818;stroke-width:1.0;" x1="375.5" x2="1013" y1="407.4609" y2="407.4609"/><text fill="#000000" font-family="sans-serif" font-size="13" lengthAdjust="spacing" textLength="62" x="387.5" y="402.7188">ASCII.EOT</text><polygon fill="#181818" points="1002,432.7715,1012,436.7715,1002,440.7715,1006,436.7715" style="stroke:#181818;stroke-width:1.0;"/><line style="stroke:#181818;stroke-width:1.0;" x1="370.5" x2="1008" y1="436.7715" y2="436.7715"/><text fill="#000000" font-family="sans-serif" font-size="13" lengthAdjust="spacing" textLength="64" x="377.5" y="432.0293">ASCII.NAK</text><polygon fill="#181818" points="381.5,462.082,371.5,466.082,381.5,470.082,377.5,466.082" style="stroke:#181818;stroke-width:1.0;"/><line style="stroke:#181818;stroke-width:1.0;" x1="375.5" x2="1013" y1="466.082" y2="466.082"/><text fill="#000000" font-family="sans-serif" font-size="13" lengthAdjust="spacing" textLength="62" x="387.5" y="461.3398">ASCII.EOT</text><polygon fill="#181818" points="1002,491.3926,1012,495.3926,1002,499.3926,1006,495.3926" style="stroke:#181818;stroke-width:1.0;"/><line style="stroke:#181818;stroke-width:1.0;" x1="370.5" x2="1008" y1="495.3926" y2="495.3926"/><text fill="#000000" font-family="sans-serif" font-size="13" lengthAdjust="spacing" textLength="63" x="377.5" y="490.6504">ASCII.ACK</text><path d="M253,510.3926 L327,510.3926 L327,517.7031 L317,527.7031 L253,527.7031 L253,510.3926 " fill="#EEEEEE" style="stroke:#000000;stroke-width:1.5;"/><rect fill="none" height="405.0371" style="stroke:#000000;stroke-width:1.5;" width="998" x="253" y="510.3926"/><text fill="#000000" font-family="sans-serif" font-size="13" font-weight="bold" lengthAdjust="spacing" textLength="29" x="268" y="523.9609">loop</text><line style="stroke:#181818;stroke-width:1.0;" x1="1014" x2="1061" y1="544.0137" y2="544.0137"/><line style="stroke:#181818;stroke-width:1.0;" x1="1061" x2="1061" y1="544.0137" y2="557.0137"/><line style="stroke:#181818;stroke-width:1.0;" x1="1020" x2="1061" y1="557.0137" y2="557.0137"/><polygon fill="#181818" points="1030,553.0137,1020,557.0137,1030,561.0137,1026,557.0137" style="stroke:#181818;stroke-width:1.0;"/><text fill="#000000" font-family="sans-serif" font-size="13" lengthAdjust="spacing" textLength="112" x="1026" y="539.2715">"Transmit packet"</text><line style="stroke:#181818;stroke-width:1.0;" x1="370.5" x2="417.5" y1="586.3242" y2="586.3242"/><line style="stroke:#181818;stroke-width:1.0;" x1="417.5" x2="417.5" y1="586.3242" y2="599.3242"/><line style="stroke:#181818;stroke-width:1.0;" x1="376.5" x2="417.5" y1="599.3242" y2="599.3242"/><polygon fill="#181818" points="386.5,595.3242,376.5,599.3242,386.5,603.3242,382.5,599.3242" style="stroke:#181818;stroke-width:1.0;"/><text fill="#000000" font-family="sans-serif" font-size="13" lengthAdjust="spacing" textLength="103" x="382.5" y="581.582">"Receive packet"</text><polygon fill="#181818" points="386.5,629.6348,376.5,633.6348,386.5,637.6348,382.5,633.6348" style="stroke:#181818;stroke-width:1.0;"/><line style="stroke:#181818;stroke-width:1.0;" x1="380.5" x2="1008" y1="633.6348" y2="633.6348"/><text fill="#000000" font-family="sans-serif" font-size="13" lengthAdjust="spacing" textLength="60" x="392.5" y="628.8926">ASCII.STX</text><polygon fill="#181818" points="386.5,658.9453,376.5,662.9453,386.5,666.9453,382.5,662.9453" style="stroke:#181818;stroke-width:1.0;"/><line style="stroke:#181818;stroke-width:1.0;" x1="380.5" x2="1008" y1="662.9453" y2="662.9453"/><text fill="#000000" font-family="sans-serif" font-size="13" lengthAdjust="spacing" textLength="131" x="392.5" y="658.2031">8-bit packet number</text><polygon fill="#181818" points="386.5,688.2559,376.5,692.2559,386.5,696.2559,382.5,692.2559" style="stroke:#181818;stroke-width:1.0;"/><line style="stroke:#181818;stroke-width:1.0;" x1="380.5" x2="1008" y1="692.2559" y2="692.2559"/><text fill="#000000" font-family="sans-serif" font-size="13" lengthAdjust="spacing" textLength="187" x="392.5" y="687.5137">Negated 8-bit packet number</text><polygon fill="#181818" points="386.5,728.2217,376.5,732.2217,386.5,736.2217,382.5,732.2217" style="stroke:#181818;stroke-width:1.0;"/><line style="stroke:#181818;stroke-width:1.0;" x1="380.5" x2="1008" y1="732.2217" y2="732.2217"/><text fill="#000000" font-family="sans-serif" font-size="13" lengthAdjust="spacing" textLength="93" x="392.5" y="727.4795">1K packet data</text><path d="M1024,705.2559 L1024,745.2559 L1241,745.2559 L1241,715.2559 L1231,705.2559 L1024,705.2559 " fill="#FEFFDD" style="stroke:#181818;stroke-width:0.5;"/><path d="M1231,705.2559 L1231,715.2559 L1241,715.2559 L1231,705.2559 " fill="#FEFFDD" style="stroke:#181818;stroke-width:0.5;"/><text fill="#000000" font-family="sans-serif" font-size="13" lengthAdjust="spacing" textLength="196" x="1030" y="722.8242">filled with ASCII.SUB characters</text><text fill="#000000" font-family="sans-serif" font-size="13" lengthAdjust="spacing" textLength="118" x="1030" y="738.1348">if data length &lt; 1K</text><polygon fill="#181818" points="386.5,778.8428,376.5,782.8428,386.5,786.8428,382.5,782.8428" style="stroke:#181818;stroke-width:1.0;"/><line style="stroke:#181818;stroke-width:1.0;" x1="380.5" x2="1008" y1="782.8428" y2="782.8428"/><text fill="#000000" font-family="sans-serif" font-size="13" lengthAdjust="spacing" textLength="109" x="392.5" y="778.1006">32-bit checksum</text><path d="M1024,755.877 L1024,795.877 L1217,795.877 L1217,765.877 L1207,755.877 L1024,755.877 " fill="#FEFFDD" style="stroke:#181818;stroke-width:0.5;"/><path d="M1207,755.877 L1207,765.877 L1217,765.877 L1207,755.877 " fill="#FEFFDD" style="stroke:#181818;stroke-width:0.5;"/><text fill="#000000" font-family="sans-serif" font-size="13" lengthAdjust="spacing" textLength="172" x="1030" y="773.4453">transmitted in little-endian</text><text fill="#000000" font-family="sans-serif" font-size="13" lengthAdjust="spacing" textLength="110" x="1030" y="788.7559">(lowest byte first)</text><polygon fill="#181818" points="997,818.8086,1007,822.8086,997,826.8086,1001,822.8086" style="stroke:#181818;stroke-width:1.0;"/><line style="stroke:#181818;stroke-width:1.0;" x1="375.5" x2="1003" y1="822.8086" y2="822.8086"/><text fill="#000000" font-family="sans-serif" font-size="13" lengthAdjust="spacing" textLength="63" x="382.5" y="818.0664">ASCII.ACK</text><line style="stroke:#181818;stroke-width:1.0;" x1="375.5" x2="417.5" y1="852.1191" y2="852.1191"/><line style="stroke:#181818;stroke-width:1.0;" x1="417.5" x2="417.5" y1="852.1191" y2="865.1191"/><line style="stroke:#181818;stroke-width:1.0;" x1="376.5" x2="417.5" y1="865.1191" y2="865.1191"/><polygon fill="#181818" points="386.5,861.1191,376.5,865.1191,386.5,869.1191,382.5,865.1191" style="stroke:#181818;stroke-width:1.0;"/><text fill="#000000" font-family="sans-serif" font-size="13" lengthAdjust="spacing" textLength="181" x="382.5" y="847.377">Increment Rx packet number</text><line style="stroke:#181818;stroke-width:1.0;" x1="1019" x2="1061" y1="899.4297" y2="899.4297"/><line style="stroke:#181818;stroke-width:1.0;" x1="1061" x2="1061" y1="899.4297" y2="912.4297"/><line style="stroke:#181818;stroke-width:1.0;" x1="1014" x2="1061" y1="912.4297" y2="912.4297"/><polygon fill="#181818" points="1024,908.4297,1014,912.4297,1024,916.4297,1020,912.4297" style="stroke:#181818;stroke-width:1.0;"/><text fill="#000000" font-family="sans-serif" font-size="13" lengthAdjust="spacing" textLength="181" x="1026" y="894.6875">Increment Tx packet number</text><line style="stroke:#181818;stroke-width:1.0;" x1="1014" x2="1061" y1="938.7402" y2="938.7402"/><line style="stroke:#181818;stroke-width:1.0;" x1="1061" x2="1061" y1="938.7402" y2="951.7402"/><line style="stroke:#181818;stroke-width:1.0;" x1="1020" x2="1061" y1="951.7402" y2="951.7402"/><polygon fill="#181818" points="1030,947.7402,1020,951.7402,1030,955.7402,1026,951.7402" style="stroke:#181818;stroke-width:1.0;"/><text fill="#000000" font-family="sans-serif" font-size="13" lengthAdjust="spacing" textLength="221" x="1026" y="933.998">File_Transmission_End_Handshake</text><polygon fill="#181818" points="386.5,982.0508,376.5,986.0508,386.5,990.0508,382.5,986.0508" style="stroke:#181818;stroke-width:1.0;"/><line style="stroke:#181818;stroke-width:1.0;" x1="380.5" x2="1008" y1="986.0508" y2="986.0508"/><text fill="#000000" font-family="sans-serif" font-size="13" lengthAdjust="spacing" textLength="62" x="392.5" y="981.3086">ASCII.EOT</text><line style="stroke:#181818;stroke-width:1.0;" x1="375.5" x2="422.5" y1="1010.3613" y2="1010.3613"/><line style="stroke:#181818;stroke-width:1.0;" x1="422.5" x2="422.5" y1="1010.3613" y2="1023.3613"/><line style="stroke:#181818;stroke-width:1.0;" x1="381.5" x2="422.5" y1="1023.3613" y2="1023.3613"/><polygon fill="#181818" points="391.5,1019.3613,381.5,1023.3613,391.5,1027.3613,387.5,1023.3613" style="stroke:#181818;stroke-width:1.0;"/><text fill="#000000" font-family="sans-serif" font-size="13" lengthAdjust="spacing" textLength="184" x="387.5" y="1005.6191">File reception end handshake</text><polygon fill="#181818" points="997,1053.6719,1007,1057.6719,997,1061.6719,1001,1057.6719" style="stroke:#181818;stroke-width:1.0;"/><line style="stroke:#181818;stroke-width:1.0;" x1="380.5" x2="1003" y1="1057.6719" y2="1057.6719"/><text fill="#000000" font-family="sans-serif" font-size="13" lengthAdjust="spacing" textLength="63" x="387.5" y="1052.9297">ASCII.ACK</text><polygon fill="#181818" points="391.5,1082.9824,381.5,1086.9824,391.5,1090.9824,387.5,1086.9824" style="stroke:#181818;stroke-width:1.0;"/><line style="stroke:#181818;stroke-width:1.0;" x1="385.5" x2="1008" y1="1086.9824" y2="1086.9824"/><text fill="#000000" font-family="sans-serif" font-size="13" lengthAdjust="spacing" textLength="62" x="397.5" y="1082.2402">ASCII.EOT</text><polygon fill="#181818" points="1002,1112.293,1012,1116.293,1002,1120.293,1006,1116.293" style="stroke:#181818;stroke-width:1.0;"/><line style="stroke:#181818;stroke-width:1.0;" x1="365.5" x2="1008" y1="1116.293" y2="1116.293"/><text fill="#000000" font-family="sans-serif" font-size="13" lengthAdjust="spacing" textLength="63" x="372.5" y="1111.5508">ASCII.ACK</text><polygon fill="#181818" points="1248,1152.2588,1258,1156.2588,1248,1160.2588,1252,1156.2588" style="stroke:#181818;stroke-width:1.0;"/><line style="stroke:#181818;stroke-width:1.0;" x1="365.5" x2="1254" y1="1156.2588" y2="1156.2588"/><text fill="#000000" font-family="sans-serif" font-size="13" lengthAdjust="spacing" textLength="85" x="372.5" y="1151.5166">reset_handler</text><path d="M1275,1129.293 L1275,1169.293 L1487,1169.293 L1487,1139.293 L1477,1129.293 L1275,1129.293 " fill="#FEFFDD" style="stroke:#181818;stroke-width:0.5;"/><path d="M1477,1129.293 L1477,1139.293 L1487,1139.293 L1477,1129.293 " fill="#FEFFDD" style="stroke:#181818;stroke-width:0.5;"/><text fill="#000000" font-family="sans-serif" font-size="13" lengthAdjust="spacing" textLength="191" x="1281" y="1146.8613">Invoked at EL1 exception level</text><text fill="#000000" font-family="sans-serif" font-size="13" lengthAdjust="spacing" textLength="113" x="1281" y="1162.1719">(supervisor mode)</text><line style="stroke:#181818;stroke-width:1.0;" x1="1270" x2="1317" y1="1191.2246" y2="1191.2246"/><line style="stroke:#181818;stroke-width:1.0;" x1="1317" x2="1317" y1="1191.2246" y2="1204.2246"/><line style="stroke:#181818;stroke-width:1.0;" x1="1276" x2="1317" y1="1204.2246" y2="1204.2246"/><polygon fill="#181818" points="1286,1200.2246,1276,1204.2246,1286,1208.2246,1282,1204.2246" style="stroke:#181818;stroke-width:1.0;"/><text fill="#000000" font-family="sans-serif" font-size="13" lengthAdjust="spacing" textLength="176" x="1282" y="1186.4824">main generated by gnatbind</text><path d="M1470,1183.4141 L1470,1208.4141 L1646,1208.4141 L1646,1193.4141 L1636,1183.4141 L1470,1183.4141 " fill="#FEFFDD" style="stroke:#181818;stroke-width:0.5;"/><path d="M1636,1183.4141 L1636,1193.4141 L1646,1193.4141 L1636,1183.4141 " fill="#FEFFDD" style="stroke:#181818;stroke-width:0.5;"/><text fill="#000000" font-family="sans-serif" font-size="13" lengthAdjust="spacing" textLength="155" x="1476" y="1200.9824">Ada package elaboration</text><line style="stroke:#181818;stroke-width:1.0;" x1="1280" x2="1322" y1="1238.5352" y2="1238.5352"/><line style="stroke:#181818;stroke-width:1.0;" x1="1322" x2="1322" y1="1238.5352" y2="1251.5352"/><line style="stroke:#181818;stroke-width:1.0;" x1="1281" x2="1322" y1="1251.5352" y2="1251.5352"/><polygon fill="#181818" points="1291,1247.5352,1281,1251.5352,1291,1255.5352,1287,1251.5352" style="stroke:#181818;stroke-width:1.0;"/><text fill="#000000" font-family="sans-serif" font-size="13" lengthAdjust="spacing" textLength="139" x="1287" y="1233.793">Ada main subprogram</text><!--SRC=[pLTDRzf04BtxLunyIWvKIdkfegeIILCL9Keg86flrjeUy8hrhhkx9k7VTzOOI8c1jUD8vSBNctblFdPsRBaL26DcYXYrNlqSmPLI5YRufqIP8Coqok5nE9u6BB5AG-W-GqmOeLYA6Wpg9Rqf2PDla32TXe471WPVuP5f6pcswAw2HPCrx1BSzsYKipb63_HBv92Edo-PnKDs0S11bqVPnfWWNsBqdGjqJdo8kd8v3j14M5XEwJ2Ma90ncPgCBR3sx2cWguPVZ5kOKIs7a-lHwCFDmtJdi2vomHELKE4jwfnB9W3pKZ3wAzn1Zu0S_wicI0H7QLqJPChOa8JWCoQbnHSkJzaqnNMznbnIpyfqMyHJcLnRxP1DoQmz7oLrVD5KCsboRWpLD9gucaO_zchQGKzBITlwDfIrVRTi0rnxkn_U_hVQXjV_QalHFytUM0zWZHHA5S7RcYgi6yf2mP85sh2lZlOP3s4z3rzpjnfDRswIoVHtBzu-3-9j8a6MUToJodkSKoBIT_D_SRjncZBBzbrAHKNGV9wzcXdqcd4XIDaJjzaccOzNa6HCK_rGcmOJFgjeGA2SazKNejz7qNYjQ7k9xjF7Acr9Xid2b7chy6nzEbpskGH1dmGEI1vdiW5-9jGJ6WlnYdpEk3Rsl7DetQTIr-Cuaed6t7aUF_VNPLknE_VJO-wFZR_za-yzKrtMgsaPj9rjFLtLDxGmD5pKxxOrdBW6tpnSEsoWhWPPuwxIGL3l9wRtDQDtXMqEndkT8p-W1_M9HwWmPXe7ELhQzMFQ-FKAgZqz1UKGRdbtQxr6WpPoJINMuMnvVHm41ow0aLog1I6PXPkx2tfss7Imm2MA6dHcoeBaSaCFCRbAyJnedEzUWVW7d3EwXUOeKLSBGRo2kMIM3D93mGnJLWrRUi8552nMP4cnDAljahxUOtIAgpXD6HTQpJNB6mPcAuKlEzBNiAt9wQR_2m00]--></g></svg>