<?xml version="1.0" encoding="us-ascii" standalone="no"?><svg xmlns="http://www.w3.org/2000/svg" xmlns:xlink="http://www.w3.org/1999/xlink" contentStyleType="text/css" height="1189px" preserveAspectRatio="none" style="width:1526px;height:1189px;background:#FFFFFF;" version="1.1" viewBox="0 0 1526 1189" width="1526px" zoomAndPan="magnify"><defs/><g><text fill="#000000" font-family="sans-serif" font-size="14" font-weight="bold" lengthAdjust="spacing" textLength="238" x="645" y="28.5352">Synchronous Hardware Exception</text><rect fill="#FFFFFF" height="961.166" style="stroke:#181818;stroke-width:1.0;" width="10" x="117.5" y="128.9766"/><rect fill="#FFFFFF" height="939.8555" style="stroke:#181818;stroke-width:1.0;" width="10" x="490.5" y="150.2871"/><rect fill="#FFFFFF" height="136.6211" style="stroke:#181818;stroke-width:1.0;" width="10" x="495.5" y="187.5977"/><rect fill="#FFFFFF" height="28" style="stroke:#181818;stroke-width:1.0;" width="10" x="500.5" y="229.9082"/><rect fill="#FFFFFF" height="165.9316" style="stroke:#181818;stroke-width:1.0;" width="10" x="495.5" y="924.2109"/><rect fill="#FFFFFF" height="28" style="stroke:#181818;stroke-width:1.0;" width="10" x="500.5" y="1025.832"/><rect fill="#FFFFFF" height="30" style="stroke:#181818;stroke-width:1.0;" width="10" x="780.5" y="294.2188"/><rect fill="#FFFFFF" height="541.3711" style="stroke:#181818;stroke-width:1.0;" width="10" x="780.5" y="353.5293"/><rect fill="#FFFFFF" height="225.2422" style="stroke:#181818;stroke-width:1.0;" width="10" x="785.5" y="415.1504"/><rect fill="#FFFFFF" height="28" style="stroke:#181818;stroke-width:1.0;" width="10" x="790.5" y="457.4609"/><rect fill="#FFFFFF" height="187.2422" style="stroke:#181818;stroke-width:1.0;" width="10" x="785.5" y="692.6582"/><rect fill="#FFFFFF" height="74.9658" style="stroke:#181818;stroke-width:1.0;" width="10" x="790.5" y="734.9688"/><rect fill="#FFFFFF" height="30" style="stroke:#181818;stroke-width:1.0;" width="10" x="780.5" y="958.5215"/><rect fill="#FFFFFF" height="30" style="stroke:#181818;stroke-width:1.0;" width="10" x="991.5" y="521.7715"/><rect fill="#FFFFFF" height="30" style="stroke:#181818;stroke-width:1.0;" width="10" x="991.5" y="849.9004"/><rect fill="#FFFFFF" height="59.3105" style="stroke:#181818;stroke-width:1.0;" width="10" x="1112.5" y="581.082"/><rect fill="#FFFFFF" height="30" style="stroke:#181818;stroke-width:1.0;" width="10" x="1200.5" y="610.3926"/><rect fill="#FFFFFF" height="30" style="stroke:#181818;stroke-width:1.0;" width="10" x="1322" y="779.9346"/><rect fill="none" height="519.3711" style="stroke:#000000;stroke-width:1.5;" width="831.5" x="687.5" y="368.5293"/><line style="stroke:#181818;stroke-width:0.5;stroke-dasharray:5.0,5.0;" x1="122" x2="122" y1="118.9766" y2="1108.1426"/><line style="stroke:#181818;stroke-width:0.5;stroke-dasharray:5.0,5.0;" x1="495.5" x2="495.5" y1="118.9766" y2="1108.1426"/><line style="stroke:#181818;stroke-width:0.5;stroke-dasharray:5.0,5.0;" x1="785.5" x2="785.5" y1="118.9766" y2="1108.1426"/><line style="stroke:#181818;stroke-width:0.5;stroke-dasharray:5.0,5.0;" x1="996.5" x2="996.5" y1="118.9766" y2="1108.1426"/><line style="stroke:#181818;stroke-width:0.5;stroke-dasharray:5.0,5.0;" x1="1117.5" x2="1117.5" y1="118.9766" y2="1108.1426"/><line style="stroke:#181818;stroke-width:0.5;stroke-dasharray:5.0,5.0;" x1="1205.5" x2="1205.5" y1="118.9766" y2="1108.1426"/><line style="stroke:#181818;stroke-width:0.5;stroke-dasharray:5.0,5.0;" x1="1326.5" x2="1326.5" y1="118.9766" y2="1108.1426"/><text fill="#000000" font-family="sans-serif" font-size="14" lengthAdjust="spacing" textLength="229" x="5" y="116.0234">synchronous hardware exception</text><ellipse cx="122.5" cy="50.9883" fill="#E2E2F0" rx="8" ry="8" style="stroke:#181818;stroke-width:0.5;"/><path d="M122.5,58.9883 L122.5,85.9883 M109.5,66.9883 L135.5,66.9883 M122.5,85.9883 L109.5,100.9883 M122.5,85.9883 L135.5,100.9883 " fill="none" style="stroke:#181818;stroke-width:0.5;"/><text fill="#000000" font-family="sans-serif" font-size="14" lengthAdjust="spacing" textLength="229" x="5" y="1120.6777">synchronous hardware exception</text><ellipse cx="122.5" cy="1132.1309" fill="#E2E2F0" rx="8" ry="8" style="stroke:#181818;stroke-width:0.5;"/><path d="M122.5,1140.1309 L122.5,1167.1309 M109.5,1148.1309 L135.5,1148.1309 M122.5,1167.1309 L109.5,1182.1309 M122.5,1167.1309 L135.5,1182.1309 " fill="none" style="stroke:#181818;stroke-width:0.5;"/><rect fill="#E2E2F0" height="30.4883" rx="2.5" ry="2.5" style="stroke:#181818;stroke-width:0.5;" width="192" x="399.5" y="87.4883"/><text fill="#000000" font-family="sans-serif" font-size="14" lengthAdjust="spacing" textLength="178" x="406.5" y="108.0234">interrupt_handling_Asm.S</text><rect fill="#E2E2F0" height="30.4883" rx="2.5" ry="2.5" style="stroke:#181818;stroke-width:0.5;" width="192" x="399.5" y="1107.1426"/><text fill="#000000" font-family="sans-serif" font-size="14" lengthAdjust="spacing" textLength="178" x="406.5" y="1127.6777">interrupt_handling_Asm.S</text><rect fill="#E2E2F0" height="30.4883" rx="2.5" ry="2.5" style="stroke:#181818;stroke-width:0.5;" width="176" x="697.5" y="87.4883"/><text fill="#000000" font-family="sans-serif" font-size="14" lengthAdjust="spacing" textLength="162" x="704.5" y="108.0234">CPU.Interrupt_Handling</text><rect fill="#E2E2F0" height="30.4883" rx="2.5" ry="2.5" style="stroke:#181818;stroke-width:0.5;" width="176" x="697.5" y="1107.1426"/><text fill="#000000" font-family="sans-serif" font-size="14" lengthAdjust="spacing" textLength="162" x="704.5" y="1127.6777">CPU.Interrupt_Handling</text><rect fill="#E2E2F0" height="30.4883" rx="2.5" ry="2.5" style="stroke:#181818;stroke-width:0.5;" width="178" x="907.5" y="87.4883"/><text fill="#000000" font-family="sans-serif" font-size="14" lengthAdjust="spacing" textLength="164" x="914.5" y="108.0234">CPU.Self_Hosted_Debug</text><rect fill="#E2E2F0" height="30.4883" rx="2.5" ry="2.5" style="stroke:#181818;stroke-width:0.5;" width="178" x="907.5" y="1107.1426"/><text fill="#000000" font-family="sans-serif" font-size="14" lengthAdjust="spacing" textLength="164" x="914.5" y="1127.6777">CPU.Self_Hosted_Debug</text><rect fill="#E2E2F0" height="30.4883" rx="2.5" ry="2.5" style="stroke:#181818;stroke-width:0.5;" width="44" x="1095.5" y="87.4883"/><text fill="#000000" font-family="sans-serif" font-size="14" lengthAdjust="spacing" textLength="30" x="1102.5" y="108.0234">Utils</text><rect fill="#E2E2F0" height="30.4883" rx="2.5" ry="2.5" style="stroke:#181818;stroke-width:0.5;" width="44" x="1095.5" y="1107.1426"/><text fill="#000000" font-family="sans-serif" font-size="14" lengthAdjust="spacing" textLength="30" x="1102.5" y="1127.6777">Utils</text><rect fill="#E2E2F0" height="30.4883" rx="2.5" ry="2.5" style="stroke:#181818;stroke-width:0.5;" width="86" x="1162.5" y="87.4883"/><text fill="#000000" font-family="sans-serif" font-size="14" lengthAdjust="spacing" textLength="72" x="1169.5" y="108.0234">cpu_asm.S</text><rect fill="#E2E2F0" height="30.4883" rx="2.5" ry="2.5" style="stroke:#181818;stroke-width:0.5;" width="86" x="1162.5" y="1107.1426"/><text fill="#000000" font-family="sans-serif" font-size="14" lengthAdjust="spacing" textLength="72" x="1169.5" y="1127.6777">cpu_asm.S</text><rect fill="#E2E2F0" height="30.4883" rx="2.5" ry="2.5" style="stroke:#181818;stroke-width:0.5;" width="137" x="1258.5" y="87.4883"/><text fill="#000000" font-family="sans-serif" font-size="14" lengthAdjust="spacing" textLength="123" x="1265.5" y="108.0234">Utils.Runtime_Log</text><rect fill="#E2E2F0" height="30.4883" rx="2.5" ry="2.5" style="stroke:#181818;stroke-width:0.5;" width="137" x="1258.5" y="1107.1426"/><text fill="#000000" font-family="sans-serif" font-size="14" lengthAdjust="spacing" textLength="123" x="1265.5" y="1127.6777">Utils.Runtime_Log</text><rect fill="#FFFFFF" height="961.166" style="stroke:#181818;stroke-width:1.0;" width="10" x="117.5" y="128.9766"/><rect fill="#FFFFFF" height="939.8555" style="stroke:#181818;stroke-width:1.0;" width="10" x="490.5" y="150.2871"/><rect fill="#FFFFFF" height="136.6211" style="stroke:#181818;stroke-width:1.0;" width="10" x="495.5" y="187.5977"/><rect fill="#FFFFFF" height="28" style="stroke:#181818;stroke-width:1.0;" width="10" x="500.5" y="229.9082"/><rect fill="#FFFFFF" height="165.9316" style="stroke:#181818;stroke-width:1.0;" width="10" x="495.5" y="924.2109"/><rect fill="#FFFFFF" height="28" style="stroke:#181818;stroke-width:1.0;" width="10" x="500.5" y="1025.832"/><rect fill="#FFFFFF" height="30" style="stroke:#181818;stroke-width:1.0;" width="10" x="780.5" y="294.2188"/><rect fill="#FFFFFF" height="541.3711" style="stroke:#181818;stroke-width:1.0;" width="10" x="780.5" y="353.5293"/><rect fill="#FFFFFF" height="225.2422" style="stroke:#181818;stroke-width:1.0;" width="10" x="785.5" y="415.1504"/><rect fill="#FFFFFF" height="28" style="stroke:#181818;stroke-width:1.0;" width="10" x="790.5" y="457.4609"/><rect fill="#FFFFFF" height="187.2422" style="stroke:#181818;stroke-width:1.0;" width="10" x="785.5" y="692.6582"/><rect fill="#FFFFFF" height="74.9658" style="stroke:#181818;stroke-width:1.0;" width="10" x="790.5" y="734.9688"/><rect fill="#FFFFFF" height="30" style="stroke:#181818;stroke-width:1.0;" width="10" x="780.5" y="958.5215"/><rect fill="#FFFFFF" height="30" style="stroke:#181818;stroke-width:1.0;" width="10" x="991.5" y="521.7715"/><rect fill="#FFFFFF" height="30" style="stroke:#181818;stroke-width:1.0;" width="10" x="991.5" y="849.9004"/><rect fill="#FFFFFF" height="59.3105" style="stroke:#181818;stroke-width:1.0;" width="10" x="1112.5" y="581.082"/><rect fill="#FFFFFF" height="30" style="stroke:#181818;stroke-width:1.0;" width="10" x="1200.5" y="610.3926"/><rect fill="#FFFFFF" height="30" style="stroke:#181818;stroke-width:1.0;" width="10" x="1322" y="779.9346"/><polygon fill="#181818" points="478.5,146.2871,488.5,150.2871,478.5,154.2871,482.5,150.2871" style="stroke:#181818;stroke-width:1.0;"/><line style="stroke:#181818;stroke-width:1.0;" x1="127.5" x2="484.5" y1="150.2871" y2="150.2871"/><text fill="#000000" font-family="sans-serif" font-size="13" lengthAdjust="spacing" textLength="344" x="134.5" y="145.5449">same_el_with_sp_el0_synchronous_exception_handler</text><line style="stroke:#181818;stroke-width:1.0;" x1="500.5" x2="547.5" y1="174.5977" y2="174.5977"/><line style="stroke:#181818;stroke-width:1.0;" x1="547.5" x2="547.5" y1="174.5977" y2="187.5977"/><line style="stroke:#181818;stroke-width:1.0;" x1="506.5" x2="547.5" y1="187.5977" y2="187.5977"/><polygon fill="#181818" points="516.5,183.5977,506.5,187.5977,516.5,191.5977,512.5,187.5977" style="stroke:#181818;stroke-width:1.0;"/><text fill="#000000" font-family="sans-serif" font-size="13" lengthAdjust="spacing" textLength="195" x="512.5" y="169.8555">INTERRUPT_HANDLER_PROLOG</text><line style="stroke:#181818;stroke-width:1.0;" x1="510.5" x2="552.5" y1="221.9082" y2="221.9082"/><line style="stroke:#181818;stroke-width:1.0;" x1="552.5" x2="552.5" y1="221.9082" y2="234.9082"/><line style="stroke:#181818;stroke-width:1.0;" x1="511.5" x2="552.5" y1="234.9082" y2="234.9082"/><polygon fill="#181818" points="521.5,230.9082,511.5,234.9082,521.5,238.9082,517.5,234.9082" style="stroke:#181818;stroke-width:1.0;"/><text fill="#000000" font-family="sans-serif" font-size="13" lengthAdjust="spacing" textLength="116" x="517.5" y="217.166">save CPU registers</text><polygon fill="#181818" points="768.5,290.2188,778.5,294.2188,768.5,298.2188,772.5,294.2188" style="stroke:#181818;stroke-width:1.0;"/><line style="stroke:#181818;stroke-width:1.0;" x1="505.5" x2="774.5" y1="294.2188" y2="294.2188"/><text fill="#000000" font-family="sans-serif" font-size="13" lengthAdjust="spacing" textLength="182" x="512.5" y="289.4766">Ada_Enter_Interrupt_Context</text><polygon fill="#181818" points="768.5,349.5293,778.5,353.5293,768.5,357.5293,772.5,353.5293" style="stroke:#181818;stroke-width:1.0;"/><line style="stroke:#181818;stroke-width:1.0;" x1="500.5" x2="774.5" y1="353.5293" y2="353.5293"/><text fill="#000000" font-family="sans-serif" font-size="13" lengthAdjust="spacing" textLength="261" x="507.5" y="348.7871">Ada_Handle_EL1_Synchronous_Exception</text><path d="M687.5,368.5293 L749.5,368.5293 L749.5,375.8398 L739.5,385.8398 L687.5,385.8398 L687.5,368.5293 " fill="#EEEEEE" style="stroke:#000000;stroke-width:1.5;"/><rect fill="none" height="519.3711" style="stroke:#000000;stroke-width:1.5;" width="831.5" x="687.5" y="368.5293"/><text fill="#000000" font-family="sans-serif" font-size="13" font-weight="bold" lengthAdjust="spacing" textLength="17" x="702.5" y="382.0977">alt</text><text fill="#000000" font-family="sans-serif" font-size="11" font-weight="bold" lengthAdjust="spacing" textLength="226" x="764.5" y="381.1641">[data abort or prefetch abort exceptions]</text><line style="stroke:#181818;stroke-width:1.0;" x1="790.5" x2="837.5" y1="402.1504" y2="402.1504"/><line style="stroke:#181818;stroke-width:1.0;" x1="837.5" x2="837.5" y1="402.1504" y2="415.1504"/><line style="stroke:#181818;stroke-width:1.0;" x1="796.5" x2="837.5" y1="415.1504" y2="415.1504"/><polygon fill="#181818" points="806.5,411.1504,796.5,415.1504,806.5,419.1504,802.5,415.1504" style="stroke:#181818;stroke-width:1.0;"/><text fill="#000000" font-family="sans-serif" font-size="13" lengthAdjust="spacing" textLength="176" x="802.5" y="397.4082">Handle_El1_Error_Exception</text><line style="stroke:#181818;stroke-width:1.0;" x1="800.5" x2="842.5" y1="449.4609" y2="449.4609"/><line style="stroke:#181818;stroke-width:1.0;" x1="842.5" x2="842.5" y1="449.4609" y2="462.4609"/><line style="stroke:#181818;stroke-width:1.0;" x1="801.5" x2="842.5" y1="462.4609" y2="462.4609"/><polygon fill="#181818" points="811.5,458.4609,801.5,462.4609,811.5,466.4609,807.5,462.4609" style="stroke:#181818;stroke-width:1.0;"/><text fill="#000000" font-family="sans-serif" font-size="13" lengthAdjust="spacing" textLength="130" x="807.5" y="444.7188">Print_Exception_Info</text><polygon fill="#181818" points="979.5,517.7715,989.5,521.7715,979.5,525.7715,983.5,521.7715" style="stroke:#181818;stroke-width:1.0;"/><line style="stroke:#181818;stroke-width:1.0;" x1="795.5" x2="985.5" y1="521.7715" y2="521.7715"/><text fill="#000000" font-family="sans-serif" font-size="13" lengthAdjust="spacing" textLength="92" x="802.5" y="517.0293">Run_Debugger</text><polygon fill="#181818" points="1100.5,577.082,1110.5,581.082,1100.5,585.082,1104.5,581.082" style="stroke:#181818;stroke-width:1.0;"/><line style="stroke:#181818;stroke-width:1.0;" x1="795.5" x2="1106.5" y1="581.082" y2="581.082"/><text fill="#000000" font-family="sans-serif" font-size="13" lengthAdjust="spacing" textLength="88" x="802.5" y="576.3398">System_Crash</text><polygon fill="#181818" points="1188.5,606.3926,1198.5,610.3926,1188.5,614.3926,1192.5,610.3926" style="stroke:#181818;stroke-width:1.0;"/><line style="stroke:#181818;stroke-width:1.0;" x1="1122.5" x2="1194.5" y1="610.3926" y2="610.3926"/><text fill="#000000" font-family="sans-serif" font-size="13" lengthAdjust="spacing" textLength="59" x="1129.5" y="605.6504">Park_Cpu</text><line style="stroke:#000000;stroke-width:1.0;stroke-dasharray:2.0,2.0;" x1="687.5" x2="1519" y1="649.3926" y2="649.3926"/><text fill="#000000" font-family="sans-serif" font-size="11" font-weight="bold" lengthAdjust="spacing" textLength="328" x="692.5" y="660.0273">[breakpoint or watchpoint or break instruction exceptions]</text><line style="stroke:#181818;stroke-width:1.0;" x1="790.5" x2="837.5" y1="679.6582" y2="679.6582"/><line style="stroke:#181818;stroke-width:1.0;" x1="837.5" x2="837.5" y1="679.6582" y2="692.6582"/><line style="stroke:#181818;stroke-width:1.0;" x1="796.5" x2="837.5" y1="692.6582" y2="692.6582"/><polygon fill="#181818" points="806.5,688.6582,796.5,692.6582,806.5,696.6582,802.5,692.6582" style="stroke:#181818;stroke-width:1.0;"/><text fill="#000000" font-family="sans-serif" font-size="13" lengthAdjust="spacing" textLength="187" x="802.5" y="674.916">Handle_El1_Debug_Exception</text><line style="stroke:#181818;stroke-width:1.0;" x1="795.5" x2="842.5" y1="721.9688" y2="721.9688"/><line style="stroke:#181818;stroke-width:1.0;" x1="842.5" x2="842.5" y1="721.9688" y2="734.9688"/><line style="stroke:#181818;stroke-width:1.0;" x1="801.5" x2="842.5" y1="734.9688" y2="734.9688"/><polygon fill="#181818" points="811.5,730.9688,801.5,734.9688,811.5,738.9688,807.5,734.9688" style="stroke:#181818;stroke-width:1.0;"/><text fill="#000000" font-family="sans-serif" font-size="13" lengthAdjust="spacing" textLength="130" x="807.5" y="717.2266">Print_Exception_Info</text><polygon fill="#181818" points="1310,775.9346,1320,779.9346,1310,783.9346,1314,779.9346" style="stroke:#181818;stroke-width:1.0;"/><line style="stroke:#181818;stroke-width:1.0;" x1="1117.5" x2="1316" y1="779.9346" y2="779.9346"/><text fill="#000000" font-family="sans-serif" font-size="13" lengthAdjust="spacing" textLength="73" x="1124.5" y="775.1924">Log_Error_*</text><path d="M1337,752.9688 L1337,792.9688 L1514,792.9688 L1514,762.9688 L1504,752.9688 L1337,752.9688 " fill="#FEFFDD" style="stroke:#181818;stroke-width:0.5;"/><path d="M1504,752.9688 L1504,762.9688 L1514,762.9688 L1504,752.9688 " fill="#FEFFDD" style="stroke:#181818;stroke-width:0.5;"/><text fill="#000000" font-family="sans-serif" font-size="13" lengthAdjust="spacing" textLength="156" x="1343" y="770.5371">Print hardware exception</text><text fill="#000000" font-family="sans-serif" font-size="13" lengthAdjust="spacing" textLength="144" x="1343" y="785.8477">error message to UART</text><polygon fill="#181818" points="979.5,845.9004,989.5,849.9004,979.5,853.9004,983.5,849.9004" style="stroke:#181818;stroke-width:1.0;"/><line style="stroke:#181818;stroke-width:1.0;" x1="795.5" x2="985.5" y1="849.9004" y2="849.9004"/><text fill="#000000" font-family="sans-serif" font-size="13" lengthAdjust="spacing" textLength="92" x="802.5" y="845.1582">Run_Debugger</text><line style="stroke:#181818;stroke-width:1.0;" x1="500.5" x2="547.5" y1="911.2109" y2="911.2109"/><line style="stroke:#181818;stroke-width:1.0;" x1="547.5" x2="547.5" y1="911.2109" y2="924.2109"/><line style="stroke:#181818;stroke-width:1.0;" x1="506.5" x2="547.5" y1="924.2109" y2="924.2109"/><polygon fill="#181818" points="516.5,920.2109,506.5,924.2109,516.5,928.2109,512.5,924.2109" style="stroke:#181818;stroke-width:1.0;"/><text fill="#000000" font-family="sans-serif" font-size="13" lengthAdjust="spacing" textLength="188" x="512.5" y="906.4688">INTERRUPT_HANDLER_EPILOG</text><polygon fill="#181818" points="768.5,954.5215,778.5,958.5215,768.5,962.5215,772.5,958.5215" style="stroke:#181818;stroke-width:1.0;"/><line style="stroke:#181818;stroke-width:1.0;" x1="505.5" x2="774.5" y1="958.5215" y2="958.5215"/><text fill="#000000" font-family="sans-serif" font-size="13" lengthAdjust="spacing" textLength="174" x="512.5" y="953.7793">Ada_Exit_Interrupt_Context</text><line style="stroke:#181818;stroke-width:1.0;" x1="510.5" x2="552.5" y1="1017.832" y2="1017.832"/><line style="stroke:#181818;stroke-width:1.0;" x1="552.5" x2="552.5" y1="1017.832" y2="1030.832"/><line style="stroke:#181818;stroke-width:1.0;" x1="511.5" x2="552.5" y1="1030.832" y2="1030.832"/><polygon fill="#181818" points="521.5,1026.832,511.5,1030.832,521.5,1034.832,517.5,1030.832" style="stroke:#181818;stroke-width:1.0;"/><text fill="#000000" font-family="sans-serif" font-size="13" lengthAdjust="spacing" textLength="132" x="517.5" y="1013.0898">restore CPU registers</text><polygon fill="#181818" points="133.5,1086.1426,123.5,1090.1426,133.5,1094.1426,129.5,1090.1426" style="stroke:#181818;stroke-width:1.0;"/><line style="stroke:#181818;stroke-width:1.0;" x1="127.5" x2="494.5" y1="1090.1426" y2="1090.1426"/><text fill="#000000" font-family="sans-serif" font-size="13" lengthAdjust="spacing" textLength="24" x="139.5" y="1085.4004">eret</text><!--SRC=[vLV1Zjem4Btp5IEEbOgwrprKGcnKaD1k5E1icMH8h0rsP3iB-_UrGo0HE9Y8HQrQBjZupPitU9xZQAPpXCKdZpCfk2WLJAbCTbGY1FiO2yq47z1O2mb3rK9bHnGUKKCBOnzKeny9uCN0zvymP5oZb6MXIKPvaZEUah7QZXP3U0P5jqWm9pkcCw8AC_n1MfpaH7M8HMcpDX8xgItCwklExLCsUrq6KRGAbsGwVdsP1n49exVvsw-Q-NODzybGz0DX4gv0OigKmQc6jfU61BzIib4qcfqGqnfX1OyJIWAxGfhrYJ33lNOexsHo2lUXRwjny0KLLdCamVo9j6n76hVrhvFc6XAgAT2ra1gCLmk96zHnLlzoyaAh1Q2RsLF5iOByYGHI2dcXlNy5T-a9fTcFHeJfdequf-ulfaVpt5x00lCDcGhZneIyuBgiz4SbFqpImo5rHVTbl5UsF-IgwfLckR8g5v-6OaicaggiKsKDFr-tIMeYonaN9Q77OogayfrCYj8Hqz0s4GvOsxlTm3RAeRBVTcEk4DOIwNiXJFDPo-seyTjfLgq1uqhBChPT-JWFLflwRthmh6-guSZOHJFpx9-BAhFvge-XRuvmBam-oT9CEnRDfzBjk7-uqMZpm1QLeYc25h0QHqi757bIPRxQqvVLU7hR7_2Vd5azlMesmpmX1prY7t473CBPO-w0dWlLdka_S9-wxz-JgCmRnzzuU_MzjJoRCmBre6Vgsu1jb4V7Rm00]--></g></svg>