<?xml version="1.0" encoding="us-ascii" standalone="no"?><svg xmlns="http://www.w3.org/2000/svg" xmlns:xlink="http://www.w3.org/1999/xlink" contentStyleType="text/css" height="1123px" preserveAspectRatio="none" style="width:1612px;height:1123px;background:#FFFFFF;" version="1.1" viewBox="0 0 1612 1123" width="1612px" zoomAndPan="magnify"><defs/><g><text fill="#000000" font-family="sans-serif" font-size="14" font-weight="bold" lengthAdjust="spacing" textLength="182" x="714" y="28.5352">Timer Interrupt Handling</text><rect fill="#FFFFFF" height="802.2109" style="stroke:#181818;stroke-width:1.0;" width="10" x="681" y="214.9082"/><rect fill="#FFFFFF" height="136.6211" style="stroke:#181818;stroke-width:1.0;" width="10" x="686" y="252.2188"/><rect fill="#FFFFFF" height="28" style="stroke:#181818;stroke-width:1.0;" width="10" x="691" y="294.5293"/><rect fill="#FFFFFF" height="171.9316" style="stroke:#181818;stroke-width:1.0;" width="10" x="686" y="845.1875"/><rect fill="#FFFFFF" height="28" style="stroke:#181818;stroke-width:1.0;" width="10" x="691" y="946.8086"/><rect fill="#FFFFFF" height="30" style="stroke:#181818;stroke-width:1.0;" width="10" x="900" y="358.8398"/><rect fill="#FFFFFF" height="371.416" style="stroke:#181818;stroke-width:1.0;" width="10" x="900" y="418.1504"/><rect fill="#FFFFFF" height="30" style="stroke:#181818;stroke-width:1.0;" width="10" x="905" y="553.3584"/><rect fill="#FFFFFF" height="30" style="stroke:#181818;stroke-width:1.0;" width="10" x="905" y="711.9453"/><rect fill="#FFFFFF" height="30" style="stroke:#181818;stroke-width:1.0;" width="10" x="900" y="879.498"/><rect fill="#FFFFFF" height="342.1055" style="stroke:#181818;stroke-width:1.0;" width="10" x="1192" y="447.4609"/><rect fill="#FFFFFF" height="59.3105" style="stroke:#181818;stroke-width:1.0;" width="10" x="1375" y="623.3242"/><rect fill="#FFFFFF" height="30" style="stroke:#181818;stroke-width:1.0;" width="10" x="1555" y="652.6348"/><line style="stroke:#181818;stroke-width:0.5;stroke-dasharray:5.0,5.0;" x1="93" x2="93" y1="118.9766" y2="1042.1191"/><line style="stroke:#181818;stroke-width:0.5;stroke-dasharray:5.0,5.0;" x1="266" x2="266" y1="118.9766" y2="1042.1191"/><line style="stroke:#181818;stroke-width:0.5;stroke-dasharray:5.0,5.0;" x1="389" x2="389" y1="118.9766" y2="1042.1191"/><line style="stroke:#181818;stroke-width:0.5;stroke-dasharray:5.0,5.0;" x1="686" x2="686" y1="118.9766" y2="1042.1191"/><line style="stroke:#181818;stroke-width:0.5;stroke-dasharray:5.0,5.0;" x1="905" x2="905" y1="118.9766" y2="1042.1191"/><line style="stroke:#181818;stroke-width:0.5;stroke-dasharray:5.0,5.0;" x1="1197" x2="1197" y1="118.9766" y2="1042.1191"/><line style="stroke:#181818;stroke-width:0.5;stroke-dasharray:5.0,5.0;" x1="1380" x2="1380" y1="118.9766" y2="1042.1191"/><line style="stroke:#181818;stroke-width:0.5;stroke-dasharray:5.0,5.0;" x1="1560" x2="1560" y1="118.9766" y2="1042.1191"/><text fill="#000000" font-family="sans-serif" font-size="14" lengthAdjust="spacing" textLength="171" x="5" y="116.0234">Generic Timer perihperal</text><ellipse cx="93.5" cy="50.9883" fill="#E2E2F0" rx="8" ry="8" style="stroke:#181818;stroke-width:0.5;"/><path d="M93.5,58.9883 L93.5,85.9883 M80.5,66.9883 L106.5,66.9883 M93.5,85.9883 L80.5,100.9883 M93.5,85.9883 L106.5,100.9883 " fill="none" style="stroke:#181818;stroke-width:0.5;"/><text fill="#000000" font-family="sans-serif" font-size="14" lengthAdjust="spacing" textLength="171" x="5" y="1054.6543">Generic Timer perihperal</text><ellipse cx="93.5" cy="1066.1074" fill="#E2E2F0" rx="8" ry="8" style="stroke:#181818;stroke-width:0.5;"/><path d="M93.5,1074.1074 L93.5,1101.1074 M80.5,1082.1074 L106.5,1082.1074 M93.5,1101.1074 L80.5,1116.1074 M93.5,1101.1074 L106.5,1116.1074 " fill="none" style="stroke:#181818;stroke-width:0.5;"/><rect fill="#E2E2F0" height="46.9766" rx="2.5" ry="2.5" style="stroke:#181818;stroke-width:0.5;" width="149" x="192" y="71"/><text fill="#000000" font-family="sans-serif" font-size="14" lengthAdjust="spacing" textLength="55" x="239" y="91.5352">GIC 400</text><text fill="#000000" font-family="sans-serif" font-size="14" lengthAdjust="spacing" textLength="135" x="199" y="108.0234">Interrupt Controller</text><rect fill="#E2E2F0" height="46.9766" rx="2.5" ry="2.5" style="stroke:#181818;stroke-width:0.5;" width="149" x="192" y="1041.1191"/><text fill="#000000" font-family="sans-serif" font-size="14" lengthAdjust="spacing" textLength="55" x="239" y="1061.6543">GIC 400</text><text fill="#000000" font-family="sans-serif" font-size="14" lengthAdjust="spacing" textLength="135" x="199" y="1078.1426">Interrupt Controller</text><rect fill="#E2E2F0" height="30.4883" rx="2.5" ry="2.5" style="stroke:#181818;stroke-width:0.5;" width="76" x="351" y="87.4883"/><text fill="#000000" font-family="sans-serif" font-size="14" lengthAdjust="spacing" textLength="62" x="358" y="108.0234">CPU core</text><rect fill="#E2E2F0" height="30.4883" rx="2.5" ry="2.5" style="stroke:#181818;stroke-width:0.5;" width="76" x="351" y="1041.1191"/><text fill="#000000" font-family="sans-serif" font-size="14" lengthAdjust="spacing" textLength="62" x="358" y="1061.6543">CPU core</text><rect fill="#E2E2F0" height="30.4883" rx="2.5" ry="2.5" style="stroke:#181818;stroke-width:0.5;" width="192" x="590" y="87.4883"/><text fill="#000000" font-family="sans-serif" font-size="14" lengthAdjust="spacing" textLength="178" x="597" y="108.0234">interrupt_handling_Asm.S</text><rect fill="#E2E2F0" height="30.4883" rx="2.5" ry="2.5" style="stroke:#181818;stroke-width:0.5;" width="192" x="590" y="1041.1191"/><text fill="#000000" font-family="sans-serif" font-size="14" lengthAdjust="spacing" textLength="178" x="597" y="1061.6543">interrupt_handling_Asm.S</text><rect fill="#E2E2F0" height="30.4883" rx="2.5" ry="2.5" style="stroke:#181818;stroke-width:0.5;" width="176" x="817" y="87.4883"/><text fill="#000000" font-family="sans-serif" font-size="14" lengthAdjust="spacing" textLength="162" x="824" y="108.0234">CPU.Interrupt_Handling</text><rect fill="#E2E2F0" height="30.4883" rx="2.5" ry="2.5" style="stroke:#181818;stroke-width:0.5;" width="176" x="817" y="1041.1191"/><text fill="#000000" font-family="sans-serif" font-size="14" lengthAdjust="spacing" textLength="162" x="824" y="1061.6543">CPU.Interrupt_Handling</text><rect fill="#E2E2F0" height="30.4883" rx="2.5" ry="2.5" style="stroke:#181818;stroke-width:0.5;" width="200" x="1097" y="87.4883"/><text fill="#000000" font-family="sans-serif" font-size="14" lengthAdjust="spacing" textLength="186" x="1104" y="108.0234">Interrupt_Controller_Driver</text><rect fill="#E2E2F0" height="30.4883" rx="2.5" ry="2.5" style="stroke:#181818;stroke-width:0.5;" width="200" x="1097" y="1041.1191"/><text fill="#000000" font-family="sans-serif" font-size="14" lengthAdjust="spacing" textLength="186" x="1104" y="1061.6543">Interrupt_Controller_Driver</text><rect fill="#E2E2F0" height="30.4883" rx="2.5" ry="2.5" style="stroke:#181818;stroke-width:0.5;" width="102" x="1329" y="87.4883"/><text fill="#000000" font-family="sans-serif" font-size="14" lengthAdjust="spacing" textLength="88" x="1336" y="108.0234">Timer_Driver</text><rect fill="#E2E2F0" height="30.4883" rx="2.5" ry="2.5" style="stroke:#181818;stroke-width:0.5;" width="102" x="1329" y="1041.1191"/><text fill="#000000" font-family="sans-serif" font-size="14" lengthAdjust="spacing" textLength="88" x="1336" y="1061.6543">Timer_Driver</text><rect fill="#E2E2F0" height="30.4883" rx="2.5" ry="2.5" style="stroke:#181818;stroke-width:0.5;" width="92" x="1514" y="87.4883"/><text fill="#000000" font-family="sans-serif" font-size="14" lengthAdjust="spacing" textLength="78" x="1521" y="108.0234">Application</text><rect fill="#E2E2F0" height="30.4883" rx="2.5" ry="2.5" style="stroke:#181818;stroke-width:0.5;" width="92" x="1514" y="1041.1191"/><text fill="#000000" font-family="sans-serif" font-size="14" lengthAdjust="spacing" textLength="78" x="1521" y="1061.6543">Application</text><rect fill="#FFFFFF" height="802.2109" style="stroke:#181818;stroke-width:1.0;" width="10" x="681" y="214.9082"/><rect fill="#FFFFFF" height="136.6211" style="stroke:#181818;stroke-width:1.0;" width="10" x="686" y="252.2188"/><rect fill="#FFFFFF" height="28" style="stroke:#181818;stroke-width:1.0;" width="10" x="691" y="294.5293"/><rect fill="#FFFFFF" height="171.9316" style="stroke:#181818;stroke-width:1.0;" width="10" x="686" y="845.1875"/><rect fill="#FFFFFF" height="28" style="stroke:#181818;stroke-width:1.0;" width="10" x="691" y="946.8086"/><rect fill="#FFFFFF" height="30" style="stroke:#181818;stroke-width:1.0;" width="10" x="900" y="358.8398"/><rect fill="#FFFFFF" height="371.416" style="stroke:#181818;stroke-width:1.0;" width="10" x="900" y="418.1504"/><rect fill="#FFFFFF" height="30" style="stroke:#181818;stroke-width:1.0;" width="10" x="905" y="553.3584"/><rect fill="#FFFFFF" height="30" style="stroke:#181818;stroke-width:1.0;" width="10" x="905" y="711.9453"/><rect fill="#FFFFFF" height="30" style="stroke:#181818;stroke-width:1.0;" width="10" x="900" y="879.498"/><rect fill="#FFFFFF" height="342.1055" style="stroke:#181818;stroke-width:1.0;" width="10" x="1192" y="447.4609"/><rect fill="#FFFFFF" height="59.3105" style="stroke:#181818;stroke-width:1.0;" width="10" x="1375" y="623.3242"/><rect fill="#FFFFFF" height="30" style="stroke:#181818;stroke-width:1.0;" width="10" x="1555" y="652.6348"/><polygon fill="#181818" points="254.5,149.2871,264.5,153.2871,254.5,157.2871,258.5,153.2871" style="stroke:#181818;stroke-width:1.0;"/><line style="stroke:#181818;stroke-width:1.0;" x1="93.5" x2="260.5" y1="153.2871" y2="153.2871"/><text fill="#000000" font-family="sans-serif" font-size="13" lengthAdjust="spacing" textLength="77" x="100.5" y="148.5449">PPI interrupt</text><path d="M271,133.9766 L271,158.9766 L459,158.9766 L459,143.9766 L449,133.9766 L271,133.9766 " fill="#FEFFDD" style="stroke:#181818;stroke-width:0.5;"/><path d="M449,133.9766 L449,143.9766 L459,143.9766 L449,133.9766 " fill="#FEFFDD" style="stroke:#181818;stroke-width:0.5;"/><text fill="#000000" font-family="sans-serif" font-size="13" lengthAdjust="spacing" textLength="167" x="277" y="151.5449">Private Peripheral Interrupt</text><polygon fill="#181818" points="377,181.5977,387,185.5977,377,189.5977,381,185.5977" style="stroke:#181818;stroke-width:1.0;"/><line style="stroke:#181818;stroke-width:1.0;" x1="266.5" x2="383" y1="185.5977" y2="185.5977"/><text fill="#000000" font-family="sans-serif" font-size="13" lengthAdjust="spacing" textLength="81" x="273.5" y="180.8555">IRQ interrupt</text><polygon fill="#181818" points="669,210.9082,679,214.9082,669,218.9082,673,214.9082" style="stroke:#181818;stroke-width:1.0;"/><line style="stroke:#181818;stroke-width:1.0;" x1="389" x2="675" y1="214.9082" y2="214.9082"/><text fill="#000000" font-family="sans-serif" font-size="13" lengthAdjust="spacing" textLength="273" x="396" y="210.166">same_el_with_sp_el0_irq_interrupt_handler</text><line style="stroke:#181818;stroke-width:1.0;" x1="691" x2="738" y1="239.2188" y2="239.2188"/><line style="stroke:#181818;stroke-width:1.0;" x1="738" x2="738" y1="239.2188" y2="252.2188"/><line style="stroke:#181818;stroke-width:1.0;" x1="697" x2="738" y1="252.2188" y2="252.2188"/><polygon fill="#181818" points="707,248.2188,697,252.2188,707,256.2188,703,252.2188" style="stroke:#181818;stroke-width:1.0;"/><text fill="#000000" font-family="sans-serif" font-size="13" lengthAdjust="spacing" textLength="195" x="703" y="234.4766">INTERRUPT_HANDLER_PROLOG</text><line style="stroke:#181818;stroke-width:1.0;" x1="701" x2="743" y1="286.5293" y2="286.5293"/><line style="stroke:#181818;stroke-width:1.0;" x1="743" x2="743" y1="286.5293" y2="299.5293"/><line style="stroke:#181818;stroke-width:1.0;" x1="702" x2="743" y1="299.5293" y2="299.5293"/><polygon fill="#181818" points="712,295.5293,702,299.5293,712,303.5293,708,299.5293" style="stroke:#181818;stroke-width:1.0;"/><text fill="#000000" font-family="sans-serif" font-size="13" lengthAdjust="spacing" textLength="116" x="708" y="281.7871">save CPU registers</text><polygon fill="#181818" points="888,354.8398,898,358.8398,888,362.8398,892,358.8398" style="stroke:#181818;stroke-width:1.0;"/><line style="stroke:#181818;stroke-width:1.0;" x1="696" x2="894" y1="358.8398" y2="358.8398"/><text fill="#000000" font-family="sans-serif" font-size="13" lengthAdjust="spacing" textLength="182" x="703" y="354.0977">Ada_Enter_Interrupt_Context</text><polygon fill="#181818" points="888,414.1504,898,418.1504,888,422.1504,892,418.1504" style="stroke:#181818;stroke-width:1.0;"/><line style="stroke:#181818;stroke-width:1.0;" x1="691" x2="894" y1="418.1504" y2="418.1504"/><text fill="#000000" font-family="sans-serif" font-size="13" lengthAdjust="spacing" textLength="190" x="698" y="413.4082">Ada_Handle_EL1_Irq_Interrupt</text><polygon fill="#181818" points="1180,443.4609,1190,447.4609,1180,451.4609,1184,447.4609" style="stroke:#181818;stroke-width:1.0;"/><line style="stroke:#181818;stroke-width:1.0;" x1="910" x2="1186" y1="447.4609" y2="447.4609"/><text fill="#000000" font-family="sans-serif" font-size="13" lengthAdjust="spacing" textLength="263" x="917" y="442.7188">GIC_Interrupt_Handler (Cpu_Interrupt_Irq)</text><polygon fill="#181818" points="277.5,491.082,267.5,495.082,277.5,499.082,273.5,495.082" style="stroke:#181818;stroke-width:1.0;"/><line style="stroke:#181818;stroke-width:1.0;" x1="271.5" x2="1191" y1="495.082" y2="495.082"/><text fill="#000000" font-family="sans-serif" font-size="13" lengthAdjust="spacing" textLength="171" x="283.5" y="490.3398">Read GICC.ICC_IAR register</text><path d="M1207,460.4609 L1207,515.4609 L1457,515.4609 L1457,470.4609 L1447,460.4609 L1207,460.4609 " fill="#FEFFDD" style="stroke:#181818;stroke-width:0.5;"/><path d="M1447,460.4609 L1447,470.4609 L1457,470.4609 L1447,460.4609 " fill="#FEFFDD" style="stroke:#181818;stroke-width:0.5;"/><text fill="#000000" font-family="sans-serif" font-size="13" lengthAdjust="spacing" textLength="225" x="1213" y="478.0293">Notifiy the interrutpt controller that</text><text fill="#000000" font-family="sans-serif" font-size="13" lengthAdjust="spacing" textLength="229" x="1213" y="493.3398">handling of the interrupt has started</text><text fill="#000000" font-family="sans-serif" font-size="13" lengthAdjust="spacing" textLength="183" x="1213" y="508.6504">(Interrupt Acknowledgement)</text><polygon fill="#181818" points="926,549.3584,916,553.3584,926,557.3584,922,553.3584" style="stroke:#181818;stroke-width:1.0;"/><line style="stroke:#181818;stroke-width:1.0;" x1="920" x2="1191" y1="553.3584" y2="553.3584"/><text fill="#000000" font-family="sans-serif" font-size="13" lengthAdjust="spacing" textLength="155" x="932" y="548.6162">Enable_Cpu_Interrupting</text><path d="M1207,526.3926 L1207,566.3926 L1421,566.3926 L1421,536.3926 L1411,526.3926 L1207,526.3926 " fill="#FEFFDD" style="stroke:#181818;stroke-width:0.5;"/><path d="M1411,526.3926 L1411,536.3926 L1421,536.3926 L1411,526.3926 " fill="#FEFFDD" style="stroke:#181818;stroke-width:0.5;"/><text fill="#000000" font-family="sans-serif" font-size="13" lengthAdjust="spacing" textLength="193" x="1213" y="543.9609">Enable interrupts at the CPU to</text><text fill="#000000" font-family="sans-serif" font-size="13" lengthAdjust="spacing" textLength="161" x="1213" y="559.2715">support nested interrupts</text><polygon fill="#181818" points="1363,619.3242,1373,623.3242,1363,627.3242,1367,623.3242" style="stroke:#181818;stroke-width:1.0;"/><line style="stroke:#181818;stroke-width:1.0;" x1="1202" x2="1369" y1="623.3242" y2="623.3242"/><text fill="#000000" font-family="sans-serif" font-size="13" lengthAdjust="spacing" textLength="154" x="1209" y="618.582">Timer_Interrupt_Handler</text><polygon fill="#181818" points="1543,648.6348,1553,652.6348,1543,656.6348,1547,652.6348" style="stroke:#181818;stroke-width:1.0;"/><line style="stroke:#181818;stroke-width:1.0;" x1="1385" x2="1549" y1="652.6348" y2="652.6348"/><text fill="#000000" font-family="sans-serif" font-size="13" lengthAdjust="spacing" textLength="151" x="1392" y="647.8926">Timer interrupt callback</text><polygon fill="#181818" points="926,707.9453,916,711.9453,926,715.9453,922,711.9453" style="stroke:#181818;stroke-width:1.0;"/><line style="stroke:#181818;stroke-width:1.0;" x1="920" x2="1191" y1="711.9453" y2="711.9453"/><text fill="#000000" font-family="sans-serif" font-size="13" lengthAdjust="spacing" textLength="161" x="932" y="707.2031">Disable_Cpu_Interrupting</text><polygon fill="#181818" points="277.5,785.5664,267.5,789.5664,277.5,793.5664,273.5,789.5664" style="stroke:#181818;stroke-width:1.0;"/><line style="stroke:#181818;stroke-width:1.0;" x1="271.5" x2="1196" y1="789.5664" y2="789.5664"/><text fill="#000000" font-family="sans-serif" font-size="13" lengthAdjust="spacing" textLength="181" x="283.5" y="784.8242">Write GICC.ICC_EOIR register</text><path d="M1207,754.9453 L1207,809.9453 L1503,809.9453 L1503,764.9453 L1493,754.9453 L1207,754.9453 " fill="#FEFFDD" style="stroke:#181818;stroke-width:0.5;"/><path d="M1493,754.9453 L1493,764.9453 L1503,764.9453 L1493,754.9453 " fill="#FEFFDD" style="stroke:#181818;stroke-width:0.5;"/><text fill="#000000" font-family="sans-serif" font-size="13" lengthAdjust="spacing" textLength="275" x="1213" y="772.5137">Notify the interrupt controller that handling</text><text fill="#000000" font-family="sans-serif" font-size="13" lengthAdjust="spacing" textLength="235" x="1213" y="787.8242">for the interrupt has been completed.</text><text fill="#000000" font-family="sans-serif" font-size="13" lengthAdjust="spacing" textLength="107" x="1213" y="803.1348">(End of Interrupt)</text><line style="stroke:#181818;stroke-width:1.0;" x1="691" x2="738" y1="832.1875" y2="832.1875"/><line style="stroke:#181818;stroke-width:1.0;" x1="738" x2="738" y1="832.1875" y2="845.1875"/><line style="stroke:#181818;stroke-width:1.0;" x1="697" x2="738" y1="845.1875" y2="845.1875"/><polygon fill="#181818" points="707,841.1875,697,845.1875,707,849.1875,703,845.1875" style="stroke:#181818;stroke-width:1.0;"/><text fill="#000000" font-family="sans-serif" font-size="13" lengthAdjust="spacing" textLength="188" x="703" y="827.4453">INTERRUPT_HANDLER_EPILOG</text><polygon fill="#181818" points="888,875.498,898,879.498,888,883.498,892,879.498" style="stroke:#181818;stroke-width:1.0;"/><line style="stroke:#181818;stroke-width:1.0;" x1="696" x2="894" y1="879.498" y2="879.498"/><text fill="#000000" font-family="sans-serif" font-size="13" lengthAdjust="spacing" textLength="174" x="703" y="874.7559">Ada_Exit_Interrupt_Context</text><line style="stroke:#181818;stroke-width:1.0;" x1="701" x2="743" y1="938.8086" y2="938.8086"/><line style="stroke:#181818;stroke-width:1.0;" x1="743" x2="743" y1="938.8086" y2="951.8086"/><line style="stroke:#181818;stroke-width:1.0;" x1="702" x2="743" y1="951.8086" y2="951.8086"/><polygon fill="#181818" points="712,947.8086,702,951.8086,712,955.8086,708,951.8086" style="stroke:#181818;stroke-width:1.0;"/><text fill="#000000" font-family="sans-serif" font-size="13" lengthAdjust="spacing" textLength="132" x="708" y="934.0664">restore CPU registers</text><line style="stroke:#181818;stroke-width:1.0;" x1="696" x2="738" y1="1016.1191" y2="1016.1191"/><line style="stroke:#181818;stroke-width:1.0;" x1="738" x2="738" y1="1016.1191" y2="1029.1191"/><line style="stroke:#181818;stroke-width:1.0;" x1="691" x2="738" y1="1029.1191" y2="1029.1191"/><polygon fill="#181818" points="701,1025.1191,691,1029.1191,701,1033.1191,697,1029.1191" style="stroke:#181818;stroke-width:1.0;"/><text fill="#000000" font-family="sans-serif" font-size="13" lengthAdjust="spacing" textLength="24" x="703" y="1011.377">eret</text><path d="M746,998.3086 L746,1023.3086 L941,1023.3086 L941,1008.3086 L931,998.3086 L746,998.3086 " fill="#FEFFDD" style="stroke:#181818;stroke-width:0.5;"/><path d="M931,998.3086 L931,1008.3086 L941,1008.3086 L931,998.3086 " fill="#FEFFDD" style="stroke:#181818;stroke-width:0.5;"/><text fill="#000000" font-family="sans-serif" font-size="13" lengthAdjust="spacing" textLength="174" x="752" y="1015.877">Return to interrupted codde</text><!--SRC=[pLPBRwCm4BxpAwoSsiD6gRIdFQo44jGYHGdBfjhBIfO3as2LsAnn-lZtEyu3R3OKicdL7X81diStusy-MtET0rdm3IWI2WrARGjDxfX8SoxM7akqL6Hm2m8KJmvs1Jvd-CVoWTU-HBvyHyTmJBwEHhz57NiiXLOopq4Do3SIHI7XnpLFI0r4yNMclKZnHuPl4KOiCXEnnkU1I8cnzReI60pZw9uaKe595yO_h7I4sAl6jbgZsQ45r2ytmv_6jsGRe93J9wupMXRuEA9S_Q4D7r0cBZPkZxyzf34p2DfpTY4APuiWZk-Z1RtpPvDf4DCeda_djuV8_J5S1gDaZq1C7nMiUObsPHtsB0mfl2LaH3IiM46Fb3Q0_PJHmApGUjsm1fxr2UIjaKu2xxBkLwFt1XNkte46qniQ8ar3c_PdrjUQoQ1mUxYVF3h1yTrFE4ueRRYYK5oDYwtr6G5UdspzQy5h1z9XsK-BOc2fWJiUue-6VbmHsibaYPJzUIOrN_4NeZCuIep654cL0bUOwtBSKo9NjXjwPQmafMPAG-fuNDNO_UH1oASSqZLiGEXhnwuIoFDQr4weGB0baidPDND0z6ZCthKkhYHCxyerag6bOrjkYq8gJGHWsrFBfxkwS_XytiZsxTxk2BIOlt__X_jjg1rtnuWqLtVf_AB8US8qbwBAPb4eONc-PCb3CvALqOxGD7FwqsheMBKNS0dp9hpifjx7RtwdklnI7DDLyXBCm__GbvU6JZJKfL8KntCbrGbvMG88zDyKEU2e3LsP2N32K9IgMhhKnMbe3ytkjG7lSK4Ael1zBaWTjurdhZ_Wid5PznIACDwCF-7LxZNKeC1gRCimnQ2tIk3fKmy57ZU9J5EBr0sQzowXb-5V]--></g></svg>