<?xml version="1.0" encoding="us-ascii" standalone="no"?><svg xmlns="http://www.w3.org/2000/svg" xmlns:xlink="http://www.w3.org/1999/xlink" contentStyleType="text/css" height="1138px" preserveAspectRatio="none" style="width:1554px;height:1138px;background:#FFFFFF;" version="1.1" viewBox="0 0 1554 1138" width="1554px" zoomAndPan="magnify"><defs/><g><text fill="#000000" font-family="sans-serif" font-size="14" font-weight="bold" lengthAdjust="spacing" textLength="202" x="675" y="28.5352">UART Rx Interrupt Handling</text><rect fill="#FFFFFF" height="802.2109" style="stroke:#181818;stroke-width:1.0;" width="10" x="623" y="230.2188"/><rect fill="#FFFFFF" height="136.6211" style="stroke:#181818;stroke-width:1.0;" width="10" x="628" y="267.5293"/><rect fill="#FFFFFF" height="28" style="stroke:#181818;stroke-width:1.0;" width="10" x="633" y="309.8398"/><rect fill="#FFFFFF" height="171.9316" style="stroke:#181818;stroke-width:1.0;" width="10" x="628" y="860.498"/><rect fill="#FFFFFF" height="28" style="stroke:#181818;stroke-width:1.0;" width="10" x="633" y="962.1191"/><rect fill="#FFFFFF" height="30" style="stroke:#181818;stroke-width:1.0;" width="10" x="842" y="374.1504"/><rect fill="#FFFFFF" height="371.416" style="stroke:#181818;stroke-width:1.0;" width="10" x="842" y="433.4609"/><rect fill="#FFFFFF" height="30" style="stroke:#181818;stroke-width:1.0;" width="10" x="847" y="568.6689"/><rect fill="#FFFFFF" height="30" style="stroke:#181818;stroke-width:1.0;" width="10" x="847" y="727.2559"/><rect fill="#FFFFFF" height="30" style="stroke:#181818;stroke-width:1.0;" width="10" x="842" y="894.8086"/><rect fill="#FFFFFF" height="342.1055" style="stroke:#181818;stroke-width:1.0;" width="10" x="1134" y="462.7715"/><rect fill="#FFFFFF" height="59.3105" style="stroke:#181818;stroke-width:1.0;" width="10" x="1307" y="638.6348"/><rect fill="#FFFFFF" height="30" style="stroke:#181818;stroke-width:1.0;" width="10" x="1497" y="667.9453"/><line style="stroke:#181818;stroke-width:0.5;stroke-dasharray:5.0,5.0;" x1="64" x2="64" y1="118.9766" y2="1057.4297"/><line style="stroke:#181818;stroke-width:0.5;stroke-dasharray:5.0,5.0;" x1="208" x2="208" y1="118.9766" y2="1057.4297"/><line style="stroke:#181818;stroke-width:0.5;stroke-dasharray:5.0,5.0;" x1="331" x2="331" y1="118.9766" y2="1057.4297"/><line style="stroke:#181818;stroke-width:0.5;stroke-dasharray:5.0,5.0;" x1="628" x2="628" y1="118.9766" y2="1057.4297"/><line style="stroke:#181818;stroke-width:0.5;stroke-dasharray:5.0,5.0;" x1="847" x2="847" y1="118.9766" y2="1057.4297"/><line style="stroke:#181818;stroke-width:0.5;stroke-dasharray:5.0,5.0;" x1="1139" x2="1139" y1="118.9766" y2="1057.4297"/><line style="stroke:#181818;stroke-width:0.5;stroke-dasharray:5.0,5.0;" x1="1311.5" x2="1311.5" y1="118.9766" y2="1057.4297"/><line style="stroke:#181818;stroke-width:0.5;stroke-dasharray:5.0,5.0;" x1="1502" x2="1502" y1="118.9766" y2="1057.4297"/><text fill="#000000" font-family="sans-serif" font-size="14" lengthAdjust="spacing" textLength="113" x="5" y="116.0234">UART perihperal</text><ellipse cx="64.5" cy="50.9883" fill="#E2E2F0" rx="8" ry="8" style="stroke:#181818;stroke-width:0.5;"/><path d="M64.5,58.9883 L64.5,85.9883 M51.5,66.9883 L77.5,66.9883 M64.5,85.9883 L51.5,100.9883 M64.5,85.9883 L77.5,100.9883 " fill="none" style="stroke:#181818;stroke-width:0.5;"/><text fill="#000000" font-family="sans-serif" font-size="14" lengthAdjust="spacing" textLength="113" x="5" y="1069.9648">UART perihperal</text><ellipse cx="64.5" cy="1081.418" fill="#E2E2F0" rx="8" ry="8" style="stroke:#181818;stroke-width:0.5;"/><path d="M64.5,1089.418 L64.5,1116.418 M51.5,1097.418 L77.5,1097.418 M64.5,1116.418 L51.5,1131.418 M64.5,1116.418 L77.5,1131.418 " fill="none" style="stroke:#181818;stroke-width:0.5;"/><rect fill="#E2E2F0" height="46.9766" rx="2.5" ry="2.5" style="stroke:#181818;stroke-width:0.5;" width="149" x="134" y="71"/><text fill="#000000" font-family="sans-serif" font-size="14" lengthAdjust="spacing" textLength="55" x="181" y="91.5352">GIC 400</text><text fill="#000000" font-family="sans-serif" font-size="14" lengthAdjust="spacing" textLength="135" x="141" y="108.0234">Interrupt Controller</text><rect fill="#E2E2F0" height="46.9766" rx="2.5" ry="2.5" style="stroke:#181818;stroke-width:0.5;" width="149" x="134" y="1056.4297"/><text fill="#000000" font-family="sans-serif" font-size="14" lengthAdjust="spacing" textLength="55" x="181" y="1076.9648">GIC 400</text><text fill="#000000" font-family="sans-serif" font-size="14" lengthAdjust="spacing" textLength="135" x="141" y="1093.4531">Interrupt Controller</text><rect fill="#E2E2F0" height="30.4883" rx="2.5" ry="2.5" style="stroke:#181818;stroke-width:0.5;" width="76" x="293" y="87.4883"/><text fill="#000000" font-family="sans-serif" font-size="14" lengthAdjust="spacing" textLength="62" x="300" y="108.0234">CPU core</text><rect fill="#E2E2F0" height="30.4883" rx="2.5" ry="2.5" style="stroke:#181818;stroke-width:0.5;" width="76" x="293" y="1056.4297"/><text fill="#000000" font-family="sans-serif" font-size="14" lengthAdjust="spacing" textLength="62" x="300" y="1076.9648">CPU core</text><rect fill="#E2E2F0" height="30.4883" rx="2.5" ry="2.5" style="stroke:#181818;stroke-width:0.5;" width="192" x="532" y="87.4883"/><text fill="#000000" font-family="sans-serif" font-size="14" lengthAdjust="spacing" textLength="178" x="539" y="108.0234">interrupt_handling_Asm.S</text><rect fill="#E2E2F0" height="30.4883" rx="2.5" ry="2.5" style="stroke:#181818;stroke-width:0.5;" width="192" x="532" y="1056.4297"/><text fill="#000000" font-family="sans-serif" font-size="14" lengthAdjust="spacing" textLength="178" x="539" y="1076.9648">interrupt_handling_Asm.S</text><rect fill="#E2E2F0" height="30.4883" rx="2.5" ry="2.5" style="stroke:#181818;stroke-width:0.5;" width="176" x="759" y="87.4883"/><text fill="#000000" font-family="sans-serif" font-size="14" lengthAdjust="spacing" textLength="162" x="766" y="108.0234">CPU.Interrupt_Handling</text><rect fill="#E2E2F0" height="30.4883" rx="2.5" ry="2.5" style="stroke:#181818;stroke-width:0.5;" width="176" x="759" y="1056.4297"/><text fill="#000000" font-family="sans-serif" font-size="14" lengthAdjust="spacing" textLength="162" x="766" y="1076.9648">CPU.Interrupt_Handling</text><rect fill="#E2E2F0" height="30.4883" rx="2.5" ry="2.5" style="stroke:#181818;stroke-width:0.5;" width="200" x="1039" y="87.4883"/><text fill="#000000" font-family="sans-serif" font-size="14" lengthAdjust="spacing" textLength="186" x="1046" y="108.0234">Interrupt_Controller_Driver</text><rect fill="#E2E2F0" height="30.4883" rx="2.5" ry="2.5" style="stroke:#181818;stroke-width:0.5;" width="200" x="1039" y="1056.4297"/><text fill="#000000" font-family="sans-serif" font-size="14" lengthAdjust="spacing" textLength="186" x="1046" y="1076.9648">Interrupt_Controller_Driver</text><rect fill="#E2E2F0" height="30.4883" rx="2.5" ry="2.5" style="stroke:#181818;stroke-width:0.5;" width="91" x="1266.5" y="87.4883"/><text fill="#000000" font-family="sans-serif" font-size="14" lengthAdjust="spacing" textLength="77" x="1273.5" y="108.0234">Uart_Driver</text><rect fill="#E2E2F0" height="30.4883" rx="2.5" ry="2.5" style="stroke:#181818;stroke-width:0.5;" width="91" x="1266.5" y="1056.4297"/><text fill="#000000" font-family="sans-serif" font-size="14" lengthAdjust="spacing" textLength="77" x="1273.5" y="1076.9648">Uart_Driver</text><rect fill="#E2E2F0" height="30.4883" rx="2.5" ry="2.5" style="stroke:#181818;stroke-width:0.5;" width="92" x="1456" y="87.4883"/><text fill="#000000" font-family="sans-serif" font-size="14" lengthAdjust="spacing" textLength="78" x="1463" y="108.0234">Application</text><rect fill="#E2E2F0" height="30.4883" rx="2.5" ry="2.5" style="stroke:#181818;stroke-width:0.5;" width="92" x="1456" y="1056.4297"/><text fill="#000000" font-family="sans-serif" font-size="14" lengthAdjust="spacing" textLength="78" x="1463" y="1076.9648">Application</text><rect fill="#FFFFFF" height="802.2109" style="stroke:#181818;stroke-width:1.0;" width="10" x="623" y="230.2188"/><rect fill="#FFFFFF" height="136.6211" style="stroke:#181818;stroke-width:1.0;" width="10" x="628" y="267.5293"/><rect fill="#FFFFFF" height="28" style="stroke:#181818;stroke-width:1.0;" width="10" x="633" y="309.8398"/><rect fill="#FFFFFF" height="171.9316" style="stroke:#181818;stroke-width:1.0;" width="10" x="628" y="860.498"/><rect fill="#FFFFFF" height="28" style="stroke:#181818;stroke-width:1.0;" width="10" x="633" y="962.1191"/><rect fill="#FFFFFF" height="30" style="stroke:#181818;stroke-width:1.0;" width="10" x="842" y="374.1504"/><rect fill="#FFFFFF" height="371.416" style="stroke:#181818;stroke-width:1.0;" width="10" x="842" y="433.4609"/><rect fill="#FFFFFF" height="30" style="stroke:#181818;stroke-width:1.0;" width="10" x="847" y="568.6689"/><rect fill="#FFFFFF" height="30" style="stroke:#181818;stroke-width:1.0;" width="10" x="847" y="727.2559"/><rect fill="#FFFFFF" height="30" style="stroke:#181818;stroke-width:1.0;" width="10" x="842" y="894.8086"/><rect fill="#FFFFFF" height="342.1055" style="stroke:#181818;stroke-width:1.0;" width="10" x="1134" y="462.7715"/><rect fill="#FFFFFF" height="59.3105" style="stroke:#181818;stroke-width:1.0;" width="10" x="1307" y="638.6348"/><rect fill="#FFFFFF" height="30" style="stroke:#181818;stroke-width:1.0;" width="10" x="1497" y="667.9453"/><polygon fill="#181818" points="196.5,156.9424,206.5,160.9424,196.5,164.9424,200.5,160.9424" style="stroke:#181818;stroke-width:1.0;"/><line style="stroke:#181818;stroke-width:1.0;" x1="64.5" x2="202.5" y1="160.9424" y2="160.9424"/><text fill="#000000" font-family="sans-serif" font-size="13" lengthAdjust="spacing" textLength="77" x="71.5" y="156.2002">SPI interrupt</text><path d="M213,133.9766 L213,173.9766 L442,173.9766 L442,143.9766 L432,133.9766 L213,133.9766 " fill="#FEFFDD" style="stroke:#181818;stroke-width:0.5;"/><path d="M432,133.9766 L432,143.9766 L442,143.9766 L432,133.9766 " fill="#FEFFDD" style="stroke:#181818;stroke-width:0.5;"/><text fill="#000000" font-family="sans-serif" font-size="13" lengthAdjust="spacing" textLength="167" x="219" y="151.5449">Shared Peripheral Interrupt</text><text fill="#000000" font-family="sans-serif" font-size="13" lengthAdjust="spacing" textLength="208" x="219" y="166.8555">(routed to configured target CPU)</text><polygon fill="#181818" points="319,196.9082,329,200.9082,319,204.9082,323,200.9082" style="stroke:#181818;stroke-width:1.0;"/><line style="stroke:#181818;stroke-width:1.0;" x1="208.5" x2="325" y1="200.9082" y2="200.9082"/><text fill="#000000" font-family="sans-serif" font-size="13" lengthAdjust="spacing" textLength="81" x="215.5" y="196.166">IRQ interrupt</text><polygon fill="#181818" points="611,226.2188,621,230.2188,611,234.2188,615,230.2188" style="stroke:#181818;stroke-width:1.0;"/><line style="stroke:#181818;stroke-width:1.0;" x1="331" x2="617" y1="230.2188" y2="230.2188"/><text fill="#000000" font-family="sans-serif" font-size="13" lengthAdjust="spacing" textLength="273" x="338" y="225.4766">same_el_with_sp_el0_irq_interrupt_handler</text><line style="stroke:#181818;stroke-width:1.0;" x1="633" x2="680" y1="254.5293" y2="254.5293"/><line style="stroke:#181818;stroke-width:1.0;" x1="680" x2="680" y1="254.5293" y2="267.5293"/><line style="stroke:#181818;stroke-width:1.0;" x1="639" x2="680" y1="267.5293" y2="267.5293"/><polygon fill="#181818" points="649,263.5293,639,267.5293,649,271.5293,645,267.5293" style="stroke:#181818;stroke-width:1.0;"/><text fill="#000000" font-family="sans-serif" font-size="13" lengthAdjust="spacing" textLength="195" x="645" y="249.7871">INTERRUPT_HANDLER_PROLOG</text><line style="stroke:#181818;stroke-width:1.0;" x1="643" x2="685" y1="301.8398" y2="301.8398"/><line style="stroke:#181818;stroke-width:1.0;" x1="685" x2="685" y1="301.8398" y2="314.8398"/><line style="stroke:#181818;stroke-width:1.0;" x1="644" x2="685" y1="314.8398" y2="314.8398"/><polygon fill="#181818" points="654,310.8398,644,314.8398,654,318.8398,650,314.8398" style="stroke:#181818;stroke-width:1.0;"/><text fill="#000000" font-family="sans-serif" font-size="13" lengthAdjust="spacing" textLength="116" x="650" y="297.0977">save CPU registers</text><polygon fill="#181818" points="830,370.1504,840,374.1504,830,378.1504,834,374.1504" style="stroke:#181818;stroke-width:1.0;"/><line style="stroke:#181818;stroke-width:1.0;" x1="638" x2="836" y1="374.1504" y2="374.1504"/><text fill="#000000" font-family="sans-serif" font-size="13" lengthAdjust="spacing" textLength="182" x="645" y="369.4082">Ada_Enter_Interrupt_Context</text><polygon fill="#181818" points="830,429.4609,840,433.4609,830,437.4609,834,433.4609" style="stroke:#181818;stroke-width:1.0;"/><line style="stroke:#181818;stroke-width:1.0;" x1="633" x2="836" y1="433.4609" y2="433.4609"/><text fill="#000000" font-family="sans-serif" font-size="13" lengthAdjust="spacing" textLength="190" x="640" y="428.7188">Ada_Handle_EL1_Irq_Interrupt</text><polygon fill="#181818" points="1122,458.7715,1132,462.7715,1122,466.7715,1126,462.7715" style="stroke:#181818;stroke-width:1.0;"/><line style="stroke:#181818;stroke-width:1.0;" x1="852" x2="1128" y1="462.7715" y2="462.7715"/><text fill="#000000" font-family="sans-serif" font-size="13" lengthAdjust="spacing" textLength="263" x="859" y="458.0293">GIC_Interrupt_Handler (Cpu_Interrupt_Irq)</text><polygon fill="#181818" points="219.5,506.3926,209.5,510.3926,219.5,514.3926,215.5,510.3926" style="stroke:#181818;stroke-width:1.0;"/><line style="stroke:#181818;stroke-width:1.0;" x1="213.5" x2="1133" y1="510.3926" y2="510.3926"/><text fill="#000000" font-family="sans-serif" font-size="13" lengthAdjust="spacing" textLength="171" x="225.5" y="505.6504">Read GICC.ICC_IAR register</text><path d="M1149,475.7715 L1149,530.7715 L1399,530.7715 L1399,485.7715 L1389,475.7715 L1149,475.7715 " fill="#FEFFDD" style="stroke:#181818;stroke-width:0.5;"/><path d="M1389,475.7715 L1389,485.7715 L1399,485.7715 L1389,475.7715 " fill="#FEFFDD" style="stroke:#181818;stroke-width:0.5;"/><text fill="#000000" font-family="sans-serif" font-size="13" lengthAdjust="spacing" textLength="225" x="1155" y="493.3398">Notifiy the interrutpt controller that</text><text fill="#000000" font-family="sans-serif" font-size="13" lengthAdjust="spacing" textLength="229" x="1155" y="508.6504">handling of the interrupt has started</text><text fill="#000000" font-family="sans-serif" font-size="13" lengthAdjust="spacing" textLength="183" x="1155" y="523.9609">(Interrupt Acknowledgement)</text><polygon fill="#181818" points="868,564.6689,858,568.6689,868,572.6689,864,568.6689" style="stroke:#181818;stroke-width:1.0;"/><line style="stroke:#181818;stroke-width:1.0;" x1="862" x2="1133" y1="568.6689" y2="568.6689"/><text fill="#000000" font-family="sans-serif" font-size="13" lengthAdjust="spacing" textLength="155" x="874" y="563.9268">Enable_Cpu_Interrupting</text><path d="M1149,541.7031 L1149,581.7031 L1363,581.7031 L1363,551.7031 L1353,541.7031 L1149,541.7031 " fill="#FEFFDD" style="stroke:#181818;stroke-width:0.5;"/><path d="M1353,541.7031 L1353,551.7031 L1363,551.7031 L1353,541.7031 " fill="#FEFFDD" style="stroke:#181818;stroke-width:0.5;"/><text fill="#000000" font-family="sans-serif" font-size="13" lengthAdjust="spacing" textLength="193" x="1155" y="559.2715">Enable interrupts at the CPU to</text><text fill="#000000" font-family="sans-serif" font-size="13" lengthAdjust="spacing" textLength="161" x="1155" y="574.582">support nested interrupts</text><polygon fill="#181818" points="1295,634.6348,1305,638.6348,1295,642.6348,1299,638.6348" style="stroke:#181818;stroke-width:1.0;"/><line style="stroke:#181818;stroke-width:1.0;" x1="1144" x2="1301" y1="638.6348" y2="638.6348"/><text fill="#000000" font-family="sans-serif" font-size="13" lengthAdjust="spacing" textLength="144" x="1151" y="633.8926">Uart_Interrupt_Handler</text><polygon fill="#181818" points="1485,663.9453,1495,667.9453,1485,671.9453,1489,667.9453" style="stroke:#181818;stroke-width:1.0;"/><line style="stroke:#181818;stroke-width:1.0;" x1="1317" x2="1491" y1="667.9453" y2="667.9453"/><text fill="#000000" font-family="sans-serif" font-size="13" lengthAdjust="spacing" textLength="161" x="1324" y="663.2031">Uart Rx interrupt callback</text><polygon fill="#181818" points="868,723.2559,858,727.2559,868,731.2559,864,727.2559" style="stroke:#181818;stroke-width:1.0;"/><line style="stroke:#181818;stroke-width:1.0;" x1="862" x2="1133" y1="727.2559" y2="727.2559"/><text fill="#000000" font-family="sans-serif" font-size="13" lengthAdjust="spacing" textLength="161" x="874" y="722.5137">Disable_Cpu_Interrupting</text><polygon fill="#181818" points="219.5,800.877,209.5,804.877,219.5,808.877,215.5,804.877" style="stroke:#181818;stroke-width:1.0;"/><line style="stroke:#181818;stroke-width:1.0;" x1="213.5" x2="1138" y1="804.877" y2="804.877"/><text fill="#000000" font-family="sans-serif" font-size="13" lengthAdjust="spacing" textLength="181" x="225.5" y="800.1348">Write GICC.ICC_EOIR register</text><path d="M1149,770.2559 L1149,825.2559 L1445,825.2559 L1445,780.2559 L1435,770.2559 L1149,770.2559 " fill="#FEFFDD" style="stroke:#181818;stroke-width:0.5;"/><path d="M1435,770.2559 L1435,780.2559 L1445,780.2559 L1435,770.2559 " fill="#FEFFDD" style="stroke:#181818;stroke-width:0.5;"/><text fill="#000000" font-family="sans-serif" font-size="13" lengthAdjust="spacing" textLength="275" x="1155" y="787.8242">Notify the interrupt controller that handling</text><text fill="#000000" font-family="sans-serif" font-size="13" lengthAdjust="spacing" textLength="235" x="1155" y="803.1348">for the interrupt has been completed.</text><text fill="#000000" font-family="sans-serif" font-size="13" lengthAdjust="spacing" textLength="107" x="1155" y="818.4453">(End of Interrupt)</text><line style="stroke:#181818;stroke-width:1.0;" x1="633" x2="680" y1="847.498" y2="847.498"/><line style="stroke:#181818;stroke-width:1.0;" x1="680" x2="680" y1="847.498" y2="860.498"/><line style="stroke:#181818;stroke-width:1.0;" x1="639" x2="680" y1="860.498" y2="860.498"/><polygon fill="#181818" points="649,856.498,639,860.498,649,864.498,645,860.498" style="stroke:#181818;stroke-width:1.0;"/><text fill="#000000" font-family="sans-serif" font-size="13" lengthAdjust="spacing" textLength="188" x="645" y="842.7559">INTERRUPT_HANDLER_EPILOG</text><polygon fill="#181818" points="830,890.8086,840,894.8086,830,898.8086,834,894.8086" style="stroke:#181818;stroke-width:1.0;"/><line style="stroke:#181818;stroke-width:1.0;" x1="638" x2="836" y1="894.8086" y2="894.8086"/><text fill="#000000" font-family="sans-serif" font-size="13" lengthAdjust="spacing" textLength="174" x="645" y="890.0664">Ada_Exit_Interrupt_Context</text><line style="stroke:#181818;stroke-width:1.0;" x1="643" x2="685" y1="954.1191" y2="954.1191"/><line style="stroke:#181818;stroke-width:1.0;" x1="685" x2="685" y1="954.1191" y2="967.1191"/><line style="stroke:#181818;stroke-width:1.0;" x1="644" x2="685" y1="967.1191" y2="967.1191"/><polygon fill="#181818" points="654,963.1191,644,967.1191,654,971.1191,650,967.1191" style="stroke:#181818;stroke-width:1.0;"/><text fill="#000000" font-family="sans-serif" font-size="13" lengthAdjust="spacing" textLength="132" x="650" y="949.377">restore CPU registers</text><line style="stroke:#181818;stroke-width:1.0;" x1="638" x2="680" y1="1031.4297" y2="1031.4297"/><line style="stroke:#181818;stroke-width:1.0;" x1="680" x2="680" y1="1031.4297" y2="1044.4297"/><line style="stroke:#181818;stroke-width:1.0;" x1="633" x2="680" y1="1044.4297" y2="1044.4297"/><polygon fill="#181818" points="643,1040.4297,633,1044.4297,643,1048.4297,639,1044.4297" style="stroke:#181818;stroke-width:1.0;"/><text fill="#000000" font-family="sans-serif" font-size="13" lengthAdjust="spacing" textLength="24" x="645" y="1026.6875">eret</text><path d="M688,1013.6191 L688,1038.6191 L883,1038.6191 L883,1023.6191 L873,1013.6191 L688,1013.6191 " fill="#FEFFDD" style="stroke:#181818;stroke-width:0.5;"/><path d="M873,1013.6191 L873,1023.6191 L883,1023.6191 L873,1013.6191 " fill="#FEFFDD" style="stroke:#181818;stroke-width:0.5;"/><text fill="#000000" font-family="sans-serif" font-size="13" lengthAdjust="spacing" textLength="174" x="694" y="1031.1875">Return to interrupted codde</text><!--SRC=[pLTDR-8m4BtdLumujOT5NMbFUrWfeb4R2RLiMhINbIoJ3CHgiBEEwSU_tp4jYPsI9YojkWSGoNoz6Jy_6oDCWJ0Farj87Y6M1hNUb0OkkSmA8LS1JutICDfwbAX5Jb-y60Mlti2N7p2wY2VmxUpijsmoJPGqMXK5wX5yXvjP369d2wGo25giSXFSv5nZ1ZDAMEOsOGCcED5gOyXe5AHABiLgOrqDroka_BFvQO0o0viiw4DWGL84vT5eySJ9JmSFW6krlhMDvIyJOM6r7j_Os8glaM717eJ9MLNIppCcz1_MYa5jyz8SnJsdThjJMZUBeBjc7wBuwZPAaldibbs6L-VJA66pv7fwVV6IUJY6us1K_1xjke36bQZ8hshI7eGXm_U4J8Z6DIlOZk4MS9Xn5baBQ-oMDVXezY3lpBGNU9_ti1w3T-Xm-umicdvbCT4qTcb_O7-TbImAVuRFEu-TQt7_B06qGrah53MSJCgDyve0dkuT_Ll9cm3eyHmcLWdopCATZEd3uZ2f2UrLSbJCVNsbZ5YA9p0vxYJ6K8cqBa4MxeVirXJKqWsZg9nNK97YaGnw4ISDzZ2za-gXm6o5QvJcrFEh1VAm4NKJAf9yGMJoLisU5mC6ynpQD5S1DzjshMGOvVbMcx9Kse34ofu0JKn_TuVm-R0jEtHwSrelX_ZRnrVCxyBi1di-q39kIuLbMOYK6w7ahfGzq1i2fRme5ZozQwToAhevscxUT3eTFQ_E1ewXtRce-ddt-IlVAos_jA1ojRP4r_4_YCjJIoHQqbBBYHUvL7gFjYmG9SMlom9fdurzZObeUv4YrRtqIOitq062FMW1Fk9s5CtYZxaTzLmr7eNvX9l6STFJfC1qBVuFxtLleKQDpc0xDbE2PgEb_NjHfwAp9bLPvf2wHVF1BGno_0i0]--></g></svg>