<?xml version="1.0" encoding="us-ascii" standalone="no"?><svg xmlns="http://www.w3.org/2000/svg" xmlns:xlink="http://www.w3.org/1999/xlink" contentStyleType="text/css" height="528px" preserveAspectRatio="none" style="width:1203px;height:528px;background:#FFFFFF;" version="1.1" viewBox="0 0 1203 528" width="1203px" zoomAndPan="magnify"><defs/><g><rect fill="#FFFFFF" height="310.1738" style="stroke:#181818;stroke-width:1.0;" width="10" x="283" y="112.7988"/><rect fill="#FFFFFF" height="280.8633" style="stroke:#181818;stroke-width:1.0;" width="10" x="503" y="142.1094"/><rect fill="#FFFFFF" height="28" style="stroke:#181818;stroke-width:1.0;" width="10" x="508" y="179.4199"/><rect fill="#FFFFFF" height="179.2422" style="stroke:#181818;stroke-width:1.0;" width="10" x="665" y="243.7305"/><rect fill="#FFFFFF" height="149.9316" style="stroke:#181818;stroke-width:1.0;" width="10" x="993" y="273.041"/><rect fill="#FFFFFF" height="112.6211" style="stroke:#181818;stroke-width:1.0;" width="10" x="998" y="310.3516"/><rect fill="#FFFFFF" height="70.3105" style="stroke:#181818;stroke-width:1.0;" width="10" x="1003" y="352.6621"/><rect fill="#FFFFFF" height="28" style="stroke:#181818;stroke-width:1.0;" width="10" x="1008" y="394.9727"/><line style="stroke:#181818;stroke-width:0.5;stroke-dasharray:5.0,5.0;" x1="92" x2="92" y1="81.4883" y2="447.9727"/><line style="stroke:#181818;stroke-width:0.5;stroke-dasharray:5.0,5.0;" x1="288" x2="288" y1="81.4883" y2="447.9727"/><line style="stroke:#181818;stroke-width:0.5;stroke-dasharray:5.0,5.0;" x1="508" x2="508" y1="81.4883" y2="447.9727"/><line style="stroke:#181818;stroke-width:0.5;stroke-dasharray:5.0,5.0;" x1="670" x2="670" y1="81.4883" y2="447.9727"/><line style="stroke:#181818;stroke-width:0.5;stroke-dasharray:5.0,5.0;" x1="998" x2="998" y1="81.4883" y2="447.9727"/><text fill="#000000" font-family="sans-serif" font-size="14" lengthAdjust="spacing" textLength="168" x="5" y="78.5352">Power On Raspberry Pi 5</text><ellipse cx="92" cy="13.5" fill="#E2E2F0" rx="8" ry="8" style="stroke:#181818;stroke-width:0.5;"/><path d="M92,21.5 L92,48.5 M79,29.5 L105,29.5 M92,48.5 L79,63.5 M92,48.5 L105,63.5 " fill="none" style="stroke:#181818;stroke-width:0.5;"/><text fill="#000000" font-family="sans-serif" font-size="14" lengthAdjust="spacing" textLength="168" x="5" y="460.5078">Power On Raspberry Pi 5</text><ellipse cx="92" cy="471.9609" fill="#E2E2F0" rx="8" ry="8" style="stroke:#181818;stroke-width:0.5;"/><path d="M92,479.9609 L92,506.9609 M79,487.9609 L105,487.9609 M92,506.9609 L79,521.9609 M92,506.9609 L105,521.9609 " fill="none" style="stroke:#181818;stroke-width:0.5;"/><rect fill="#E2E2F0" height="30.4883" rx="2.5" ry="2.5" style="stroke:#181818;stroke-width:0.5;" width="46" x="265" y="50"/><text fill="#000000" font-family="sans-serif" font-size="14" lengthAdjust="spacing" textLength="32" x="272" y="70.5352">ROM</text><rect fill="#E2E2F0" height="30.4883" rx="2.5" ry="2.5" style="stroke:#181818;stroke-width:0.5;" width="46" x="265" y="446.9727"/><text fill="#000000" font-family="sans-serif" font-size="14" lengthAdjust="spacing" textLength="32" x="272" y="467.5078">ROM</text><rect fill="#E2E2F0" height="30.4883" rx="2.5" ry="2.5" style="stroke:#181818;stroke-width:0.5;" width="94" x="461" y="50"/><text fill="#000000" font-family="sans-serif" font-size="14" lengthAdjust="spacing" textLength="80" x="468" y="70.5352">SPI EEPROM</text><rect fill="#E2E2F0" height="30.4883" rx="2.5" ry="2.5" style="stroke:#181818;stroke-width:0.5;" width="94" x="461" y="446.9727"/><text fill="#000000" font-family="sans-serif" font-size="14" lengthAdjust="spacing" textLength="80" x="468" y="467.5078">SPI EEPROM</text><rect fill="#E2E2F0" height="30.4883" rx="2.5" ry="2.5" style="stroke:#181818;stroke-width:0.5;" width="210" x="565" y="50"/><text fill="#000000" font-family="sans-serif" font-size="14" lengthAdjust="spacing" textLength="196" x="572" y="70.5352">bl31 image (ATF) on SD card</text><rect fill="#E2E2F0" height="30.4883" rx="2.5" ry="2.5" style="stroke:#181818;stroke-width:0.5;" width="210" x="565" y="446.9727"/><text fill="#000000" font-family="sans-serif" font-size="14" lengthAdjust="spacing" textLength="196" x="572" y="467.5078">bl31 image (ATF) on SD card</text><rect fill="#E2E2F0" height="30.4883" rx="2.5" ry="2.5" style="stroke:#181818;stroke-width:0.5;" width="216" x="890" y="50"/><text fill="#000000" font-family="sans-serif" font-size="14" lengthAdjust="spacing" textLength="202" x="897" y="70.5352">bare-metal binary on SD card</text><rect fill="#E2E2F0" height="30.4883" rx="2.5" ry="2.5" style="stroke:#181818;stroke-width:0.5;" width="216" x="890" y="446.9727"/><text fill="#000000" font-family="sans-serif" font-size="14" lengthAdjust="spacing" textLength="202" x="897" y="467.5078">bare-metal binary on SD card</text><rect fill="#FFFFFF" height="310.1738" style="stroke:#181818;stroke-width:1.0;" width="10" x="283" y="112.7988"/><rect fill="#FFFFFF" height="280.8633" style="stroke:#181818;stroke-width:1.0;" width="10" x="503" y="142.1094"/><rect fill="#FFFFFF" height="28" style="stroke:#181818;stroke-width:1.0;" width="10" x="508" y="179.4199"/><rect fill="#FFFFFF" height="179.2422" style="stroke:#181818;stroke-width:1.0;" width="10" x="665" y="243.7305"/><rect fill="#FFFFFF" height="149.9316" style="stroke:#181818;stroke-width:1.0;" width="10" x="993" y="273.041"/><rect fill="#FFFFFF" height="112.6211" style="stroke:#181818;stroke-width:1.0;" width="10" x="998" y="310.3516"/><rect fill="#FFFFFF" height="70.3105" style="stroke:#181818;stroke-width:1.0;" width="10" x="1003" y="352.6621"/><rect fill="#FFFFFF" height="28" style="stroke:#181818;stroke-width:1.0;" width="10" x="1008" y="394.9727"/><polygon fill="#181818" points="271,108.7988,281,112.7988,271,116.7988,275,112.7988" style="stroke:#181818;stroke-width:1.0;"/><line style="stroke:#181818;stroke-width:1.0;" x1="92" x2="277" y1="112.7988" y2="112.7988"/><text fill="#000000" font-family="sans-serif" font-size="13" lengthAdjust="spacing" textLength="172" x="99" y="108.0566">Boot first-stage bootloader</text><polygon fill="#181818" points="491,138.1094,501,142.1094,491,146.1094,495,142.1094" style="stroke:#181818;stroke-width:1.0;"/><line style="stroke:#181818;stroke-width:1.0;" x1="293" x2="497" y1="142.1094" y2="142.1094"/><text fill="#000000" font-family="sans-serif" font-size="13" lengthAdjust="spacing" textLength="191" x="300" y="137.3672">Boot second-stage bootloader</text><line style="stroke:#181818;stroke-width:1.0;" x1="518" x2="560" y1="171.4199" y2="171.4199"/><line style="stroke:#181818;stroke-width:1.0;" x1="560" x2="560" y1="171.4199" y2="184.4199"/><line style="stroke:#181818;stroke-width:1.0;" x1="519" x2="560" y1="184.4199" y2="184.4199"/><polygon fill="#181818" points="529,180.4199,519,184.4199,529,188.4199,525,184.4199" style="stroke:#181818;stroke-width:1.0;"/><text fill="#000000" font-family="sans-serif" font-size="13" lengthAdjust="spacing" textLength="96" x="525" y="166.6777">Initialize DRAM</text><polygon fill="#181818" points="653,239.7305,663,243.7305,653,247.7305,657,243.7305" style="stroke:#181818;stroke-width:1.0;"/><line style="stroke:#181818;stroke-width:1.0;" x1="513" x2="659" y1="243.7305" y2="243.7305"/><text fill="#000000" font-family="sans-serif" font-size="13" lengthAdjust="spacing" textLength="121" x="520" y="238.9883">Boot OS bootloader</text><polygon fill="#181818" points="981,269.041,991,273.041,981,277.041,985,273.041" style="stroke:#181818;stroke-width:1.0;"/><line style="stroke:#181818;stroke-width:1.0;" x1="675" x2="987" y1="273.041" y2="273.041"/><text fill="#000000" font-family="sans-serif" font-size="13" lengthAdjust="spacing" textLength="299" x="682" y="268.2988">Boot AArch64 Bare-meta Ada program to DRAM</text><line style="stroke:#181818;stroke-width:1.0;" x1="1003" x2="1050" y1="297.3516" y2="297.3516"/><line style="stroke:#181818;stroke-width:1.0;" x1="1050" x2="1050" y1="297.3516" y2="310.3516"/><line style="stroke:#181818;stroke-width:1.0;" x1="1009" x2="1050" y1="310.3516" y2="310.3516"/><polygon fill="#181818" points="1019,306.3516,1009,310.3516,1019,314.3516,1015,310.3516" style="stroke:#181818;stroke-width:1.0;"/><text fill="#000000" font-family="sans-serif" font-size="13" lengthAdjust="spacing" textLength="85" x="1015" y="292.6094">reset_handler</text><line style="stroke:#181818;stroke-width:1.0;" x1="1008" x2="1055" y1="339.6621" y2="339.6621"/><line style="stroke:#181818;stroke-width:1.0;" x1="1055" x2="1055" y1="339.6621" y2="352.6621"/><line style="stroke:#181818;stroke-width:1.0;" x1="1014" x2="1055" y1="352.6621" y2="352.6621"/><polygon fill="#181818" points="1024,348.6621,1014,352.6621,1024,356.6621,1020,352.6621" style="stroke:#181818;stroke-width:1.0;"/><text fill="#000000" font-family="sans-serif" font-size="13" lengthAdjust="spacing" textLength="176" x="1020" y="334.9199">main generated by gnatbind</text><line style="stroke:#181818;stroke-width:1.0;" x1="1018" x2="1060" y1="386.9727" y2="386.9727"/><line style="stroke:#181818;stroke-width:1.0;" x1="1060" x2="1060" y1="386.9727" y2="399.9727"/><line style="stroke:#181818;stroke-width:1.0;" x1="1019" x2="1060" y1="399.9727" y2="399.9727"/><polygon fill="#181818" points="1029,395.9727,1019,399.9727,1029,403.9727,1025,399.9727" style="stroke:#181818;stroke-width:1.0;"/><text fill="#000000" font-family="sans-serif" font-size="13" lengthAdjust="spacing" textLength="139" x="1025" y="382.2305">Ada main subprogram</text><!--SRC=[hPHDJy8m6CVlV8f_Tb4FEnZ5WmUJ4J3XG5YOT_DiVHnDjXQxei5FxmgJZRSX2zVs__9hdxGtLjgCCQDY4RCngt2CFWPQMqJykMILS8yIgmsyK7-pmLJLMeGIVQztSWV-2xpPTEBXUHFv8KrX_S9IoeZBXKoJOECAv1TPteXxGELozgW46et2Pah1YLRYCARqrKaDdzjmcSsem-YnabPI9dyOmramgKnjWO8lgekpXtl8t47V1c-lTz0AqH096R4zsZJQEz0EGbj29NR5hKLh4ZBivsmfGomLbUCwWX849fa_FMBm9qOW20kZKqCvh6xUqYvbMtfjM9EsWlm7rN31zdrEIcJR2-iET1scdAH2oefDMIyGhv0gigLKx9TrPBmEfXld6hLOnjLOZnHrHsm-ZukytOmTN9TQTlHdtkAfpw6vxXP-0G00]--></g></svg>